<?xml version="1.0" encoding="utf-8"?>
<!-- Generator: Adobe Illustrator 24.0.1, SVG Export Plug-In . SVG Version: 6.00 Build 0)  -->
<svg version="1.1" id="Map" xmlns="http://www.w3.org/2000/svg" xmlns:xlink="http://www.w3.org/1999/xlink" x="0px" y="0px"
	 viewBox="0 0 343.12 400" style="enable-background:new 0 0 343.12 400;" xml:space="preserve">
<style type="text/css">
	.st0{fill:#397493;}
	.st1{fill:#FFFFFF;}
	.st2{font-family:'Roboto-Bold';}
	.st3{font-size:45.5753px;}
	.st4{font-size:21px;}
</style>
<path class="st0" d="M212.34,150.31c1.8,0,3.18-0.76,4.16-2.29c0.97-1.53,1.47-3.72,1.48-6.59v-1.36c0-2.93-0.49-5.16-1.47-6.68
	c-0.98-1.52-2.38-2.28-4.21-2.28c-3.57,0-5.46,2.68-5.66,8.03l-0.02,2.17c0,2.89,0.48,5.12,1.44,6.67
	C209.02,149.53,210.45,150.31,212.34,150.31z"/>
<path class="st0" d="M88.86,112.68L88.86,112.68c-4.42,0-8-3.58-8-8V79.95c0-4.42,3.58-8,8-8h0c4.42,0,8,3.58,8,8v24.73
	C96.87,109.1,93.28,112.68,88.86,112.68z"/>
<path class="st0" d="M130.9,112.68L130.9,112.68c-4.42,0-8-3.58-8-8V79.95c0-4.42,3.58-8,8-8h0c4.42,0,8,3.58,8,8v24.73
	C138.9,109.1,135.32,112.68,130.9,112.68z"/>
<path class="st0" d="M172.69,112.68L172.69,112.68c-4.42,0-8-3.58-8-8V79.95c0-4.42,3.58-8,8-8h0c4.42,0,8,3.58,8,8v24.73
	C180.69,109.1,177.11,112.68,172.69,112.68z"/>
<path class="st0" d="M213.17,112.68L213.17,112.68c-4.42,0-8-3.58-8-8V79.95c0-4.42,3.58-8,8-8h0c4.42,0,8,3.58,8,8v24.73
	C221.17,109.1,217.59,112.68,213.17,112.68z"/>
<path class="st0" d="M253.83,112.68L253.83,112.68c-4.42,0-8-3.58-8-8V79.95c0-4.42,3.58-8,8-8h0c4.42,0,8,3.58,8,8v24.73
	C261.84,109.1,258.25,112.68,253.83,112.68z"/>
<path class="st0" d="M199.38,140.11c0-2.89,0.53-5.45,1.59-7.66c1.06-2.21,2.58-3.92,4.56-5.12c1.98-1.2,4.24-1.8,6.76-1.8
	c2.5,0,4.73,0.6,6.69,1.78c1.96,1.19,3.49,2.88,4.57,5.08c1.09,2.2,1.64,4.72,1.65,7.56v1.36c0,2.88-0.53,5.43-1.6,7.65
	c-1.07,2.22-2.59,3.92-4.55,5.12c-1.97,1.2-4.21,1.79-6.72,1.79c-2.51,0-4.75-0.58-6.69-1.73c-1.95-1.16-3.47-2.81-4.55-4.96
	c-1.09-2.15-1.66-4.62-1.71-7.4V140.11z"/>
<rect x="188.17" y="125.93" class="st0" width="7.1" height="29.53"/>
<path class="st0" d="M128.12,154.65c-1.56,0.81-3.3,1.22-5.22,1.22c-3.22,0-5.72-0.81-7.5-2.43c-1.78-1.62-2.68-3.92-2.68-6.9h7.14
	c0,1.35,0.23,2.33,0.7,2.94c0.47,0.61,1.25,0.91,2.34,0.91c0.99,0,1.75-0.37,2.28-1.11c0.53-0.74,0.8-1.77,0.8-3.09v-20.26h7.1
	v20.26c0,1.88-0.44,3.56-1.31,5.03C130.9,152.7,129.68,153.84,128.12,154.65z"/>
<path class="st0" d="M155.31,154.61c-1.74,0.84-3.81,1.26-6.19,1.26c-3.6,0-6.43-0.93-8.5-2.8c-2.07-1.87-3.12-4.42-3.16-7.67
	v-19.47h7.16v19.61c0.08,3.23,1.58,4.85,4.5,4.85c1.47,0,2.59-0.41,3.35-1.22c0.76-0.81,1.14-2.13,1.14-3.96v-19.29h7.12v19.33
	c0,2.19-0.47,4.09-1.4,5.69C158.39,152.55,157.05,153.77,155.31,154.61z"/>
<polygon class="st0" points="184.68,155.46 165.17,155.46 165.17,125.93 172.29,125.93 172.29,149.98 184.68,149.98 "/>
<path class="st0" d="M286.09,98.52c-2.75-5.98-8.63-7.88-9.63-8.18c-68.88-0.69-137.76-1.39-206.64-2.08
	c-2.92,0.52-7.46,1.82-10.52,5.59c-3.08,3.8-3.3,8.36-3.3,9.98c-0.05,67.09-0.11,134.18-0.16,201.26c0,0.76,0.12,2.91,1.17,5.36
	c1.51,3.5,4.79,7.13,9.5,8.48c2.16,0.62,4.1,0.61,5.53,0.46c67.09,0,134.18,0,201.26,0c1.57-0.27,4.18-0.94,6.67-2.86
	c3.52-2.71,4.78-6.34,5.72-9.05c1.37-3.96,1.42-7.29,1.43-8.1c0.12-7.31,0.22-85.52,0.16-192.69
	C287.48,105.17,287.67,101.97,286.09,98.52z M131.08,92.32c6.51,0,11.79,5.28,11.79,11.79s-5.28,11.79-11.79,11.79
	c-6.51,0-11.79-5.28-11.79-11.79S124.57,92.32,131.08,92.32z M99.22,297.61H73.66v-28.84h25.56V297.61z M99.22,265.09H73.66v-28.84
	h25.56V265.09z M99.22,232.56H73.66v-28.84h25.56V232.56z M99.22,199.88H73.66v-28.84h25.56V199.88z M88.86,115.89
	c-6.51,0-11.79-5.28-11.79-11.79s5.28-11.79,11.79-11.79c6.51,0,11.79,5.28,11.79,11.79S95.37,115.89,88.86,115.89z M127.62,297.61
	h-25.56v-28.84h25.56V297.61z M127.62,265.09h-25.56v-28.84h25.56V265.09z M127.62,199.88h-25.56v-28.84h25.56V199.88z
	 M156.01,297.61h-25.56v-28.84h25.56V297.61z M156.01,265.09h-25.56v-28.84h25.56V265.09z M156.01,232.56h-25.56v-28.84h25.56
	V232.56z M156.01,199.88h-25.56v-28.84h25.56V199.88z M184.41,297.61h-25.56v-28.84h25.56V297.61z M184.41,265.09h-25.56v-28.84
	h25.56V265.09z M184.41,232.56h-25.56v-28.84h25.56V232.56z M184.41,199.88h-25.56v-28.84h25.56V199.88z M172.69,115.89
	c-6.51,0-11.79-5.28-11.79-11.79s5.28-11.79,11.79-11.79c6.51,0,11.79,5.28,11.79,11.79S179.2,115.89,172.69,115.89z M212.8,297.61
	h-25.56v-28.84h25.56V297.61z M212.8,265.09h-25.56v-28.84h25.56V265.09z M212.8,232.56h-25.56v-28.84h25.56V232.56z M212.8,199.88
	h-25.56v-28.84h25.56V199.88z M201.38,104.1c0-6.51,5.28-11.79,11.79-11.79c6.51,0,11.79,5.28,11.79,11.79s-5.28,11.79-11.79,11.79
	C206.66,115.89,201.38,110.61,201.38,104.1z M241.2,297.61h-25.56v-28.84h25.56V297.61z M241.2,265.09h-25.56v-28.84h25.56V265.09z
	 M241.2,199.88h-25.56v-28.84h25.56V199.88z M253.83,92.32c6.51,0,11.79,5.28,11.79,11.79s-5.28,11.79-11.79,11.79
	c-6.51,0-11.79-5.28-11.79-11.79S247.32,92.32,253.83,92.32z M269.59,297.61h-25.56v-28.84h25.56V297.61z M269.59,265.09h-25.56
	v-28.84h25.56V265.09z M269.59,232.56h-25.56v-28.84h25.56V232.56z M269.59,199.88h-25.56v-28.84h25.56V199.88z"/>
<text transform="matrix(1 0 0 1 110.2533 157.6261)" class="st1 st2 st3">JULIO</text>
<text transform="matrix(1 0 0 1 102.0515 226.9381)" class="st1 st2 st4">12</text>
<text transform="matrix(1 0 0 1 215.6333 226.9379)" class="st1 st2 st4">16</text>
</svg>
