<?xml version="1.0" encoding="utf-8"?>
<!-- Generator: Adobe Illustrator 24.0.1, SVG Export Plug-In . SVG Version: 6.00 Build 0)  -->
<svg version="1.1" id="Map" xmlns="http://www.w3.org/2000/svg" xmlns:xlink="http://www.w3.org/1999/xlink" x="0px" y="0px"
	 viewBox="0 0 343.12 400" style="enable-background:new 0 0 343.12 400;" xml:space="preserve">
<style type="text/css">
	.st0{fill:#397493;}
	.st1{fill:#FFFFFF;}
	.st2{font-family:'Roboto-Bold';}
	.st3{font-size:21px;}
	.st4{font-size:45.5753px;}
</style>
<g>
	<g>
		<path class="st0" d="M212.34,148.85c1.8,0,3.18-0.76,4.16-2.29c0.97-1.53,1.47-3.72,1.48-6.59v-1.36c0-2.93-0.49-5.16-1.47-6.68
			c-0.98-1.52-2.38-2.28-4.21-2.28c-3.57,0-5.46,2.68-5.66,8.03l-0.02,2.17c0,2.89,0.48,5.12,1.44,6.67
			C209.02,148.07,210.45,148.85,212.34,148.85z"/>
		<path class="st0" d="M88.86,111.22L88.86,111.22c-4.42,0-8-3.58-8-8V78.49c0-4.42,3.58-8,8-8h0c4.42,0,8,3.58,8,8v24.73
			C96.87,107.64,93.28,111.22,88.86,111.22z"/>
		<path class="st0" d="M130.9,111.22L130.9,111.22c-4.42,0-8-3.58-8-8V78.49c0-4.42,3.58-8,8-8h0c4.42,0,8,3.58,8,8v24.73
			C138.9,107.64,135.32,111.22,130.9,111.22z"/>
		<path class="st0" d="M172.69,111.22L172.69,111.22c-4.42,0-8-3.58-8-8V78.49c0-4.42,3.58-8,8-8h0c4.42,0,8,3.58,8,8v24.73
			C180.69,107.64,177.11,111.22,172.69,111.22z"/>
		<path class="st0" d="M213.17,111.22L213.17,111.22c-4.42,0-8-3.58-8-8V78.49c0-4.42,3.58-8,8-8h0c4.42,0,8,3.58,8,8v24.73
			C221.17,107.64,217.59,111.22,213.17,111.22z"/>
		<path class="st0" d="M253.83,111.22L253.83,111.22c-4.42,0-8-3.58-8-8V78.49c0-4.42,3.58-8,8-8h0c4.42,0,8,3.58,8,8v24.73
			C261.84,107.64,258.25,111.22,253.83,111.22z"/>
		<path class="st0" d="M199.38,138.65c0-2.89,0.53-5.45,1.59-7.66c1.06-2.21,2.58-3.92,4.56-5.12c1.98-1.2,4.24-1.8,6.76-1.8
			c2.5,0,4.73,0.6,6.69,1.78c1.96,1.19,3.49,2.88,4.57,5.08c1.09,2.2,1.64,4.72,1.65,7.56v1.36c0,2.88-0.53,5.43-1.6,7.65
			c-1.07,2.22-2.59,3.92-4.55,5.12c-1.97,1.2-4.21,1.79-6.72,1.79c-2.51,0-4.75-0.58-6.69-1.73c-1.95-1.16-3.47-2.81-4.55-4.96
			c-1.09-2.15-1.66-4.62-1.71-7.4V138.65z"/>
		<rect x="188.17" y="124.47" class="st0" width="7.1" height="29.53"/>
		<path class="st0" d="M128.12,153.19c-1.56,0.81-3.3,1.22-5.22,1.22c-3.22,0-5.72-0.81-7.5-2.43c-1.78-1.62-2.68-3.92-2.68-6.9
			h7.14c0,1.35,0.23,2.33,0.7,2.94c0.47,0.61,1.25,0.91,2.34,0.91c0.99,0,1.75-0.37,2.28-1.11c0.53-0.74,0.8-1.77,0.8-3.09v-20.26
			h7.1v20.26c0,1.88-0.44,3.56-1.31,5.03C130.9,151.24,129.68,152.38,128.12,153.19z"/>
		<path class="st0" d="M155.31,153.15c-1.74,0.84-3.81,1.26-6.19,1.26c-3.6,0-6.43-0.93-8.5-2.8c-2.07-1.87-3.12-4.42-3.16-7.67
			v-19.47h7.16v19.61c0.08,3.23,1.58,4.85,4.5,4.85c1.47,0,2.59-0.41,3.35-1.22c0.76-0.81,1.14-2.13,1.14-3.96v-19.29h7.12v19.33
			c0,2.19-0.47,4.09-1.4,5.69C158.39,151.09,157.05,152.31,155.31,153.15z"/>
		<polygon class="st0" points="184.68,154 165.17,154 165.17,124.47 172.29,124.47 172.29,148.53 184.68,148.53 		"/>
		<path class="st0" d="M286.09,97.06c-2.75-5.98-8.63-7.88-9.63-8.18c-68.88-0.69-137.76-1.39-206.64-2.08
			c-2.92,0.52-7.46,1.82-10.52,5.59c-3.08,3.8-3.3,8.36-3.3,9.98c-0.05,67.09-0.11,134.18-0.16,201.26c0,0.76,0.12,2.91,1.17,5.36
			c1.51,3.5,4.79,7.13,9.5,8.48c2.16,0.62,4.1,0.61,5.53,0.46c67.09,0,134.18,0,201.26,0c1.57-0.27,4.18-0.94,6.67-2.86
			c3.52-2.71,4.78-6.34,5.72-9.05c1.37-3.96,1.42-7.29,1.43-8.1c0.12-7.31,0.22-85.52,0.16-192.69
			C287.48,103.71,287.67,100.51,286.09,97.06z M131.08,90.86c6.51,0,11.79,5.28,11.79,11.79s-5.28,11.79-11.79,11.79
			c-6.51,0-11.79-5.28-11.79-11.79S124.57,90.86,131.08,90.86z M99.22,296.16H73.66v-28.84h25.56V296.16z M99.22,263.63H73.66
			v-28.84h25.56V263.63z M99.22,231.1H73.66v-28.84h25.56V231.1z M99.22,198.42H73.66v-28.84h25.56V198.42z M88.86,114.43
			c-6.51,0-11.79-5.28-11.79-11.79s5.28-11.79,11.79-11.79c6.51,0,11.79,5.28,11.79,11.79S95.37,114.43,88.86,114.43z
			 M127.62,296.16h-25.56v-28.84h25.56V296.16z M127.62,263.63h-25.56v-28.84h25.56V263.63z M127.62,231.1h-25.56v-28.84h25.56
			V231.1z M127.62,198.42h-25.56v-28.84h25.56V198.42z M156.01,296.16h-25.56v-28.84h25.56V296.16z M156.01,263.63h-25.56v-28.84
			h25.56V263.63z M156.01,198.42h-25.56v-28.84h25.56V198.42z M184.41,296.16h-25.56v-28.84h25.56V296.16z M184.41,263.63h-25.56
			v-28.84h25.56V263.63z M184.41,198.42h-25.56v-28.84h25.56V198.42z M172.69,114.43c-6.51,0-11.79-5.28-11.79-11.79
			s5.28-11.79,11.79-11.79c6.51,0,11.79,5.28,11.79,11.79S179.2,114.43,172.69,114.43z M212.8,296.16h-25.56v-28.84h25.56V296.16z
			 M212.8,263.63h-25.56v-28.84h25.56V263.63z M212.8,198.42h-25.56v-28.84h25.56V198.42z M201.38,102.65
			c0-6.51,5.28-11.79,11.79-11.79c6.51,0,11.79,5.28,11.79,11.79s-5.28,11.79-11.79,11.79
			C206.66,114.43,201.38,109.16,201.38,102.65z M241.2,296.16h-25.56v-28.84h25.56V296.16z M241.2,263.63h-25.56v-28.84h25.56
			V263.63z M241.2,231.1h-25.56v-28.84h25.56V231.1z M241.2,198.42h-25.56v-28.84h25.56V198.42z M253.83,90.86
			c6.51,0,11.79,5.28,11.79,11.79s-5.28,11.79-11.79,11.79c-6.51,0-11.79-5.28-11.79-11.79S247.32,90.86,253.83,90.86z
			 M269.59,296.16h-25.56v-28.84h25.56V296.16z M269.59,263.63h-25.56v-28.84h25.56V263.63z M269.59,231.1h-25.56v-28.84h25.56
			V231.1z M269.59,198.42h-25.56v-28.84h25.56V198.42z"/>
	</g>
	<text transform="matrix(1 0 0 1 128.9764 226.9998)" class="st1 st2 st3">13</text>
	<text transform="matrix(1 0 0 1 110.2533 156.1677)" class="st1 st2 st4">JULIO</text>
	<text transform="matrix(1 0 0 1 158.8426 227.0001)" class="st1 st2 st3">14</text>
	<text transform="matrix(1 0 0 1 188.4192 226.9999)" class="st1 st2 st3">15</text>
</g>
</svg>
