<?xml version="1.0" encoding="utf-8"?>
<!-- Generator: Adobe Illustrator 24.0.1, SVG Export Plug-In . SVG Version: 6.00 Build 0)  -->
<svg version="1.1" id="Capa_1" xmlns="http://www.w3.org/2000/svg" xmlns:xlink="http://www.w3.org/1999/xlink" x="0px" y="0px"
	 viewBox="0 0 563.5 417.09" style="enable-background:new 0 0 563.5 417.09;" xml:space="preserve">
<style type="text/css">
	.st0{clip-path:url(#SVGID_2_);fill:#3C7594;}
	.st1{clip-path:url(#SVGID_2_);}
	.st2{fill:#EFEEEE;}
	.st3{fill:#E7E6E6;}
	.st4{fill:#FAFAFA;}
	.st5{fill:#DBEBD1;}
	.st6{fill:#F5F5CE;}
	.st7{fill:none;stroke:#EF7D80;stroke-width:1.7212;stroke-linejoin:round;}
	.st8{fill:none;stroke:#FFE235;stroke-width:1.2909;stroke-linecap:round;stroke-linejoin:round;}
	.st9{fill:#020203;}
	.st10{font-family:'HelveticaNeue';}
	.st11{font-size:8px;}
	.st12{fill:none;stroke:#F9E3B3;stroke-width:2.5;stroke-miterlimit:10;}
	.st13{fill:none;stroke:#FFFFFF;stroke-width:2.5;stroke-linecap:round;stroke-linejoin:bevel;}
	.st14{fill:#CAB9DC;stroke:#1E1E1C;stroke-miterlimit:10;}
	.st15{fill:none;stroke:#FBCF49;stroke-width:2.5;stroke-miterlimit:10;}
	.st16{font-family:'Roboto-Medium';}
	.st17{font-size:15px;}
	.st18{font-family:'Roboto-Regular';}
	.st19{font-size:13.5px;}
	.st20{font-family:'Roboto-Black';}
	.st21{fill:none;stroke:#EFEEEE;stroke-width:5;stroke-miterlimit:10;}
</style>
<g>
	<defs>
		<ellipse id="SVGID_1_" cx="285.95" cy="206.41" rx="265.39" ry="197.76"/>
	</defs>
	<clipPath id="SVGID_2_">
		<use xlink:href="#SVGID_1_"  style="overflow:visible;"/>
	</clipPath>
	<rect x="-48.87" y="8.65" class="st0" width="600" height="400"/>
	<g id="Land_1_" class="st1">
		<path class="st2" d="M109.95,339.56l1.06,1.24l-0.89,1.07l2.49,1.77l0.71,3.2l-1.77,8.36l1.77-0.36l0.18,0.66v2.36l1.07,1.6
			l-0.71,0.18l1.06,1.6l-1.77,1.42l1.6,1.6l-1.07,2.31l1.24,1.6l-0.17,2.14l-3.03,3.2l0.18,3.73l-1.6,1.6l0.4,4.77l0.14,3.05
			l0.13,0.18l0.04,0.53l2.49,2.84l0.53,3.56l0.89,0.71l-0.53,1.96l0.18,0.17l0,0l1.6,1.6l1.78,0.18l-0.72,0.71l0.22,0.17l-0.22,0.36
			l1.6,0.72l-0.17,3.55l0.71,0.53v1.96l-1.07,0.89l-0.53-0.54l-1,1.91h434.36v-400H140.5l0.37,2.08l1.96,0.71l-1.07,4.98l1.25,4.09
			l-1.07,1.95l1.07,0.71l-0.18,1.96l1.24,0.17l1.07,1.6l-0.71,0.54l2.49,1.42l1.06,5.86l1.6,1.43l-0.88,3.2l1.06,2.84l-0.89,3.2
			l0.18,2.13l0.89,0.54l-1.07,3.55l-1.6,1.07l0.71,2.31l-1.77,4.09l1.06,2.66l-0.89,1.07l1.07,5.86l-1.42,2.14l-0.53,4.26
			l-2.49,1.42l1.42-0.17l-0.53,0.71l1.42,1.06l-1.25,2.49l1.25-0.17l-0.18,1.24h1.24l1.43,1.78v3.37l2.84,4.09l-3.02,10.84
			l-2.85,2.67l-0.35,1.78l1.42,1.42l-1.24,2.13l-0.36,4.09l-2.31,2.49l0.36,4.8h-1.07l-1.42,4.09l-2.67,0.89l-2.66,3.73l0.88,2.31
			l-0.53,1.24l6.4,7.47l1.24,7.82l-1.42,4.44l-1.24,1.78l-4.45,1.96l-1.06,1.95l-0.71,0.18l-0.36-2.31h-1.07l1.07-2.14l-2.13,1.07
			l0.53-1.95l-2.49,3.73l0.89,1.06l2.31-0.35l1.42,1.24l-1.77,1.6l0.89,1.25l1.42,3.2l2.31,2.31l0.71,1.78l-1.07,2.66l-1.24-0.18
			l-0.89-0.17l0.36,1.06l0.88,0.36l7.29,8.17l1.25,2.67l0.53,3.02l1.42,1.07l-0.53,3.73l-0.54,2.13l1.25,1.96l0.71,4.8l-2.31,1.78
			l2.13,3.2l-2.13,0.53l-1.6,1.78l-0.89,9.59l-1.24,3.91l-1.43,3.03l-1.06,1.6l-2.31-0.18l-0.89,0.35l0.35,0.89l-4.08,5.51
			l-1.96,0.36l-3.73,2.84l-3.38-0.18l-3.73,6.94l1.6,5.68l-0.71,3.03l1.95,0.53l0.54,2.49h0.88l2.14,3.91l1.6,0.18l-0.18,2.13
			l3.55,3.55l-1.24,1.25l0.36,0.89l2.31,1.42l-4.09,7.64l1.42,1.25l-0.53,2.13l1.42,0.35l0.18,4.98l1.6,1.24l-0.36,1.78l-1.42,1.07
			l0.89,4.62l1.24,0.36l-1.06,2.13l0.88,2.13l-1.24,4.44l-1.78,1.78l-2.49-0.18l0.36,4.27l1.78,0.36l1.77,1.95l-1.95,4.62
			l-1.07,2.14l0.89,1.6l-1.24,1.59l-3.02,1.07l-5.69,7.11l-1.07,4.62l-2.84,1.25l-1.25-0.89L109.95,339.56z"/>
	</g>
	<g id="Nationalpark_1_" class="st1">
		<path class="st3" d="M135.01,226.33l0.35,0.89l2.85-1.06l-2.31-0.18L135.01,226.33 M140.7,221.53l1.06-1.24l0.18-2.67
			L140.7,221.53 M311.15,326.94l27.2,26.84l9.42,17.24l14.93,22.93l24.53,3.73l14.57-0.18l3.2,3.73l0.43,7.42h39.12l-0.09-0.66
			l-12.8-11.91l-0.35-4.27l3.02-1.6v-3.73l9.07-3.91l6.93-1.78l9.6-4.8l0.88-5.33l2.67-1.06l2.84-14.22h-0.04l3.96-20.09
			l-29.87-10.31l0.18-26.13l-44.97-12.97l-8.88-30.57l-28.44,6.57l-28.44-0.18l0.35,3.56h-3.2l-0.17,16.35L311.15,326.94
			 M403.05,231.49l27.01,0.53l0.89-58.83L413,175.5l-0.35,32.17l-8.89,0.18L403.05,231.49 M437.53,35.61l1.6,1.25l3.73-4.8
			l-1.6-1.42l-1.95,1.42L437.53,35.61z"/>
	</g>
	<g id="Residential_1_" class="st1">
		<path class="st4" d="M443.75,282.15l-1.95-1.07l-1.43,1.24l-1.95-2.66l-1.42,0.35v-1.24l1.06-0.36l0.71,1.07l2.32-0.36l2.13,0.89
			l0.71,1.07L443.75,282.15 M386.52,229.36v-2.32l0.18-1.95h1.42l0.53-1.78h1.42l1.07-1.95v2.13l1.07-1.42l1.59,0.35l-0.35,2.14
			l-1.24,0.53l1.59,2.67l-0.71,0.53l-1.06,1.24h1.06l-1.6,0.54l2.31,0.17l-0.17,0.71l0.35,1.6l0.89,0.18l-1.07,0.89l1.96-0.18
			l0.89,0.89l-0.89,1.25l-0.36-1.07l-1.77,1.24l-1.07-0.35v0.89l1.07-0.18l-1.07,1.95l1.07-0.35l0.17,1.78l3.38,2.13l-0.89,1.6
			l-0.71-0.89l-2.31,1.07l0.71-1.25l-1.06,0.18l-0.71-3.02l-2.14-1.96v-2.84l-1.6-0.18v0.71l-0.89-0.71l-0.35-5.51L386.52,229.36
			 M112.08,376.71l0.36,0.71l-0.54,1.24l-1.24,0.18L112.08,376.71 M132.88,279.3l1.77,0.71l4.98-1.24l0.89,2.31l-5.87,0.71
			l0.18,1.78l-1.6,0.53l-0.53-0.89L132.88,279.3 M130.74,276.99l-0.71,1.78l-1.06-2.13L130.74,276.99 M131.81,294.05l-0.71-1.06
			l1.24,0.35L131.81,294.05 M126.65,243.4l0.36-1.25l0.89,0.18v1.42L126.65,243.4 M394.87,232.73l1.78-1.78l0.35,1.78H394.87
			 M165.4,180.65l-6.04,0.89l0.18-1.06l-1.25-0.89l4.8-3.03l2.49,0.54l0.18,1.06L165.4,180.65 M156.52,207.31l0.17-2.84l2.67-4.98
			h1.24l-1.06-0.35l0.35-1.96l1.78-0.35l3.91,2.13l-2.31,0.36l1.96,1.24l-0.18,0.89l-2.49-1.42l-0.53,1.6h-1.07l4.44,1.06v-1.95
			l1.42,1.42l-0.71,2.49l-1.06-0.89l-2.49,1.96l-0.89-0.36l-0.53,1.24l3.91-0.17l0.89,2.13l-1.07,0.71l1.24,0.53l-1.42,0.71
			l1.07,1.07l-2.13,0.36l-4.98-1.96l-1.07,0.71l-2.49-2.13L156.52,207.31 M163.98,187.05l1.78,2.85l1.24,0.17l-1.6,1.07l-1.95,4.44
			l-3.73,1.25l-2.49-1.6l-0.36-6.58l2.85-2.49l-2.14-3.2l2.85-0.35l4.62,3.73L163.98,187.05 M157.94,179.94l-0.18,1.42l-0.89-0.35
			L157.94,179.94 M140.34,224.2l-0.89,1.42l-0.71-0.18l0.53-0.88L140.34,224.2 M147.27,201.8v2.32h-1.24l-0.89-1.78L147.27,201.8
			 M131.99,160.92l1.77-1.6l1.43-0.17l0.71-2.14l2.13-0.71l6.04,1.78l2.67-0.53l-1.42,4.8h-1.42l-0.18,1.42l1.24,0.18l2.49,4.97
			l-0.35,4.8l1.06,0.89l1.78,5.69l-1.07,1.24l1.78,7.11l-1.07,3.56l-0.35,2.13l-1.25-0.36l-1.6,0.18l0.18-3.55l-0.71-0.36l0.18-2.84
			l-2.13-3.38l-0.72-1.95l-2.66-4.8l-5.16-4.09l-0.88-0.36l0.53-0.89l1.24,0.18l2.85,1.78l1.95-5.87l-0.53,1.25l-2.85-0.54
			l-4.79-6.57L131.99,160.92 M147.98,193.98l1.25,0.54v4.8h-1.42l-0.71-2.85h0.71L147.98,193.98 M146.38,192.74l-1.06-0.89
			l1.24-1.24L146.38,192.74 M165.94,194.16l1.6,3.02l-3.91-1.06l0.88-2.31L165.94,194.16 M164.87,182.96l-1.96-1.42h-2.84l4.62-0.53
			l-0.53,0.71h1.78l0.53-0.89l0.35,1.07L164.87,182.96 M168.6,185.27v-0.71l-3.73,0.54l0.89-1.6h3.55l0.54,1.77H168.6
			 M168.78,193.98l0.36,0.89l-2.14,0.36l-0.89-1.78L168.78,193.98 M173.05,198.25l-4.45-0.18l0.89-0.71l-0.89-1.42l2.67-0.71
			l0.35-1.25l1.25,1.78L173.05,198.25 M163.8,185.1l0.71-1.6v1.77L163.8,185.1 M328.22,185.99l-0.18-1.07l0.71-2.13l2.49,3.91
			L328.22,185.99 M322.53,179.76l1.78-0.17v1.24h0.71v-1.24l1.24-0.18l0.18,6.58l0.53-0.72l1.25,0.72v3.02h-1.07l-0.71-2.31
			l-0.18,1.95l-1.06,0.53l1.42,2.67l-2.67,0.18l0.53-2.85l-1.95-8.7V179.76 M332.31,37.92l0.88,1.6l0.89-0.71l0.54,1.6l-3.38,1.96
			l-0.71-3.38L332.31,37.92 M543.29,324.27l0.89-0.35l1.42,1.6l-0.36,1.59l-1.42-0.17l-0.53-1.42V324.27 M457.26,281.79l0.36-1.24
			l2.84,1.77l-1.07,1.6l-2.13-1.24V281.79 M450.86,15.53l0.53-1.42l1.43,0.35L450.86,15.53z"/>
	</g>
	<g id="Airport_1_" class="st1">
		<path class="st2" d="M123.46,321.07l3.02-1.07l1.24-1.59l-0.89-1.6l1.07-2.14l2.13,0.18l-4.44,11.91l-1.6,1.42l0.71,0.36
			l-2.31,6.04l-0.53,11.2l-1.25,1.95l-6.4-0.17l-2.13-11.2l0.53-1.96l4.09-0.89l2.31-5.33h-1.24L123.46,321.07z"/>
	</g>
	<g id="Wood_1_" class="st1">
		<path class="st5" d="M457.26,281.79l-1.07,1.07l1.96,4.62l-0.36,0.71l-1.95-0.18l-0.89,3.38h-4.09l-0.71,3.2l4.98,1.77l0.35,7.83
			l-6.57,0.88l-0.89-1.77l-2.49,1.24l-0.36,2.31h4.45l0.35,1.07l-3.91,4.62l-0.89-0.36l-0.71-2.84h-1.78l-0.53-4.98h-4.09l0.71,4.98
			l-4.08,0.36l-0.54,4.08l-5.86,0.36v2.84l-7.29-1.77v-1.43l4.62-1.95l-1.42-3.56l13.33-3.91l-0.18-2.31l3.38-0.35l0.18-7.65
			l8.17-3.91v-2.48l3.91-1.6l-0.35-1.6l-5.16-1.25l0.36-2.13l-4.98,2.84v2.49h-2.84l-0.53,5.16l-4.98-0.54l-2.67,3.2l-4.44-0.89
			l-0.53,1.96l-7.65-1.78v2.84h2.31l0.36,9.96l-5.16,0.35l0.54,5.16h-5.16l-0.18-4.98l-4.79,0.36l-0.36-5.34l2.31-0.17l-0.18-11.56
			l-10.31-2.48v2.66h2.67l3.02,4.27l-1.6,2.49l1.07,4.79h-3.38v7.29l5.87-0.35l0.53,3.55l5.33-0.35l0.18,5.15l-6.04,0.18l-3.2,2.49
			l1.95,4.62l2.31-0.71l1.96,4.62l-4.8,2.13l2.13,4.8l-9.95,3.91l1.24,5.33l-8.35,5.34l-2.67-4.8l-8.17,3.55l-9.96-23.46l-4.26,1.95
			l-2.14-4.62l4.45-1.95l-1.96-4.8l4.8-1.78l-3.38-6.57l-0.35-6.23l-6.4,1.25l-1.95-4.62l-4.8,1.95l-1.78-4.26l4.62-2.14l-1.96-4.62
			l-5.15,1.6l-4.27-11.02l9.78-1.95l2.13,4.62l9.25-3.56l-6.4-1.95l-0.36-1.6l-6.4,0.18l-1.95-7.47l23.64-9.24l2.13,4.62l4.62-1.96
			l1.07,2.14l5.33-0.71l3.2,7.99l5.33-1.95l-2.31-4.27l3.38-3.91l4.8,1.07l-0.71,5.51l4.26-0.89l1.78,4.62l2.84-1.42l-3.37-4.44
			l0.71-1.07l9.42,0.89l0.71,2.66h2.84v-2.84h-4.62l-0.71-10.49l-2.31-2.48l-1.6,0.35l-1.42,7.29h-7.11l-3.38-3.91l0.36-1.07h2.31
			l-0.36-6.4l-3.73-4.09l1.07-1.42l3.2,1.42l2.66-3.91l-3.02-2.48l1.42-1.96l11.73,8.35l0.18,3.56l3.91,0.18l1.07,9.77l3.73,1.25
			l0.53,1.6l4.09-1.07l0.71,0.71l-3.55,9.42l1.42,1.25l4.98-2.67l0.35-4.8h-1.24l-3.02-4.98l0.53-0.71l10.49,1.43l0.35,3.19
			l4.09,0.54l0.36-3.38l6.22,1.24l7.11-3.73l1.06,1.07l-1.95,4.98l1.42,3.02h2.49l4.98,7.28l-1.43,1.43l-4.08-3.2l-1.6,1.6v3.91
			l2.66,1.95L457.26,281.79 M368.39,284.63l3.37,0.54l8.18-1.42v-1.43l-14.57-3.91L368.39,284.63 M423.84,287.12l3.2-0.53v-6.04
			l-7.46,0.88l-0.36,3.74L423.84,287.12 M432.02,286.59h-3.73l-0.54,3.73l3.38,1.07l1.6-3.2L432.02,286.59 M445.17,276.81
			l-0.17,1.96h3.73l0.35,1.6l-0.89,0.53l2.49,0.18l1.6-5.51l-0.89-5.16l-5.15,0.36l-2.67,3.02l-3.2-2.49l-2.31,0.71l0.36,5.34
			L445.17,276.81 M417.27,276.46v-1.6l-1.07,0.18l-0.35,1.77L417.27,276.46 M386.52,229.36l2.84,0.71l0.71,9.42l2.14,1.95l1.77,7.47
			l-5.15,0.35l-4.09-4.44l1.6-2.67l-2.49-6.4l-7.29-2.31l-1.6,2.14l-1.6-0.71l1.6-6.94l7.11,4.09l3.03-5.33l1.42,0.35V229.36
			 M421.53,370.31l-4.44,2.13l-4.09-9.42l4.8-1.96L421.53,370.31 M409.45,342.4l-1.25-3.55l4.27-3.38l-2.13-4.62l4.79-2.14
			l-1.95-4.44l13.51-6.22l2.13,4.8l-4.62,1.95l1.95,4.63l-4.79,1.77l4.26,9.42l-9.42,4.27l4.98,12.09l-4.45,1.6l-3.2-7.29
			l-4.44,1.95l-4.09-8.88L409.45,342.4 M388.29,214.42l1.6,0.36l0.18,8l-5.33-1.25L388.29,214.42z"/>
	</g>
	<g id="Sand_1_" class="st1">
		<path class="st6" d="M149.94,180.3l0.35-1.78l2.85,3.73l1.78,16l-0.18,1.78l-4.98,1.42l-0.35-2.84l1.6-3.56l-1.43-2.84l1.07-3.56
			l-1.78-7.11L149.94,180.3 M136.25,172.12l0.89-2.31l0.53,1.6L136.25,172.12z"/>
	</g>
	<g id="Motorway-Connector-Outline_1_" class="st1">
		<path class="st7" d="M323.06,159.68l-0.18,0.53l-0.17-1.06L323.06,159.68"/>
	</g>
	<g id="Motorway-Connector_1_" class="st1">
		<path class="st8" d="M323.06,159.68l-0.18,0.53l-0.17-1.06L323.06,159.68"/>
	</g>
	<g class="st1">
		<path id="Circle_4_" class="st9" d="M527.65,245.14L527.65,245.14c-1.29,0-2.28-0.99-2.28-2.28l0,0c0-1.29,0.99-2.28,2.28-2.28
			l0,0c1.29,0,2.28,0.99,2.28,2.28l0,0C529.93,244.15,528.94,245.14,527.65,245.14z"/>
		<path class="st9" d="M527.65,245.36c-1.42,0-2.5-1.08-2.5-2.5s1.08-2.5,2.5-2.5c1.42,0,2.5,1.08,2.5,2.5
			S529.07,245.36,527.65,245.36z M527.65,240.79c-1.16,0-2.07,0.91-2.07,2.07s0.91,2.07,2.07,2.07c1.16,0,2.07-0.91,2.07-2.07
			S528.81,240.79,527.65,240.79z"/>
	</g>
	<g id="Adornments_1_" class="st1">
		<g id="Copyright_1_">
			<g transform="rotate(0)">
				<text transform="matrix(1 0 0 1 450.1518 399.6473)" class="st9 st10 st11">© Mapcreator.io</text>
				<text transform="matrix(1 0 0 1 507.8227 399.6473)" class="st9 st10 st11"> | </text>
				<text transform="matrix(1 0 0 1 514.0466 399.6473)" class="st9 st10 st11">OSM.org</text>
			</g>
		</g>
	</g>
	<g id="Main_1_" class="st1">
		<path class="st12" d="M514.32,104.76l0.17-1.6l7.65-9.07l7.82-7.46l2.66-0.71"/>
		<path class="st12" d="M532.62,85.92l2.31-0.54l3.03,2.49l13.17,1.91"/>
		<path class="st12" d="M203.8,172.3l-2.14-1.42l-3.73-1.07l-1.24,1.42l-2.31-3.55l-1.96,0.71l-3.38-0.71l-4.26,3.02l-0.71,1.24
			l-0.36,0.54l-4.27,7.11l-0.71,0.53l-15.82,0.89l-4.08,1.24l-2.67,0.89l-0.53-1.95l-0.18,2.48l-0.53-2.84l-0.18,2.84
			 M201.66,170.88l0.18,3.37"/>
		<path class="st12" d="M331.59,134.08l9.78-18.13l6.4-20.61"/>
		<path class="st12" d="M382.25,181.54l6.4,33.24l1.24,1.42l0.54,8.71l-1.78,1.78"/>
		<path class="st12" d="M170.74,13.04l0.88-0.89l5.69,0.36l17.78-1.6l6.22-1.43l3.37,1.25l3.38,4.98l6.93,4.62l9.78-4.45l36.62,3.56
			l12.26-2.31l2.67,0.53l3.91-2.66l1.95,0.35l8-3.91l7.64-1.78l0.71,0.71l-0.71,0.54l2.14,0.17l0.35,1.07v3.56l1.25,3.2l2.31-0.36
			l2.13,1.96h5.15l1.6,1.06l5.16,4.27l0.53,2.49l2.85,1.6l5.33,6.57l4.62,1.6l0.18,1.6"/>
		<path class="st12" d="M170.74,13.04l3.55,27.55l0.18,8l-3.02,16l0.53,15.28l3.91,7.82l0.71,8.53l-1.95,1.96l0.53,4.27l4.98,13.86
			l1.6,13.33l4.26,10.31l-0.71,2.13l2.13,0.89l0.71,1.42l0.18,4.27l-1.6,4.09l2.31,0.71l0.54,1.42l-1.07,1.6l0.53,1.6l-1.06,5.51
			l-1.6,1.95l-1.6,5.16"/>
		<path class="st12" d="M393.45,180.83l-0.18-0.89l18.66-9.95l25.6-18.66l30.22-19.02l33.77-14.76l11.73-12.62l1.07-0.17l12.26,0.35
			l4.27-1.24l7.64,1.6l5.69-0.54l2.49,1.43 M391.49,180.83l1.78-0.89"/>
		<path class="st12" d="M145.67,160.21l-1.42-0.53l-1.42-0.36l-0.36-0.17l-0.53-0.18h-1.07h-5.86 M141.94,158.97l-0.53,4.62
			l-0.18,3.91l-0.18,0.18v0.35l-0.18,0.54l-0.35,0.89l-0.53,1.77l-0.18,0.54l-0.36,0.88l-0.35,0.89v0.36l-0.18,0.35l-0.36,1.07
			 M336.75,185.27l-12.27-0.53 M333.9,40.06l-2.48-0.36 M551.13,108.08l-4.46-1.72 M148.52,190.61v-0.54l-0.18-0.17v-0.36
			l-0.71-1.24l-0.36-0.71l-0.17-0.18l-0.36-0.71l-0.36-0.71l-0.17-0.18v-0.18l-0.18-0.18l-0.36-0.35l-0.35-0.36l-0.54-0.53
			l-0.17-0.18l-0.18-0.18l-0.36-0.35l0.71-0.36h0.18l0.54-0.35l0.17-0.18l-0.17-0.71l-0.18-0.71v-0.18l-0.36-1.25l-0.18-0.88
			l-0.17-1.43l-0.18-0.71l-0.36-1.06v-0.71l-0.17-0.36v-0.18l-0.18-0.53v-0.36l-0.18-0.17l-0.36-0.54l-0.35-0.53v-0.53l0.35-0.54
			l0.18-0.35v-1.42l0.18-1.25v-1.24l0.18-0.89v-1.96l0.18-0.71v-1.95l0.17-0.71v-0.54l0.18-0.18v-0.35 M158.83,182.25l0.17,0.18
			l0.36,0.53l3.02,4.09l0.53,0.71l0.36,0.54l0.18,0.17l0.18,0.36l0.17,0.18l0.18,0.35l0.18,0.36l0.18,0.35v0.18l0.35,0.36h1.96
			l1.6-0.54 M146.74,173.9h-0.18l-0.35,0.18l-0.18,0.17l-0.36,0.36l-0.17,0.36l-0.72,0.53h-0.17l-0.54,0.18l-0.35-0.18l-0.54-0.18
			l-0.35-0.18l-0.53-0.17l-0.54-0.18l-0.89-0.36l-0.53-0.18l-0.53-0.17h-0.18l-0.53-0.18l-0.54-0.71l-0.53-0.18l-0.71-0.18
			 M166.65,190.61h-0.36H166.65 M166.65,190.61l-1.96,2.49l-0.89,1.77 M164.16,194.69l0.53-1.59 M175.18,185.99l2.84-2.67l0.71-3.2
			 M145.67,182.61l0.71-0.36l0.72-0.35l0.53-0.18"/>
	</g>
	<g id="Throughway_1_" class="st1">
		<path class="st12" d="M144.07,183.5l0.36,1.06v0.18l0.18,0.18l0.89,1.6l0.35,0.71l0.36,0.53l0.17,0.18v0.36l0.18,0.17v2.14v1.24
			v0.36l-0.35,1.6v0.88l0.35,0.89l0.18,0.36l0.71,3.91l-0.18,1.95v1.6"/>
		<path class="st12" d="M409.8,382.22l34.48-6.05l13.51-3.55l16.71-9.07l57.41-38.03l3.74-1.6l3.02-0.36"/>
		<path class="st12" d="M341.55,221.36h0.71l46.39,5.33l1.24,0.35l0.36,3.2l1.07,0.18l2.31,15.82l5.33,9.95l3.2,4.8l17.06,14.93
			l18.84,3.2l17.78,5.87l68.43,28.79l14.4,9.78l2.66,1.96l4.09-0.72l1.25-2.13l4.46-2.33"/>
		<path class="st12" d="M336.75,185.27l22.04,0.89l23.46-4.62l9.24-0.71h1.96l49.23,0.71l3.56,1.6h6.58l2.48-1.42l29.69,0.53
			l29.86,6.76l2.49-2.67l3.91-1.78l10.13,2.85l8.18,0.35l11.57,2.66"/>
		<path class="st12" d="M147.27,201.8l0.36-0.71l0.18-0.71v-0.53v-2.67v-2.31l0.17-0.53v-0.53l0.18-0.89v-0.36l0.18-0.53l0.18-1.42
			l0.35-1.07l0.36-1.6v-0.35l-0.18-1.07l-0.18-0.71v-0.18l-0.17-0.89l-0.18-1.07l-0.18-1.06v-0.36l-0.71-0.53v-1.42l-0.36-1.07
			v-2.67v-1.77l-0.53-0.89l0.18-0.36l0.18-1.06l0.17-1.25v-0.35l0.54-0.71l-0.71-0.36v-0.18l-0.18-0.17v-0.18l-0.36-0.89v-0.18
			l-0.18-0.35v-0.18l-0.88-1.78l-0.18-0.18v-0.18v-0.88 M143.72,182.79l-1.07-1.96l-0.71-1.24l-0.71-1.25l-0.18-0.35l-1.42-1.6
			l-1.07-1.07l-0.89-0.89l-0.17-0.18l-0.18-0.17v-1.25l0.53-1.06l0.18-0.36v-1.78l-0.18-0.35l-0.35-0.54l-0.54-0.88l-0.17-0.36
			l-0.18-0.18l-0.36-0.53l-0.17-0.18l-0.36-0.35l-0.53-0.72l-0.18-0.17l-0.18-0.18l-0.35-0.18v-0.18l-0.18-0.17v-0.18l-0.18-0.18
			l-0.18-0.35l-0.35-0.18l-0.18-0.71l-0.18-0.18l-0.18-0.18l-0.17-0.71v-0.18l0.17-0.53l0.18-0.36v-0.17l0.18-0.18l0.18-0.36
			l0.17-0.35l0.18-0.36l0.18-0.18h0.18l0.35-0.17l0.36-0.18l0.18-0.71l0.17-0.36v-0.53l0.36-0.36h0.18h0.89l0.35-0.35l0.18-0.18
			l0.35-0.18h0.54l0.89,0.54l0.71,0.35l0.89,0.18h0.71h0.35l1.07,0.53h0.89l0.71,0.18h0.53l0.18-0.18h0.18l0.18-0.18h0.35l0.89-0.17
			l-0.18,1.95l-0.18,0.18l-0.35,0.18l-0.18,0.17l-0.18,0.18l-0.17,1.07l-0.18,1.42v0.71v0.54l-1.42-0.54l-2.49,0.18l-7.82,0.18
			 M159.72,197.18l1.59-0.17v0.71v0.17l-0.17,0.36l-0.18,0.53l-0.36,1.25l-0.35,0.89l-0.18,0.35l-0.18,0.71l-0.17,0.36v0.18
			l-0.36,0.71l-0.36,1.24l-0.17,0.53l-0.36,1.07l-0.18,0.36l-0.17,0.53l-0.18,0.35l-0.18,0.36l-0.53,1.96l-1.43-0.36l-0.88-0.71
			v-0.53l0.35-0.72l0.18-0.17v-1.96l0.18-0.18v-0.53l0.17-0.35v-0.36l0.18-0.71v-0.18l0.36-0.35v-0.18l0.35-0.71l0.18-0.18v-0.18
			l0.18-0.18l0.18-0.17v-0.18l0.17-0.18l-0.17-0.89l-0.18-0.89l-0.53-0.89l-0.72-1.42l-0.53-0.71v-0.18l-0.18-0.17v-0.18l-0.17-0.18
			v-0.36l-0.18-0.17l-0.18-1.07l-0.18-0.35v-0.18l0.18-0.36v-4.44l-0.18-0.18l-0.17-0.35v-1.25l-0.18-0.35l-0.18-0.89l-0.18-0.18
			v-1.25l-0.18-0.53l-0.17-0.18l0.17-0.53l-0.17-0.35l-0.36-0.18l-0.35-0.71l-0.18-0.18l-1.07-1.42l-0.71-0.71l-0.36-0.36
			l-0.17-0.18l-0.18-0.35l-0.53-0.71l-0.18-0.18l-0.18-0.36v-0.18l-0.35-1.95v-0.18l-0.18-0.71v-1.42l-0.18-0.18v-0.18l-0.36-1.06
			l-0.17-0.54v-0.17 M147.27,203.4l3.2,0.89l-0.53,1.43l2.84-1.96l2.14-4.27l-1.78-15.82 M155.8,209.27l1.43,0.18l0.53-1.78
			 M147.1,169.81v0.18l0.17,0.53v0.36 M143.9,163.41l-0.18,0.71l-2.31-0.53l-8.36-0.89 M137.67,156.3l-0.88,0.71"/>
	</g>
	<g id="Rail_1_" class="st1">
		<path class="st13" d="M414.99,408.65l-3.23-9.19l-2.67-7.65l-0.89-1.77l-3.55-3.03l-1.96-0.17l-84.6-70.92l-7.65-5.51l-8.53-8.54
			l-4.8-0.88l-2.66,0.88l-2.85-0.88l-3.91-5.34l-1.95-16.53l-3.38-2.66l-3.02-0.54l-4.45-3.73l-2.48-0.53l-0.89-0.53l-0.18-2.67
			l4.26-1.25l3.56-4.79l4.62,0.17l2.84-2.84l4.98,0.18l0.53-1.07l-3.19-3.38l-4.63-2.84l-3.02,0.18l-3.55-1.6h-2.85l-5.86,2.84
			l-1.96-0.71l-1.6-2.67l-2.84-0.35l-4.09-3.2l-2.49,0.18l-10.31-7.82l-5.68,2.66l-3.74,0.18l-7.28-1.78l-2.32,2.85l-4.26-1.78
			l-0.89-0.89l-1.95-9.78l-3.74-2.31l-6.4,0.54l-3.91-1.42l-1.24-2.32v-5.86l-1.42-3.73l-4.27-0.36l-3.91,4.27l-9.95,3.2l-0.89,0.53
			v1.95l-2.85,1.43l-4.44-0.89l-1.42-1.07l-0.53-2.13l-2.67-0.53l-1.42,1.06l-2.14,4.8l-4.97-0.71l-6.76-3.91l-3.2-3.56l-1.24-4.62
			l0.18-5.15l2.49-3.02l1.06-4.27l1.25-3.2l-0.18-0.89l-0.53-0.89l-0.72-1.42l-1.95-15.11l-3.38-3.2l-1.77-9.06l-2.32-4.98
			l0.36-3.02l2.13-2.67l0.18-1.95l-4.62-7.11v-0.18l-0.18-0.71l-0.18-0.35l-0.35-1.07l-0.18-0.18l-0.18-0.18l-0.18-0.17l-0.17-0.18
			 M144.43,149.37l2.31,7.11l-1.78,1.42l-3.55-0.53h-0.71l-0.89-0.18l-0.71-0.35l-0.89-0.54h-0.54l-0.35,0.18l-0.18,0.18l-0.35,0.35
			h-0.89h-0.18l-0.36,0.36v0.53l-0.17,0.36l-0.18,0.71 M267.07,253.35l1.6-1.07l3.2-13.68v-6.93l-1.24-2.49l1.6-4.09l8.17-6.4
			l9.42-3.55l0.54-6.05l3.2-6.57l2.13-0.89l8.71-0.36l7.82-8.17l7.11-2.32l3.91-2.84v-3.73l-5.15-17.42l0.17-3.91l1.25-2.67
			 M415.02,408.65l-3.26-9.19l-2.67-7.65l-0.89-1.77l-3.55-3.03l-1.07,0.36l-38.57-31.99"/>
	</g>
	<g id="NEWS-Pin1_1_" class="st1">
		<g>
			<path class="st14" d="M390,172.01c-8.3,0-15,6.6-15,14.8c0,0.1,0,0.1,0,0.2c0,2.2,0.5,4.4,1.5,6.5c0.1,0,13.5,26.5,13.5,26.5
				l13.4-26.2c1-2.1,1.5-4.4,1.4-6.8C404.9,178.81,398.3,172.01,390,172.01L390,172.01L390,172.01 M390,195.91c-5,0-9-4-9-8.9l0,0
				c0-5,4.1-9,9-9c5,0,8.9,4.1,8.9,9S395,195.91,390,195.91L390,195.91"/>
		</g>
	</g>
	<g id="Highway_1_" class="st1">
		<path class="st15" d="M123.28,344.36l-1.42,3.55v0.71l-0.36,8l-3.38,14.93l1.96,20.26L120,408.65 M121.5,355.38l-3.55,17.06
			l2.13,19.37l-0.06,16.84"/>
		<path class="st15" d="M323.95,175.14l12.8,10.13"/>
		<path class="st15" d="M336.75,185.27l-0.36,7.47l-6.4,3.91l-1.06,0.18"/>
		<path class="st15" d="M440.14,8.65l-30.69,12.39L333.9,40.06"/>
		<path class="st15" d="M408.07,408.65l3.69-9.19l1.42-3.91l0.35-0.54l0.18-3.2l-3.73-8.88l-0.18-0.71l-0.53-0.89L341.9,222.07
			l-0.35-0.71l-0.89-1.6l-0.18-0.36v-0.18l-10.84-21.33l-0.71-1.06l-0.54-1.42l-3.55-6.76l-0.36-3.91l-0.53-9.6l-0.18-1.42
			l-0.89-12.62v-0.89l-0.17-1.06v-0.89l-0.18-3.91l4.44-9.78l3.91-8.18l0.71-2.31l2.31-11.55l-1.42-6.75l0.36-2.31l5.86-9.25
			l8.18-7.11l0.89-1.77l2.67-11.38l-1.96-11.55l-3.91-12.45l-10.67-19.9l-1.24-2.49l-4.83-28.92 M408.07,408.65l3.69-9.19l1.42-3.91
			l0.35-0.54l0.18-3.2l-3.73-8.88l-0.18-0.71l-0.53-0.89l-11.02-25.95"/>
	</g>
	<g id="Motorway_1_" class="st1">
		<path class="st15" d="M147.27,203.4v1.96v0.18l-0.17,0.18l-0.18,0.17l-0.71,0.71l-0.54,0.36l-0.89,0.71l-0.17,0.18l-0.18,0.18
			v0.35l-0.18,0.36v0.71l-0.18,0.35v0.18l-0.17,0.36v0.17l-0.18,0.18v0.54l-0.18,1.77v0.54v1.77v1.78l-0.18,0.53l0.18,2.31
			l-0.18,0.36v0.18l-0.18,0.18l-0.17,0.17l-0.18,0.18l-0.36,0.18l-0.35,0.18l-0.71,0.35l-0.18,0.18l-0.18,0.18l-0.18,0.18
			l-0.17,0.17v0.36v0.71l0.17,0.89l0.18,0.18v0.88l-0.18,0.36v0.18l-0.17,0.35l-0.18,0.36v0.18l-0.18,0.53v0.18l-0.18,0.18v0.17
			l-0.17,0.18l-0.18,0.18l-0.18,0.35l-0.18,0.18h-0.18L139.1,229l-0.18,0.18h-0.18l-0.18,0.18l-1.24,0.35l-0.36,0.18l-0.35,0.18
			l-0.36,0.17l-0.17,0.18l-0.54,0.36l-0.18,0.17l-0.53,0.18l-0.53,0.36l-0.36,0.18l-1.24,0.71l-0.18,0.17l-0.18,0.18h-0.18
			l-0.17,0.18l-0.18,0.18l-0.53,0.71l-0.36,0.53l-0.53,0.71l-0.89,1.25l-1.6,2.31l-0.53,1.42l-0.72,2.84v0.18l-0.71,2.13l-0.53,1.78
			v0.36l-0.18,0.35v0.89l0.18,0.53v0.36l0.18,0.53l0.35,2.31l1.25,3.38l1.95,3.56l0.18,0.35l0.18,0.36l0.18,0.35l1.42,3.56
			l0.53,1.42l0.71,1.78l0.18,0.35v0.18l0.18,0.53v0.54l0.18,1.42l-0.18,7.11l-0.18,2.13l-0.18,2.49l-0.18,2.67v2.48l0.18,2.32
			l0.18,1.24v1.42v0.53l-0.36,5.34l-0.17,3.02l-0.18,2.31v0.53l-0.36,2.85v1.95v0.18l-0.17,0.53v0.36l-0.18,0.71l-0.71,3.2
			l-0.36,1.95l-0.18,1.07l-0.17,0.89l-0.18,0.35v0.18l-0.18,0.36l-1.95,4.8l-2.14,4.97l-0.53,1.07l-0.71,1.96v0.17l-0.18,0.18v0.71
			l-0.18,3.02l-0.35,7.47l0.18,1.06l-0.18,0.72 M132.16,286.94l-0.17-0.71l0.17-1.77l0.54-2.85l-0.18-2.31"/>
		<path class="st15" d="M323.06,159.68h-0.89l-0.71,0.18h-0.71l-1.95,0.17h-0.36l-0.89,0.18l-2.66,0.71l-4.45,1.43l-1.06,0.35
			l-0.54,0.18h-0.35l-0.54,0.18h-0.71l-0.35-0.18h-0.36l-0.18-0.18h-0.17l-0.18-0.18h-0.18l-0.18-0.17h-0.17l-0.18-0.18l-0.18-0.18
			l-0.18-0.18l-0.18-0.35l-0.17-0.18v-0.18l-0.54-0.71v-0.18l-0.17-0.18l-0.18-0.17l-0.18-0.18l-0.18-0.36h-0.17l-0.18-0.17
			l-0.18-0.18h-0.18l-0.18-0.18h-0.17l-0.18-0.18h-0.36l-0.53-0.18h-1.07l-2.48,0.18h-2.32h-1.6h-0.53l-3.02-0.71h-0.36l-6.04-0.18
			h-0.18l-0.71,0.18h-0.18l-1.06,0.36l-2.31,0.71l-4.09,1.6l-0.18,0.18h-1.06l-3.38-0.54h-1.07l-5.33,1.25l-0.53,0.17l-0.89,0.18
			l-0.71,0.18h-0.36h-0.89h-0.35l-1.43-0.36l-0.88-0.17l-3.56-0.18l-0.53,0.18h-0.36l-0.18,0.17h-0.17l-0.36,0.18l-0.18,0.18
			l-1.6,0.89l-0.17,0.18h-0.18l-0.18,0.17l-0.18,0.18l-0.18,0.18l-0.17,0.36l-1.42,1.59l-0.54,0.54l-0.18,0.18l-0.17,0.17
			l-0.18,0.18l-0.36,0.18l-0.17,0.18h-0.36l-5.15,1.77l-4.45,1.6h-0.18l-0.35,0.18h-0.18l-0.18,0.18l-0.53,0.18l-2.13,0.71
			l-2.31,0.71l-6.58,2.31h-0.18l-4.26,0.36l-4.8-0.54h-0.36l-2.13,0.89h-0.18l-0.53,0.18h-0.71l-0.54-0.18h-0.35l-0.18-0.18h-0.18
			l-0.18-0.17h-0.17l-0.18-0.18l-0.36-0.36l-0.17-0.18l-0.89-0.71h-0.18l-0.18-0.17l-0.18-0.18h-0.17l-0.18-0.18h-0.18l-0.35-0.18
			h-0.18l-0.71-0.18l-1.25-0.17l-1.06-0.18l-0.18,0.18l-0.36,0.17l-0.18,0.18h-0.17l-0.18,0.18l-0.36,0.18l-0.88,1.95l-1.25,2.67
			l-1.24,2.31l-0.36,0.53l-0.71,1.6l-0.18,0.36l-0.18,0.18v0.35l-0.17,0.53v1.07l-0.18,0.18v0.18l-0.18,0.17v0.18l-0.18,0.18
			l-0.17,0.18l-0.36,0.35l-0.18,0.18l-0.17,0.18l-0.18,0.18v0.17l-0.18,0.18v0.18l-0.36,1.42l-0.17,0.36v0.17l-0.18,0.18l-0.18,0.36
			l-0.18,0.35v0.18l-0.17,0.18v1.78l-0.18,0.17v0.36l-0.18,0.18l-0.18,0.18l-0.35,0.53l-0.54,0.53l-0.17,0.18l-0.18,0.18l-0.18,0.17
			h-0.36l-0.17,0.18h-0.71l-0.18-0.18l-0.36-0.17l-0.35-0.18l-1.6-1.07h-0.18l-0.18-0.17l-0.18-0.18l-0.17-0.36l-0.18-0.18
			l-0.53-1.24l-0.54-1.07l-0.18-0.35l-0.35-0.71l-0.18-0.18v-0.18l-0.18-0.18l-0.17-0.17l-0.18-0.18l-0.36-0.18h-0.18l-0.53-0.18
			l-1.78-0.35l-3.37-0.71l-2.14-0.36l-1.95-0.35l-1.07,0.53l-0.53,0.53l-0.71,0.71l-1.07,1.07l-1.06,0.35l-1.6,0.54l-0.89,0.35
			l-1.6,0.54h-0.36h0.36l1.06-0.54l3.03-0.89 M145.32,164.66l0.35,0.88l0.18,0.18l0.18,0.36l0.89,1.6l0.89,1.6l1.24,3.91v0.35
			l0.18,0.36v0.71l0.18,1.6v0.35l0.17,0.18l0.89,1.42l2.31,2.49l1.07,0.71l1.6,6.58l-0.18,5.16l3.02,6.93h0.89l-0.35-1.07
			l-0.18-0.35v-0.72l0.18-0.17l0.89-0.54l1.59-0.17l1.6-0.54l0.36-0.35l0.18-0.36l1.24-2.66l1.96-2.49 M202.37,173.19l-0.53,1.06
			l-0.35,0.89 M159.72,197.18h-1.07h-0.53l-0.18-0.17l-0.36-0.18l-1.78-3.38l-1.06-9.78l-0.36-2.31l-1.6-0.71 M184.42,187.76
			l-5.15-1.06 M162.91,196.47l-1.06,0.18l-0.54,0.36"/>
	</g>
	<g class="st1">
		<path id="Circle_3_" class="st9" d="M341.19,120.72L341.19,120.72c-1.29,0-2.28-0.99-2.28-2.28l0,0c0-1.29,0.99-2.28,2.28-2.28
			l0,0c1.29,0,2.28,0.99,2.28,2.28l0,0C343.47,119.73,342.48,120.72,341.19,120.72z"/>
		<path class="st9" d="M341.19,120.94c-1.42,0-2.5-1.08-2.5-2.5s1.08-2.5,2.5-2.5s2.5,1.08,2.5,2.5S342.61,120.94,341.19,120.94z
			 M341.19,116.37c-1.16,0-2.07,0.91-2.07,2.07s0.91,2.07,2.07,2.07s2.07-0.91,2.07-2.07S342.35,116.37,341.19,116.37z"/>
	</g>
	<g class="st1">
		<path id="Circle_2_" class="st9" d="M391.49,230.04L391.49,230.04c-1.29,0-2.28-0.99-2.28-2.28l0,0c0-1.29,0.99-2.28,2.28-2.28
			l0,0c1.29,0,2.28,0.99,2.28,2.28l0,0C393.77,229.05,392.78,230.04,391.49,230.04z"/>
		<path class="st9" d="M391.49,230.26c-1.42,0-2.5-1.08-2.5-2.5s1.08-2.5,2.5-2.5s2.5,1.08,2.5,2.5S392.91,230.26,391.49,230.26z
			 M391.49,225.69c-1.16,0-2.07,0.91-2.07,2.07s0.91,2.07,2.07,2.07s2.07-0.91,2.07-2.07S392.65,225.69,391.49,225.69z"/>
	</g>
</g>
<text transform="matrix(1 0 0 1 143.3749 169.5283)" class="st9 st16 st17">Iquique</text>
<text transform="matrix(1 0 0 1 162.7016 201.0437)"><tspan x="0" y="0" class="st9 st18 st19">Alto</tspan><tspan x="-14.49" y="16.2" class="st9 st18 st19">Hospicio</tspan></text>
<text transform="matrix(1 0 0 1 284.1557 199.0086)" class="st9 st18 st19">Pozo Almonte</text>
<text transform="matrix(1 0 0 1 345.8766 114.1706)" class="st9 st18 st19">Baquedano</text>
<text transform="matrix(1 0 0 1 315.4975 50.1556)" class="st9 st18 st19">Huara</text>
<text transform="matrix(1 0 0 1 396.1801 242.4212)" class="st9 st18 st19">La Tirana</text>
<text transform="matrix(1 0 0 1 493.5151 237.2928)" class="st9 st18 st19">Calera</text>
<text transform="matrix(1 0 0 1 467.7829 178.5174)"><tspan x="0" y="0" class="st9 st20 st19">REGIÓN DE</tspan><tspan x="-1.83" y="16.2" class="st9 st20 st19">TARAPACÁ</tspan></text>
<ellipse class="st21" cx="285.95" cy="207.77" rx="265.39" ry="197.76"/>
</svg>
