<?xml version="1.0" encoding="utf-8"?>
<!-- Generator: Adobe Illustrator 24.0.1, SVG Export Plug-In . SVG Version: 6.00 Build 0)  -->
<svg version="1.1" id="Map" xmlns="http://www.w3.org/2000/svg" xmlns:xlink="http://www.w3.org/1999/xlink" x="0px" y="0px"
	 viewBox="0 0 343.12 400" style="enable-background:new 0 0 343.12 400;" xml:space="preserve">
<style type="text/css">
	.st0{fill:#397493;}
</style>
<path class="st0" d="M212.34,150.31c1.8,0,3.18-0.76,4.16-2.29c0.97-1.53,1.47-3.72,1.48-6.59v-1.36c0-2.93-0.49-5.16-1.47-6.68
	c-0.98-1.52-2.38-2.28-4.21-2.28c-3.57,0-5.46,2.68-5.66,8.03l-0.02,2.17c0,2.89,0.48,5.12,1.44,6.67
	C209.02,149.53,210.45,150.31,212.34,150.31z"/>
<path class="st0" d="M88.86,112.68L88.86,112.68c-4.42,0-8-3.58-8-8V79.95c0-4.42,3.58-8,8-8h0c4.42,0,8,3.58,8,8v24.73
	C96.87,109.1,93.28,112.68,88.86,112.68z"/>
<path class="st0" d="M130.9,112.68L130.9,112.68c-4.42,0-8-3.58-8-8V79.95c0-4.42,3.58-8,8-8h0c4.42,0,8,3.58,8,8v24.73
	C138.9,109.1,135.32,112.68,130.9,112.68z"/>
<path class="st0" d="M172.69,112.68L172.69,112.68c-4.42,0-8-3.58-8-8V79.95c0-4.42,3.58-8,8-8h0c4.42,0,8,3.58,8,8v24.73
	C180.69,109.1,177.11,112.68,172.69,112.68z"/>
<path class="st0" d="M213.17,112.68L213.17,112.68c-4.42,0-8-3.58-8-8V79.95c0-4.42,3.58-8,8-8h0c4.42,0,8,3.58,8,8v24.73
	C221.17,109.1,217.59,112.68,213.17,112.68z"/>
<path class="st0" d="M253.83,112.68L253.83,112.68c-4.42,0-8-3.58-8-8V79.95c0-4.42,3.58-8,8-8h0c4.42,0,8,3.58,8,8v24.73
	C261.84,109.1,258.25,112.68,253.83,112.68z"/>
<path class="st0" d="M286.09,98.52c-2.75-5.98-8.63-7.88-9.63-8.18c-68.88-0.69-137.76-1.39-206.64-2.08
	c-2.92,0.52-7.46,1.82-10.52,5.59c-3.08,3.8-3.3,8.36-3.3,9.98c-0.05,67.09-0.11,134.18-0.16,201.26c0,0.76,0.12,2.91,1.17,5.36
	c1.51,3.5,4.79,7.13,9.5,8.48c2.16,0.62,4.1,0.61,5.53,0.46c67.09,0,134.18,0,201.26,0c1.57-0.27,4.18-0.94,6.67-2.86
	c3.52-2.71,4.78-6.34,5.72-9.05c1.37-3.96,1.42-7.29,1.43-8.1c0.12-7.31,0.22-85.52,0.16-192.69
	C287.48,105.17,287.67,101.97,286.09,98.52z M213.17,92.32c6.51,0,11.79,5.28,11.79,11.79s-5.28,11.79-11.79,11.79
	c-6.51,0-11.79-5.28-11.79-11.79S206.66,92.32,213.17,92.32z M199.38,140.11c0-2.89,0.53-5.45,1.59-7.66
	c1.06-2.21,2.58-3.92,4.56-5.12c1.98-1.2,4.24-1.8,6.76-1.8c2.5,0,4.73,0.6,6.69,1.78c1.96,1.19,3.49,2.88,4.57,5.08
	c1.09,2.2,1.64,4.72,1.65,7.56v1.36c0,2.88-0.53,5.43-1.6,7.65c-1.07,2.22-2.59,3.92-4.55,5.12c-1.97,1.2-4.21,1.79-6.72,1.79
	c-2.51,0-4.75-0.58-6.69-1.73c-1.95-1.16-3.47-2.81-4.55-4.96c-1.09-2.15-1.66-4.62-1.71-7.4V140.11z M188.17,125.93h7.1v29.53h-7.1
	V125.93z M172.69,92.32c6.51,0,11.79,5.28,11.79,11.79s-5.28,11.79-11.79,11.79c-6.51,0-11.79-5.28-11.79-11.79
	S166.18,92.32,172.69,92.32z M131.08,92.32c6.51,0,11.79,5.28,11.79,11.79s-5.28,11.79-11.79,11.79c-6.51,0-11.79-5.28-11.79-11.79
	S124.57,92.32,131.08,92.32z M99.22,297.61H73.66v-28.84h25.56V297.61z M99.22,265.09H73.66v-28.84h25.56V265.09z M99.22,232.56
	H73.66v-28.84h25.56V232.56z M99.22,199.88H73.66v-28.84h25.56V199.88z M88.86,115.89c-6.51,0-11.79-5.28-11.79-11.79
	s5.28-11.79,11.79-11.79c6.51,0,11.79,5.28,11.79,11.79S95.37,115.89,88.86,115.89z M127.62,297.61h-25.56v-28.84h25.56V297.61z
	 M127.62,265.09h-25.56v-28.84h25.56V265.09z M127.62,232.56h-25.56v-28.84h25.56V232.56z M127.62,199.88h-25.56v-28.84h25.56
	V199.88z M128.12,154.65c-1.56,0.81-3.3,1.22-5.22,1.22c-3.22,0-5.72-0.81-7.5-2.43c-1.78-1.62-2.68-3.92-2.68-6.9h7.14
	c0,1.35,0.23,2.33,0.7,2.94c0.47,0.61,1.25,0.91,2.34,0.91c0.99,0,1.75-0.37,2.28-1.11c0.53-0.74,0.8-1.77,0.8-3.09v-20.26h7.1
	v20.26c0,1.88-0.44,3.56-1.31,5.03C130.9,152.7,129.68,153.84,128.12,154.65z M156.01,297.61h-25.56v-28.84h25.56V297.61z
	 M156.01,265.09h-25.56v-28.84h25.56V265.09z M156.01,232.56h-25.56v-28.84h25.56V232.56z M156.01,199.88h-25.56v-28.84h25.56
	V199.88z M155.31,154.61c-1.74,0.84-3.81,1.26-6.19,1.26c-3.6,0-6.43-0.93-8.5-2.8c-2.07-1.87-3.12-4.42-3.16-7.67v-19.47h7.16
	v19.61c0.08,3.23,1.58,4.85,4.5,4.85c1.47,0,2.59-0.41,3.35-1.22c0.76-0.81,1.14-2.13,1.14-3.96v-19.29h7.12v19.33
	c0,2.19-0.47,4.09-1.4,5.69C158.39,152.55,157.05,153.77,155.31,154.61z M184.41,297.61h-25.56v-28.84h25.56V297.61z M184.41,265.09
	h-25.56v-28.84h25.56V265.09z M184.41,232.56h-25.56v-28.84h25.56V232.56z M184.41,199.88h-25.56v-28.84h25.56V199.88z
	 M184.68,155.46h-19.51v-29.53h7.12v24.05h12.39V155.46z M212.8,297.61h-25.56v-28.84h25.56V297.61z M212.8,265.09h-25.56v-28.84
	h25.56V265.09z M212.8,232.56h-25.56v-28.84h25.56V232.56z M212.8,199.88h-25.56v-28.84h25.56V199.88z M241.2,297.61h-25.56v-28.84
	h25.56V297.61z M241.2,265.09h-25.56v-28.84h25.56V265.09z M241.2,232.56h-25.56v-28.84h25.56V232.56z M241.2,199.88h-25.56v-28.84
	h25.56V199.88z M253.83,92.32c6.51,0,11.79,5.28,11.79,11.79s-5.28,11.79-11.79,11.79c-6.51,0-11.79-5.28-11.79-11.79
	S247.32,92.32,253.83,92.32z M269.59,297.61h-25.56v-28.84h25.56V297.61z M269.59,265.09h-25.56v-28.84h25.56V265.09z
	 M269.59,232.56h-25.56v-28.84h25.56V232.56z M269.59,199.88h-25.56v-28.84h25.56V199.88z"/>
<path class="st0" d="M125.6,217.94c-0.54,0.72-1.41,1.68-2.62,2.88l-2.26,2.61h6.89v-19.71h-25.56v7.98l7.69-2.66h0.37v17.52h-4.07
	v-12.94l-3.99,1.17v17.78h25.56v-6h-12.22v-2.65l5.63-5.92c1.39-1.58,2.08-2.83,2.08-3.76c0-0.75-0.16-1.33-0.49-1.72
	c-0.33-0.39-0.81-0.59-1.43-0.59c-0.62,0-1.12,0.26-1.5,0.79c-0.38,0.53-0.58,1.18-0.58,1.97h-4.07c0-1.08,0.27-2.07,0.81-2.98
	c0.54-0.91,1.28-1.62,2.24-2.14c0.95-0.51,2.02-0.77,3.2-0.77c1.89,0,3.35,0.44,4.37,1.31c1.02,0.87,1.53,2.13,1.53,3.76
	c0,0.69-0.13,1.36-0.39,2.02C126.54,216.54,126.14,217.22,125.6,217.94z"/>
<g>
	<path class="st0" d="M215.63,202.84v9.03l7.27-2.6h0.37v17.57h-3.48v-13.43l-4.16,1.29v17.87h25.56v-29.72H215.63z M240.34,224.15
		c-0.49,0.92-1.19,1.64-2.1,2.16c-0.9,0.51-1.93,0.77-3.07,0.77c-1.85,0-3.34-0.64-4.48-1.93c-1.14-1.29-1.71-3-1.71-5.15v-1.25
		c0-1.9,0.36-3.59,1.08-5.04c0.72-1.46,1.75-2.59,3.1-3.39c1.35-0.8,2.91-1.2,4.68-1.21h0.58v2.87h-0.34
		c-1.57,0.02-2.84,0.43-3.8,1.23c-0.96,0.8-1.54,1.9-1.73,3.31c0.93-0.95,2.11-1.42,3.53-1.42c1.53,0,2.74,0.55,3.64,1.64
		c0.9,1.09,1.35,2.53,1.35,4.32C241.08,222.19,240.83,223.22,240.34,224.15z"/>
	<path class="st0" d="M235.03,217.9c-0.56,0-1.07,0.15-1.53,0.44c-0.46,0.29-0.8,0.68-1.01,1.16v1.06c0,1.16,0.23,2.07,0.69,2.72
		c0.46,0.65,1.1,0.98,1.93,0.98c0.75,0,1.35-0.3,1.81-0.89c0.46-0.59,0.69-1.35,0.69-2.29c0-0.95-0.23-1.72-0.7-2.31
		C236.44,218.19,235.81,217.9,235.03,217.9z"/>
</g>
</svg>
