<?xml version="1.0" encoding="utf-8"?>
<!-- Generator: Adobe Illustrator 24.0.1, SVG Export Plug-In . SVG Version: 6.00 Build 0)  -->
<svg version="1.1" id="Map" xmlns="http://www.w3.org/2000/svg" xmlns:xlink="http://www.w3.org/1999/xlink" x="0px" y="0px"
	 viewBox="0 0 343.12 400" style="enable-background:new 0 0 343.12 400;" xml:space="preserve">
<style type="text/css">
	.st0{clip-path:url(#SVGID_2_);}
	.st1{fill:#9DB1BD;}
	.st2{fill:#EEEEEE;}
	.st3{fill:#E4E4E4;}
	.st4{fill:#DDEADB;}
	.st5{fill:#D6E9B9;}
	.st6{fill:#F6F6CD;}
	.st7{fill:#E1E4E1;}
	.st8{fill:#E9EAEA;stroke:#F9F9F9;stroke-width:0.5;}
	.st9{fill:none;stroke:#FFFFFF;stroke-width:2.5;stroke-linecap:round;stroke-linejoin:bevel;}
	.st10{fill:none;stroke:#F9E3B2;stroke-width:2.5;stroke-miterlimit:10;}
	.st11{fill:none;stroke:#FFFFFF;stroke-width:0.5;}
	.st12{font-family:'ArialMT';}
	.st13{font-size:8.817px;}
	.st14{fill:#789A56;}
	.st15{font-family:'Roboto-Regular';}
	.st16{fill:none;stroke:#CDBAF0;stroke-width:4;stroke-miterlimit:10;}
	.st17{fill:none;stroke:#CDBAF0;stroke-width:4;stroke-miterlimit:10;stroke-dasharray:9.3176,4.6538;}
	.st18{fill:none;stroke:#CDBAF0;stroke-width:4;stroke-miterlimit:10;stroke-dasharray:9.0985,4.5444;}
	.st19{fill:none;stroke:#CDBAF0;stroke-width:4;stroke-miterlimit:10;stroke-dasharray:9.2332,4.6117;}
	.st20{fill:none;stroke:#CDBAF0;stroke-width:4;stroke-miterlimit:10;stroke-dasharray:9.0138,4.5021;}
	.st21{fill:none;stroke:#CDBAF0;stroke-width:4;stroke-miterlimit:10;stroke-dasharray:9.34,4.665;}
	.st22{fill:none;stroke:#CDBAF0;stroke-width:4;stroke-miterlimit:10;stroke-dasharray:9.9011,4.9453;}
	.st23{fill:none;stroke:#CDBAF0;stroke-width:4;stroke-miterlimit:10;stroke-dasharray:9.6787,4.8342;}
	.st24{fill:none;stroke:#CDBAF0;stroke-width:4;stroke-miterlimit:10;stroke-dasharray:9.5259,4.7579;}
	.st25{fill:none;stroke:#CDBAF0;stroke-width:4;stroke-miterlimit:10;stroke-dasharray:8.3438,4.1675;}
	.st26{fill:none;stroke:#CDBAF0;stroke-width:4;stroke-miterlimit:10;stroke-dasharray:9.7023,4.846;}
	.st27{fill:none;stroke:#CDBAF0;stroke-width:4;stroke-miterlimit:10;stroke-dasharray:9.7495,4.8696;}
	.st28{fill:none;stroke:#397493;stroke-width:4;stroke-miterlimit:10;}
	.st29{fill:none;stroke:#397493;stroke-width:4;stroke-miterlimit:10;stroke-dasharray:9.3043,4.6472;}
	.st30{fill:none;stroke:#397493;stroke-width:4;stroke-miterlimit:10;stroke-dasharray:9.2102,4.6002;}
	.st31{fill:none;}
	.st32{font-size:9.6987px;}
	.st33{fill:#2B2C2C;}
	.st34{font-size:11.8306px;}
	.st35{fill:#397493;}
	.st36{clip-path:url(#SVGID_2_);enable-background:new    ;}
	.st37{font-size:7.0536px;}
</style>
<g>
	<defs>
		<rect id="SVGID_1_" x="25.91" y="30.2" width="291.31" height="339.6"/>
	</defs>
	<clipPath id="SVGID_2_">
		<use xlink:href="#SVGID_1_"  style="overflow:visible;"/>
	</clipPath>
	<g id="Water_3_" class="st0">
		<rect x="-127.34" y="24.4" class="st1" width="529.02" height="352.68"/>
	</g>
	<g id="Land_4_" class="st0">
		<path class="st2" d="M-127.34,377.08h529.02V24.4h-529.02V377.08z"/>
	</g>
	<g id="Education_2_" class="st0">
		<path class="st3" d="M176.44,268.79l-0.18-3.63h6.75v5.88l-8.65-0.34l-0.17-1.9H176.44z"/>
	</g>
	<g id="Wood_2_" class="st0">
		<path class="st4" d="M-127.34,377.08V24.4l0,0v251.24l7.35-3.22l5.11,104.66H-127.34 M-13.58,377.08l1.33-37.73L11.62,339
			l0.34,38.08H-13.58 M-50.98,370.99l1.73-1.73l0.17-2.25l1.56-2.07l2.07-1.9v-2.25l1.04-2.77l3.46-0.34l0.52-2.42l-1.04-3.63
			l-0.34-1.73l1.21-2.07l1.9-2.42l0.18-2.07l0.52-2.08l1.21-2.25v-2.59l-0.34-2.42l-0.52-2.6v-2.25l0.69-2.42l1.04-2.42l4.32-2.59
			l5.54-1.38l1.21,1.38l-1.03,3.46l-1.38,2.42l-3.29,2.25l-1.04,2.94l1.04,4.33l1.56,3.28l2.76,2.77l1.04,4.15l-1.21,2.94
			l-1.38,5.71v3.28l4.15,4.5l-0.18,4.15l-1.04,2.59l-2.25,2.42l-1.08,4.18h-3.58v-2.45l-0.34-2.77l1.9-1.55l0.18-1.9l-0.86-2.42
			l1.04-2.25l0.69-2.07l-0.52-2.25l-2.94-1.9l-1.22-2.77l1.22-2.77v-3.62l-1.04-3.99l-1.9,0.7l-0.86,3.46v3.98l-0.86,3.81
			l-0.69,4.32l-2.42,2.42l-1.9,2.77l-0.34,3.28l-2.59,2.08l-5.19,2.42l-1.9,1.04l-0.18-1.73L-50.98,370.99 M-63.6,295.93l3.63,1.38
			l3.28,0.7l2.42,0.52l-0.7-2.6l-1.9-0.34l-1.73-2.07l0.17-1.38l0.34-1.04l2.25,0.18l2.25-2.77l5.19-4.32l-0.18-1.22l2.25-3.11
			l1.9-1.38l-1.04-2.07l-2.59-0.86v-1.9h4.67l0.86,1.9l1.38,2.25l2.76,1.38l2.25,1.38l0.35,1.73l0.86,1.55l2.42,1.04l1.22,1.38
			l-0.18,2.25l-1.73,1.73l-4.15,0.69l-4.5-1.21l-5.7-0.52l-2.25,0.86l0.17,2.6l1.56,0.86l1.56,1.55l2.25,0.52l0.51,2.59l-3.46,2.08
			l-2.07,1.9l-1.04,2.6l0.18,2.25v1.9l-6.4-1.21l-1.9-3.46l-5.18-1.38l-1.04-3.63L-63.6,295.93z"/>
	</g>
	<g id="Cemetery_2_" class="st0">
		<path class="st5" d="M269.13,109.67l1.04-30.6l16.08,1.55l11.59,7.79l-25.6,37.01l-8.3,1.56L261,111.23L269.13,109.67
			 M311.8,377.08l2.12-17.15l25.43,4.5l-2.16,12.65H311.8z"/>
	</g>
	<g id="Sand_4_" class="st0">
		<path class="st6" d="M148.08,360.96l1.73,1.22l3.11,1.03l-3.8,0.35l-2.77,0.51L148.08,360.96 M126.46,360.79l2.77-2.77l0.52,3.8
			l1.9,3.63l-3.47-2.25l-3.8-1.03L126.46,360.79z"/>
	</g>
	<g id="Stadium" class="st0">
		<path class="st7" d="M195.11,126.8l41.33,0.18v2.59l1.21,41.33l0.18,2.42l-39.26,2.59l-1.03-2.77l-0.52-1.56l-2.42-44.09
			L195.11,126.8z"/>
	</g>
	<g id="Park_2_" class="st0">
		<path class="st4" d="M32.38,173.84l2.59,8.48l5.88-1.9l-2.59-8.47L32.38,173.84 M49.5,180.07l1.03,11.07l1.04,11.59l35.28-2.42
			l-6.22-0.51l-6.75-2.08l-8.3-3.46l-6.22-4.67l-2.77-1.9l-3.11-2.77L49.5,180.07 M57.97,186.12l3.28,2.59l8.13,4.84l5.02,2.08
			v-11.42H59.18l-1.21,0.7V186.12 M131.13,358.37l0.17,2.42l0.86,2.25l1.74,1.9l2.07,1.03l2.25,0.52l2.42-0.34l2.25-1.04l1.74-1.9
			l1.03-2.07l0.18-2.59l-0.52-2.42l-1.38-2.07l-1.9-1.56l-2.25-0.69h-2.59l-2.25,0.69l-2.07,1.56l-1.21,2.07L131.13,358.37
			 M133.9,196.15l2.42,44.45l18.33-1.22l-3.8-43.58l-0.86-0.69l-8.47,0.52L133.9,196.15 M196.5,159.31l0.34,7.27l4.84-0.18
			l-0.34-7.27L196.5,159.31 M202.2,133.89l1.56,28.36l14.35-0.86l-1.38-28.36L202.2,133.89 M203.24,345.05l9.34,0.17v-5.7h-9.34
			V345.05z"/>
	</g>
	<g id="Building" class="st0">
		<path class="st8" d="M-66.2,147.73l0.18,2.94h2.25v-3.11L-66.2,147.73 M-60.67,71.97h2.08v-1.9h-0.87v1.03h-1.21V71.97
			 M40.51,191.48l0.17,1.9l5.54-0.34l-0.18-2.6h-1.55v0.7L40.51,191.48 M46.9,157.75l0.35,6.4l3.8-0.34v0.52l0.7-0.18l-0.18-2.25
			h-1.73v-0.86l0.86-0.18l-0.18-3.28L46.9,157.75 M48.8,167.96l0.52,6.57l1.9-0.18l-0.52-6.57L48.8,167.96 M49.5,153.26l0.34,3.63
			h1.55l-0.34-3.63H49.5 M51.57,160l0.34,3.63l1.56-0.17v-0.52h1.03l0.18,1.38h1.04l-0.18-1.56l1.73-0.18l-0.17-2.76h-1.22v-1.04
			l-3.11,0.18V160H51.57 M52.61,168.65l0.34,5.7l3.11-0.34l-0.52-5.54L52.61,168.65 M53.48,199.61l2.94-0.18l-0.17-2.59h-2.77
			V199.61 M57.28,158.45l0.52,4.66l4.15-0.34l-0.34-4.67L57.28,158.45 M57.63,179.89h1.9l-0.17-2.77l-1.73,0.18V179.89
			 M111.93,221.05l0.18,4.15l10.9-0.18v-4.84h-10.38L111.93,221.05 M130.61,219.67l0.17,2.77l1.9-0.18v-2.76L130.61,219.67
			 M133.72,192.17l0.18,1.55l2.59-0.18V192L133.72,192.17 M139.77,182.32l0.18,2.76l1.9-0.17l-0.18-2.59H139.77 M139.95,224.34
			l2.25,13.66l11.24-1.9l-2.25-13.32l-2.07,0.35l-0.52-2.94l-6.22,1.04l0.51,2.59L139.95,224.34 M163.98,163.11h3.29l-0.17-3.46
			h-3.12V163.11 M184.74,324.12h5.02v-1.38h0.34v-0.87l-5.36,0.18V324.12 M187.33,195.11l0.35,3.63l5.18-0.52l-0.18-3.63
			L187.33,195.11 M190.44,331.22h2.77v-3.29h-1.9v-0.69h-0.87V331.22 M195.98,328.11h0.86l-0.17,1.21l0.69,0.18l-0.18,1.38
			l2.25,0.18l0.18-2.59h1.04v-1.21h-0.86v-1.04l-3.63-0.18L195.98,328.11 M196.32,197.18l2.08-0.17v-1.73l-2.08,0.17V197.18
			 M196.68,225.89h2.07v-1.73h-2.07V225.89 M196.68,211.37h2.07v-1.73h-2.07V211.37 M201.86,349.55l4.67-0.18v-1.38l-4.67,0.18
			V349.55 M204.28,319.46h2.59v-2.59h-2.59V319.46 M205.84,226.59l0.18,2.77l1.9-0.18l-0.18-2.77L205.84,226.59 M209.81,209.29
			l0.18,2.25h1.55v-2.25H209.81 M215.53,233.68l0.17,2.42l2.25-0.35l-0.34-2.42L215.53,233.68 M220.02,328.27h2.59v-1.03h-0.7v-1.9
			h-1.9V328.27 M223.14,216.03h1.73l-0.18-2.25h-1.55V216.03 M229.02,190.96l0.17,2.59l3.63-0.17l-0.18-2.77L229.02,190.96
			 M229.88,327.59h1.73V330h2.94l0.18-4.66h-1.73v0.34h-1.22v-0.69l-1.9-0.18V327.59 M230.91,322.75l2.08,0.17v-1.21l-1.9-0.18
			L230.91,322.75 M232.82,187.33l4.84-0.17v-1.73l-4.14,0.17v0.34h-0.7V187.33 M317.21,351.8l4.5,0.52v0.86l2.42,0.17l0.51-4.32
			l-7.09-0.69L317.21,351.8 M318.25,342.97l6.05,0.18l0.18-3.8l-6.06-0.18L318.25,342.97 M356.99,216.03h3.63v-4.66h-3.63V216.03z"
			/>
	</g>
	<g id="Footway-Outline" class="st0">
		<path class="st9" d="M-54.61,361.82l2.25-2.94l3.8-1.9l5.7-2.42l4.15-2.6l3.81-4.5l5.36-10.37l4.66-0.18 M50.53,191.13l0.52-1.38
			l1.04-0.86l1.21-0.52h1.04l2.94,0.69l4.5,3.12l3.63,2.42l6.4,2.59l4.32,1.74l5.36,1.21 M71.98,183.18v12.62l-0.18,1.38
			 M54.69,196.84l-0.34-8.47 M141.51,195.63l3.28,21.62l0.7,3.46 M-31.62,195.8l0.35-51.54 M279.85,129.22l-9.68,1.9l-11.76,12.11
			l-14.01,14l-5.02,5.02 M-20.2,182.32h10.72l2.25,39.25l0.86,1.21 M-52.54,281.58l-0.86,3.63l-4.84,2.94l-3.81,2.42l-1.21,2.59
			l1.38,5.37l2.77,12.45l3.28,17.29l1.04,9.17 M-29.88,44.48v19.19l0.17,10.03v4.66 M-40.61,132.33l-7.95-32.86 M354.91,93.94
			l-3.63,5.02l-17.64,15.39l-3.63,3.11l-5.18,2.94l-54.65,10.72l-11.76,12.11l-14.01,14l-5.02,5.02"/>
	</g>
	<g id="Service-Outline" class="st0">
		<path id="Acceso-camping-El-Carmelo" class="st9" d="M103.97,363.04l0.18,3.63l0.61,10.4"/>
		<path class="st9" d="M-6.88,147.9l2.59,3.29l5.71,8.65l5.7,2.25l14.18,14l3.81,4.5l1.9,2.08l6.39,7.27l6.58,13.66l-8.99,6.06
			l-10.2,2.42l-8.99,0.34l-6.06-0.86l-3.46-2.25l-3.81-7.43l-1.55-11.24l2.25-3.46l5.02-2.08l20.92-4.5 M33.41,189.93l12.8-0.52
			h3.29 M46.21,166.4l-0.18-1.73l-0.86-6.75l-0.34-2.07 M194.77,232.99l3.98,0.17l15.74-0.34 M6.61,89.96l14.7-0.86 M322.63,377.08
			l2.02-14.56 M208.95,232.99l5.54-0.18 M394.69,185.08l0.18,29.06"/>
		<path id="Acceso-Cementerio-La-Tirana" class="st9" d="M301.85,377.08l-9.2-2.27l-1.9-0.18"/>
		<path id="Acceso-a-Capilla-La-Tirana" class="st9" d="M314.1,352.14l-8.13-1.04l-2.77,0.18l-3.11,1.38l-3.11,1.55l-3.29-0.34
			l-4.32-0.52"/>
	</g>
	<g id="Local-Outline" class="st0">
		<path id="Las-Cuyacas" class="st9" d="M240.77,190.96h3.63l11.59-0.34l21.62-1.38l2.25-0.34 M240.77,190.96h3.63l11.59-0.34
			l21.62-1.38l6.58-0.86"/>
		<path id="Santa-Rosa" class="st9" d="M279.85,351.45l-35.45-8.48l-2.77-0.69l-4.32-7.27 M290.68,377.08l0.07-2.45l0.18-6.92
			l-2.08-6.22l-1.9-6.05l-1.55-2.6l-40.99-9.86l-2.77-0.69l-4.32-7.27 M289.37,353.35l-3.98-0.52"/>
		<path id="Pedro-Guadama" class="st9" d="M180.76,364.42l0.52,12.65"/>
		<path id="Vasco-de-Almeyda" class="st9" d="M238.52,125.41l0.86,36.84l0.7,12.11l0.17,3.11l0.52,13.49l1.04,26.12l0.34,4.84
			l0.7,18.85l0.34,6.92l1.04,27.15l0.17,7.1l0.18,6.91l-0.18,1.21l-1.55,11.59l-0.52,12.62l-0.34,2.08l-3.29,16.08l-1.38,2.59
			l-4.5,6.92l-4.84,7.43 M238.52,125.41l0.86,36.84l0.7,12.11l0.17,3.11l0.52,13.49l1.04,26.12l0.34,4.84l0.7,18.85l0.34,6.92
			l1.04,27.15l0.17,7.1l0.18,6.91l-0.18,1.21l-1.55,11.59l-0.52,12.62l-0.34,2.08l-3.29,16.08l-1.38,2.59l-4.5,6.92l-4.84,7.43"/>
		<path id="Pedro-de-Guagama" class="st9" d="M188.55,39.64l0.86,41.68l0.34,16.43l0.34,11.59l0.18,2.42l0.34,11.41v1.73l0.86,31.65
			l0.86,20.92l1.04,13.32 M194.94,190.79l0.18,26.98v6.91l-0.34,8.31l-0.34,7.95l-4.15,34.25l-1.04,9.5l-5.88,30.27l-2.59,15.91
			l0.34,16.78"/>
		<path id="Los-Sambos" class="st9" d="M242.85,301.65h1.55l25.77-1.22 M242.85,301.65h1.55l25.77-1.22"/>
		<path id="Los-Tamarugos" class="st9" d="M21.14,83.73l15.91-0.17h7.61h14.35l28.71-1.04l30.79,0.18l10.55-0.18"/>
		<path id="Circunvalaci-n-Norte" class="st9" d="M58.49,64.54l28.88,0.18l41.51,1.03"/>
		<path id="_x32_1-de-Mayo_2_" class="st9" d="M59.7,112.1l28.71-1.04l41.5-1.38"/>
		<path id="Marco-Castro" class="st9" d="M21.14,98.61L45,98.26"/>
		<path id="Pasaje-Santa-Elena" class="st9" d="M25.63,43.78l0.27-19.39"/>
		<path id="M-Gonz-lez" class="st9" d="M90.32,260.66l-33.04,0.86"/>
		<path id="Santa-Marta" class="st9" d="M83.22,349.03l-0.17-16.43l-0.34-15.57l-0.52-15.39l-0.18-7.1 M96.88,301.13l-0.34-7.44
			l-0.7-16.08"/>
		<path id="Calle-Violeta" class="st9" d="M-42.5,142.88l0.69,30.45l-7.27,0.17"/>
		<path id="Iquique" class="st9" d="M96.54,293.69l-14.53,0.86l-19.71,0.86"/>
		<path id="Oscar-Bonilla" class="st9" d="M82.19,301.65l14.7-0.52l16.78-0.7"/>
		<path id="Pasaje-10-Oriente" class="st9" d="M62.12,149.28l15.39-1.38l12.97-0.86"/>
		<path id="Calle-Pablo-Neruda" class="st9" d="M-109.95,192.17l-3.11-57.94"/>
		<path id="Pasaje-San-Mateo" class="st9" d="M-120.68,191.82l-2.59-58.8"/>
		<path id="Tarapac-" class="st9" d="M104.67,125.93l1.9,35.97l1.22,20.24l0.69,15.22l1.56,20.76l1.03,25.24l1.22,33.73l1.38,23.35
			l0.17,15.91l-0.34,15.39v16.77"/>
		<path id="Pasaje-Juan-Pablo-II" class="st9" d="M-86.78,75.78l-1.73,20.58l4.67,39.95 M-62.57,140.46l3.11,54.47"/>
		<path id="Huatacondo" class="st9" d="M-127.34,93.55l6.49,0.56h16.26l3.63,0.18l8.13,1.55l4.32,0.52l9.17,0.52l6.22,0.18
			l15.04,1.38l9.51,1.04l22.31,0.34l11.24-0.17l36.15-1.04"/>
		<path id="Pasaje-San-Pedro" class="st9" d="M9.38,74.05L8.51,44.13L8.62,24.4"/>
		<path id="Santa-Teresa-de-Los-Andes" class="st9" d="M58.32,24.4V44.3l0.18,20.24l0.51,19.03l0.18,17.81l0.52,10.72l0.17,4.5
			l0.52,11.59l1.73,21.1l1.22,15.56l1.21,18.51"/>
		<path id="Libertad" class="st9" d="M90.84,277.6l-0.52-16.95v-16.43l-0.35-25.77l-1.21-19.54l-0.34-16.09l-0.52-19.71
			 M87.37,64.72l0.34,17.81l0.35,18.51l0.34,10.02l0.69,15.57l1.38,20.4l0.7,15.91"/>
		<path id="Arc-ngeles" class="st9" d="M-100.78,135.62l-3.81-41.51l-4.5-9.51l-0.52-4.66l0.52-4.67l-0.18-20.06l0.35-4.15l0.86-6.4
			"/>
		<path id="Mami-a" class="st9" d="M20.79,73.88L9.38,74.05l-19.89-0.18h-14.35l-4.84-0.17l-20.24-0.52 M-109.09,75.26l19.71,0.34
			l2.59,0.18l15.39,0.69l2.25,0.18l12.45,0.34l6.75,0.52l20.24,0.86l13.49,0.34h5.7"/>
		<path id="Pasaje-Huasqui-a" class="st9" d="M-69.14,135.45l-3.98-38.39l1.73-20.59"/>
		<path id="Padre-Hurtado" class="st9" d="M56.87,377.08l-0.28-24.76L68,349.89"/>
		<path id="Vicente-Hinojoza" class="st9" d="M71.11,357.85l0.18,8.65l0.43,10.58"/>
		<path id="Arturo-Prat-Chac-n" class="st9" d="M242.15,221.91h2.25l12.63-0.17l22.83-0.52 M133.9,217.59l-23.87,0.52l-20.07,0.34
			l-37.53,0.69 M154.3,218.46l40.81-0.69l46.69-0.7 M242.15,221.91h2.25l12.63-0.17l31.48-0.7 M208.95,217.59l32.86-0.52"/>
		<path id="Eleuterio-Ram-rez" class="st9" d="M155.86,241.98l38.57-1.04l6.05,1.55l16.43-0.51l25.94-1.22h1.55l12.45-0.34
			l11.94-0.52l11.07,0.18 M56.25,253.39l3.62-8.3l30.45-0.86l20.75-0.87l23.7-1.38h1.9l19.03-0.87 M208.95,242.15l7.96-0.17
			l25.94-1.22h1.55l12.45-0.34l11.94-0.52l11.93,0.18h7.09"/>
		<path id="Los-Algarrobos_2_" class="st9" d="M60.05,279.33l30.79-1.73h5.01l16.43-0.52l23.17-0.34l21.96-0.52l32.86-1.03
			l53.96-0.35h0.17l13.32-0.17l12.11-0.35l10.02-0.17 M208.95,275.01l35.29-0.18h0.17l13.32-0.17l12.11-0.35l13.49-0.34"/>
		<path class="st9" d="M-127.34,192.01l6.67-0.19l10.72,0.35l6.92,0.34l-0.52,47.04l0.34,29.92v44.28l0.34,45.82l-0.17,17.5
			 M-52.54,281.58l-1.38-11.93l-0.34-8.65l0.17-33.2l0.35-32.51l-5.71-0.35l-20.23-1.55l-23.35-0.86 M-54.46,377.08l-0.15-15.25
			l-0.18-24.38 M275.19,171.94l4.66,1.03 M-23.07,24.4l0.28,19.91h12.11l19.19-0.18l11.93-0.17 M-30.57,268.44l-23.35,1.21
			l-49.29-0.18l-9.17,2.08l-4.14,0.69l-10.82-0.68 M-54.61,361.82l-48.26-2.25l-21.62-1.55 M-54.27,261l33.73-0.69l14.52,0.17v10.9
			l-8.82,0.18 M145.06,377.08l-0.27-6.43 M-56.69,76.99l-1.38,21.44l5.02,35.45 M44.83,149.62l0.52-32.85L45,98.26l-0.35-14.7
			l0.18-39.61 M-109.09,75.26l-14.18-0.34h-3.81l-0.26-0.01 M-127.34,43.56l0.1,0.05l1.03,0.51l1.56,0.52l1.38,0.35l1.55,0.17
			l7.79-0.52h5.88l20.4-0.69l19.19-0.18l8.83-0.34l9.86,0.34l-0.18,29.4v4.32 M131.99,347.99l-18.51,0.52l-30.27,0.52L68,349.89
			 M-53.75,195.29l22.13,0.51l5.71,0.18l6.05-4.67l-0.34-8.98l0.18-36.49 M181.1,347.65L155,348.17h-9.35 M-49.77,43.78l19.89,0.7
			l7.09-0.18 M58.66,270.34l-27.84,0.52l-36.84,0.52 M-27.29,293.69L7.47,293l20.58-0.34h4.33l20.24-0.35l9.34-0.17 M-72.08,239.38
			l-31.48,0.18l-23.79,0.42 M-79.69,193.38l-2.25-55.34 M56.59,352.32l-27.5,0.51l-20.76,0.35 M-21.06,227.11l0.52,33.2
			 M66.1,335.72l-12.28-0.18l-25.08,0.52L8.17,336.4l-33.04,0.52 M-6.36,222.78l0.34,13.32v24.38 M-26.6,315.3l34.42-0.52
			l20.58-0.34l25.24-0.52l10.55-0.17 M30.82,270.86l1.56,21.8 M-127.24,43.62l-0.1,0.83 M-127.34,66.94l0.26,7.98 M36.53,43.78
			l0.51,39.78 M-68.45,43.78l-0.51,12.11l-0.18,13.83v6.92 M-10.68,44.3l0.17,29.57v4.84 M-89.38,75.61l0.86-19.54l0.86-12.11
			 M-16.22,78.72l1.21,20.93 M75.96,127.49l1.55,20.4 M45.35,116.77l14.52-0.18 M-64.27,24.4l4.65,19.04 M41.89,43.96l0.16-19.56
			 M169.35,81.49l20.06-0.17 M169.17,109.33h20.92 M228.14,125.24l-1.21-14.01l-36.66,0.52 M275.19,171.94l9.68,2.25l12.28,3.63
			l17.47,7.95l3.98,2.07l6.4-1.55l11.24-0.86l15.56-1.22h2.25l40.64,0.86l6.99,0.08 M318.6,187.85l35.45,17.99 M355.09,35.49
			l3.11-0.86l3.11-0.52l5.88-0.34l2.94,0.17l16.26,0.34l8.65,0.35h0.86l0.69,0.34l0.7,0.52l0.69,0.69l0.52,0.86l0.34,1.73v11.42
			v3.98 M355.26,50.19h31.13h12.45 M284.7,265.5l5.36-0.17l32.69,4.14l35.28,3.29l26.12,1.55h4.66l12.87,0.06 M356.12,250.98
			l31.65-1.74l3.46-0.17l10.45-0.57 M228.14,125.24l-1.21-14.01l-17.99,0.18 M355.43,225.38l33.73-0.7 M388.81,274.31l-1.03-25.08
			 M354.91,160.87l30.09-0.34 M386.39,50.19V34.27"/>
		<path id="Obispado" class="st9" d="M154.12,315.3l0.35,16.08l0.52,16.78 M159.14,315.3l-1.73-39.09l-1.55-34.24l-0.18-0.87
			 M152.57,40.85l0.34,58.46l0.34,25.42l-0.34,34.07l0.34,21.1l0.7,13.83 M152.75,193.73l0.17,1.38l1.38,23.35l1.38,22.65"/>
		<path id="Bernando-O-Higgins" class="st9" d="M54.34,183.69l10.2-0.34l7.44-0.17l16.43-0.35l19.37-0.69l24.04-1.04l21.44-1.21
			l39.09-2.42l47.74-3.11"/>
		<path id="Primera-Sur" class="st9" d="M64.54,317.39l18.16-0.35l31.12-0.69l22.66-0.7l17.63-0.34h5.02l24.21-0.34l2.77,0.52
			l56.21-1.22h2.07l18.16-0.17 M208.95,314.96l33.38-0.7h2.07l18.16-0.17"/>
		<path id="Nueve-Oriente" class="st9" d="M40.51,166.92l5.7-0.52l17.12-1.56l24.56-1.73l3.29-0.17l15.39-1.04l24.73-1.9l21.62-1.21
			l17.3-1.21l21.27-1.04"/>
		<path id="Los-ngeles" class="st9" d="M137.01,331.74h-23.52l-30.44,0.86 M154.48,331.39l26.28-0.52l7.09,2.25l50.85-0.69"/>
		<path id="Carlos-Ib-ez-del-Campo" class="st9" d="M132.51,195.11h1.55l15.91-1.21l2.77-0.18h1.21l39.43-2.94h1.55l29.92-1.9
			l10.02,0.52l5.88,1.55 M277.95,176.6l-33.55,0.7l-4.15,0.17 M208.95,189.93l15.91-1.04l10.02,0.52l5.88,1.55 M277.95,176.6
			l-33.55,0.7l-4.15,0.17"/>
		<path id="Marcos-Castro" class="st9" d="M231.95,96.36l-42.2,1.38l-20.4,0.86l-16.43,0.7l-23.35,0.51l-41.5,1.22l-28.88,0.34"/>
		<path id="Lincoy-n" class="st9" d="M60.39,128.18l15.57-0.69l13.14-0.86l15.57-0.7l26.11-0.69l22.48-0.52l16.09,0.17h21.27
			l37.53,0.35l10.38,0.17"/>
		<path id="_x31_6-de-Julio" class="st9" d="M128.02,42.23l-0.19-17.84"/>
		<path id="Centenario" class="st9" d="M234.54,24.4v11.44l-7.78,50.15 M234.54,24.4v11.44l-7.78,50.15"/>
		<path id="Victoria" class="st9" d="M170.22,157.59l-0.86-32.69l-0.18-15.56l0.18-10.72V81.49l0.34-41.16 M168.31,40.33l1.58-15.93
			"/>
		<path id="Prolongaci-n-Pasaje-Victoria" class="st9" d="M401.68,64.42l-3.02-0.05l-43.57-0.51"/>
		<path id="Prolongaci-n-Marcos-Castro" class="st9" d="M355.09,79.93h43.75l2.84,0.01"/>
		<path id="Prolongaci-n-21-de-Mayo" class="st9" d="M354.91,96.88l44.27-0.18l2.5-0.02"/>
		<path id="Prolongaci-n-Lincoy-n" class="st9" d="M401.68,111.75l-2.5,0.01l-44.27-0.52l-21.28,3.11"/>
		<path id="Calle-1" class="st9" d="M399.36,119.71l-0.18-7.95V96.7l-0.34-16.77l-0.18-15.57l0.18-10.2"/>
		<path id="Los-Chinos" class="st9" d="M287.98,202.2l-1.73,0.18l-5.36,2.59l-24.56,0.86"/>
		<path id="Los-Chunchos" class="st9" d="M244.58,288.84l32-0.86"/>
		<path id="Avenida-Augusto-Smith" class="st9" d="M351.79,24.4l1.39,3.83l1.9,7.27l0.17,6.22v8.47l-0.17,13.67v16.08l-0.18,14v2.94
			v14.35l-0.52,46.17l0.52,3.46l-0.86,23.35v21.62l1.38,19.55v16.77l0.69,8.83l1.9,21.79l1.56,19.03l3.98,46.86l3.39,38.42"/>
		<path id="Los-Collaguayos" class="st9" d="M257.03,221.75l-0.69-15.91l-0.35-15.22 M257.72,274.67l-0.87-34.25"/>
		<path id="Los-Lichiguayos" class="st9" d="M269.83,274.31l-1.04-34.41"/>
	</g>
	<g id="Minor-Outline_2_" class="st0">
		<path id="Carlos-Ib-ez-del-Campo-1" class="st9" d="M45.87,173.49l4.84,5.54l3.63,4.66l2.42,2.6l3.81,3.46l6.75,4.15l4.67,1.9
			l2.25,1.04l8.98,1.9l5.54,0.18l19.71-1.56l22.48-2.07l1.56-0.18 M49.5,189.41l2.07-1.73l2.42-1.04l2.76-0.34"/>
		<path id="_x31_6-de-Julio-1" class="st9" d="M134.76,241.98l-0.86-24.39l-1.22-21.28l-0.17-1.21l-0.7-14.01 M142.71,351.1
			l-2.08-2.07l-1.21-2.25l-1.73-3.46l-1.21,3.98l-1.73,3.63 M131.82,181.1L131.3,160l-0.52-34.76l-0.86-15.57l-0.34-9.86
			l-0.52-17.29l-0.17-16.78l-0.86-23.51 M137.7,343.33l-0.69-11.59l-0.52-16.09l-1.04-38.91l-0.69-32.86v-1.9"/>
		<path id="Avenida-Circunvalaci-n_2_" class="st9" d="M-4.29,125.24l-7.95,2.07l-13.49,2.77l-14.87,2.25l-5.18,0.69l-7.27,0.86
			l-16.08,1.56l-14.7,0.86l-0.86,0.18l-2.25,0.86 M144.44,365.11l3.29-0.69l3.8-0.35h5.88l-5.54-1.73l-2.07-1.55l-0.86-0.52
			l-1.73-2.59"/>
		<path id="Avenida-Diputado-Ram-n-P-rez-Opazo" class="st9" d="M157.41,364.07l23.35,0.35l16.95-1.22l10.72-3.63l12.11-5.87
			l7.44-4.33l5.54-2.94l8.12-4.15l2.77-2.42l3.29-2.76l7.79-10.73l7.09-12.27l7.61-13.67l6.4-12.45l3.28-6.4 M279.85,180.24
			l-1.9-3.63l-2.76-4.66l-0.35-0.7l-16.43-28.01l-14.01-23.52l-4.66-7.79l-7.79-15.56l-5.18-10.38l-11.94-23.52l-6.75-11.24
			l-5.88-6.58l-5.36-2.94l-1.73-0.34l-6.57-1.73l-18.85,0.69h-1.38l-15.74,0.52l-24.56,1.38l-24.91,2.25l-27.5,0.17l-4.66-0.17
			 M208.95,359.41l11.59-5.7l7.44-4.33l5.54-2.94l8.12-4.15l2.77-2.42l3.29-2.76l7.79-10.73l7.09-12.27l7.61-13.67l6.4-12.45
			l4.5-8.65l2.25-5.36l1.38-8.47l1.74-14.01l1.38-11.41l0.52-15.39l0.18-3.63l-0.52-18.85l-0.69-6.4l-3.11-7.43l-6.23-11.76
			l-2.76-4.66l-0.35-0.7l-16.43-28.01l-14.01-23.52l-4.66-7.79l-7.79-15.56l-5.18-10.38l-11.94-23.52l-5.88-9.86"/>
		<path id="Circunvalaci-n-Oriente" class="st9" d="M227.91,24.4l-10.49,7.63l-16.08,7.62l-6.22,1.73 M227.91,24.4l-10.49,7.63
			l-8.47,3.99"/>
	</g>
	<g id="Main-Outline_2_" class="st0">
		<path id="Avenida-Ram-n-P-rez-Opazo_1_" class="st10" d="M70.94,44.48L58.32,44.3l-13.49-0.34h-2.94l-5.36-0.18h-10.9l-5.19,0.18"
			/>
		<path id="Ruta-A-645" class="st10" d="M20.44,43.96l0.35,29.92l0.34,9.86l0.17,5.36l0.18,5.19l-0.34,4.32l-1.56,2.59l-4.14,5.54
			l-10.9,12.28l-8.83,6.22l-26.97,19.02 M70.94,44.48l1.38-4.84l1.9-7.96l-0.41-7.28"/>
	</g>
	<g id="Throughway-Outline_2_" class="st0">
		<path id="Avenida-Ram-n-P-rez-Opazo-1" class="st10" d="M-86.95,137.35l5.02,0.69l19.36,2.42l20.07,2.42l11.24,1.38l11.24,1.56
			l13.14,2.07l15.05,1.9l12.27,3.81l5.71,2.76l6.57,4.33l5.54,4.14l2.25,2.08l5.36,6.57l1.73,3.81l0.86,3.63l1.04,8.47l0.34,5.53
			l2.59,24.21l1.73,16.6l2.08,17.64l1.03,8.13l1.38,8.82l1.38,8.99l0.7,5.19l1.21,7.61l0.34,3.28l1.9,18.34l0.34,3.63l1.56,18.33
			l1.9,14.18l1.9,5.18l1.21,2.77l1.9,1.73l1.38,1.04l2.94,1.73l3.8,1.04l9.69,0.18l13.14-0.52l10.9-0.34l7.27-0.35"/>
		<path id="Avenida-Circunvalaci-n-1" class="st10" d="M130.95,354.73l-1.55,2.42l-2.94,2.77l-4.32,2.42l1.9,0.52l3.98,1.04
			l4.14,2.77l3.81,3.8"/>
		<path id="Ruta-A-665" class="st10" d="M132.34,364.77l3.63,5.7l1.73,3.29l0.86,3.32 M139.54,377.08l0.93-4.18l0.52-3.29l2.07-3.63
			 M-127.34,132.48l4.07,0.54l10.2,1.22l12.28,1.38l13.83,1.73 M144.44,365.11l1.73-2.07l0.86-2.59l0.18-2.77l-0.86-2.6l-1.38-2.25
			l-2.25-1.73l-2.59-0.86h-2.77l-2.59,0.7l-2.25,1.55l-1.56,2.25l-0.86,2.59l-0.18,2.6l0.86,2.59l1.56,2.25l2.07,1.55l2.42,1.04
			h2.77l2.59-0.69l0.86-0.7L144.44,365.11"/>
	</g>
	<g id="Cemetery-1" class="st0">
		<text transform="matrix(1 0 0 1 249.415 95.499)" class="st11 st12 st13">CEMENTERIO </text>
		<text transform="matrix(1 0 0 1 250.2226 106.079)" class="st11 st12 st13">DE LA TIRANA</text>
		<text transform="matrix(1 0 0 1 249.415 95.499)" class="st14 st15 st13">CEMENTERIO </text>
		<text transform="matrix(1 0 0 1 250.2226 106.079)" class="st14 st15 st13">DE LA TIRANA</text>
	</g>
	<g class="st0">
		<g>
			<path class="st16" d="M188.64,44.33c-0.03-1.56-0.07-3.13-0.1-4.69c1.25,0.18,2.82,0.49,4.58,1.03"/>
			<path class="st17" d="M197.44,42.4c1.84,0.92,4.41,2.43,6.98,4.72c5.32,4.76,7.69,10.29,8.52,12.19
				c4.66,10.67,11.52,20.3,16.01,31.04c6.7,16,8.9,15.71,34.29,61.12c5.62,10.04,14.02,25.28,24.05,44.33
				c0.67,6.91,1.21,15.45,1.21,25.25c0,1.85-0.02,9.25-0.7,19.03c-0.57,8.24-1.21,17.1-3.6,28.39c-0.68,3.23-1.34,5.89-1.82,7.7
				c-4.84,9.97-9.06,18.21-12.22,24.25c-0.81,1.55-5.63,10.72-12.63,22.36c-5.84,9.71-8.6,13.48-13.14,17.07
				c-1.61,1.27-4.7,3.04-10.89,6.58c-7.98,4.57-11.98,6.85-16.82,9.16c-4.72,2.25-11.38,5.09-19.79,7.67
				c-10.64,0.6-21.66,0.92-33.04,0.9c-3.35,0-6.67-0.04-9.96-0.1c-3.32-1.53-4.85-3.39-5.64-4.82c-0.8-1.45-0.74-2.28-1.91-4.18
				c-1.27-2.06-3.28-3.69-3.63-3.98c-1.33-1.07-2.98-3.11-4.31-7.35c-0.78-13.51-1.53-27.06-2.25-40.66
				c-2.05-38.6-3.82-76.91-5.33-114.92"/>
			<path class="st16" d="M130.73,185.85c-0.06-1.56-0.12-3.13-0.18-4.69c-1.56,0.06-3.13,0.12-4.69,0.19"/>
			<path class="st18" d="M121.31,181.52c-21.96,0.87-43.93,1.75-65.89,2.62"/>
			<path class="st16" d="M53.15,184.23c-1.56,0.06-3.13,0.12-4.69,0.19c0.16,1.34,0.35,2.9,0.56,4.66"/>
			<path class="st19" d="M49.57,193.65c0.4,3.36,0.86,7.2,1.36,11.4c4.84,40.85,4.93,44.12,7.45,63.45
				c3.64,27.98,4.04,25.89,5.05,37.82c0.63,7.36,1.43,19.35,3.65,36.71c0.37,2.89,0.7,5.27,0.92,6.86c0.84,2.2,1.68,4.4,2.53,6.61
				c0.88,1.29,2.5,3.28,5.13,4.85c4.6,2.73,9.19,2.34,10.77,2.13c11.55-0.36,23.11-0.72,34.66-1.09c1.32-0.23,4.55-0.99,7.47-3.71
				c1.64-1.52,1.76-3.15,3.95-6.2c1.33-1.84,2.6-3.2,3.43-4.03c0.46-1.31,0.93-2.62,1.39-3.93c-1.76-52.14-3.52-104.28-5.29-156.43"
				/>
			<path class="st16" d="M131.97,185.79c-0.05-1.56-0.11-3.13-0.16-4.69c1.56-0.07,3.13-0.14,4.69-0.21"/>
			<path class="st20" d="M141,180.7c17.14-0.76,34.28-1.51,51.42-2.27c13.58-1.16,27.16-2.32,40.74-3.48"/>
			<path class="st16" d="M235.4,174.76c1.56-0.13,3.12-0.27,4.68-0.4c0.04,1.59,0.08,3.15,0.12,4.69"/>
			<path class="st21" d="M240.34,183.71c0.57,18.46,1.38,33.69,2.05,44.81c1.25,20.51,2.48,33.67,2,53.41
				c-0.24,9.91-0.84,18.52-1.47,25.35"/>
			<path class="st16" d="M242.71,309.6c-0.17,1.69-0.33,3.24-0.49,4.67c-1.56,0.02-3.13,0.04-4.69,0.06"/>
			<path class="st22" d="M232.58,314.38c-14.02,0.17-28.04,0.33-42.06,0.5"/>
			<path class="st16" d="M188.05,314.91c-1.56,0.02-3.13,0.04-4.69,0.06c0.32-1.52,0.64-3.05,0.96-4.6"/>
			<path class="st23" d="M185.25,305.62c1.88-9.67,3.58-19.82,5.02-30.44c2.95-21.7,4.38-41.96,4.82-60.42
				c-1.06-17.04-2.11-34.08-3.17-51.12"/>
			<path class="st16" d="M191.77,161.23c-0.1-1.56-0.19-3.12-0.29-4.69c-1.56,0.08-3.12,0.16-4.69,0.24"/>
			<path class="st24" d="M182.04,157.04c-16.77,0.89-33.68,1.88-50.75,2.97c-20.53,1.31-40.84,2.75-60.91,4.29"/>
			<path class="st16" d="M68.02,164.48c-1.56,0.12-3.12,0.24-4.68,0.37c-0.11-1.56-0.22-3.12-0.32-4.68"/>
			<path class="st25" d="M62.73,156c-1.01-14.63-2.02-29.27-3.02-43.9c-0.06-1.32-0.13-2.63-0.19-3.95"/>
			<path class="st16" d="M59.41,106.07c-0.08-1.56-0.15-3.13-0.23-4.69c1.56-0.04,3.13-0.09,4.69-0.13"/>
			<path class="st26" d="M68.72,101.11c37.97-1.06,75.95-2.11,113.92-3.17"/>
			<path class="st16" d="M185.06,97.88c1.56-0.04,3.13-0.09,4.69-0.13c-0.03-1.56-0.07-3.13-0.1-4.69"/>
			<path class="st27" d="M189.56,88.18c-0.29-13.8-0.57-27.61-0.86-41.41"/>
		</g>
	</g>
	<g class="st0">
		<g>
			<line class="st28" x1="75.96" y1="183.1" x2="80.65" y2="182.93"/>
			<line class="st29" x1="85.3" y1="182.76" x2="124.8" y2="181.35"/>
			<polyline class="st28" points="127.13,181.27 131.82,181.1 131.79,185.8 			"/>
			<line class="st30" x1="131.76" y1="190.4" x2="131.69" y2="201.91"/>
			<line class="st28" x1="131.67" y1="204.21" x2="131.65" y2="208.9"/>
		</g>
	</g>
	<g class="st0">
		<path id="Circle_7_" class="st28" d="M131.89,211.21L131.89,211.21c-1.14,0-2.01-0.87-2.01-2.01l0,0c0-1.14,0.87-2.01,2.01-2.01
			l0,0c1.14,0,2.01,0.87,2.01,2.01l0,0C133.9,210.34,133.03,211.21,131.89,211.21z"/>
		<path class="st28" d="M131.89,211.4c-1.25,0-2.2-0.95-2.2-2.2s0.95-2.2,2.2-2.2c1.25,0,2.2,0.95,2.2,2.2
			S133.14,211.4,131.89,211.4z M131.89,207.37c-1.03,0-1.82,0.8-1.82,1.82s0.8,1.82,1.82,1.82c1.03,0,1.82-0.8,1.82-1.82
			S132.91,207.37,131.89,207.37z"/>
	</g>
	<text transform="matrix(1 0 0 1 135.0214 205.0908)" class="st31 st12 st32">La Tirana</text>
	<text transform="matrix(1 0 0 1 136.2309 208.9003)" class="st33 st15 st34">La Tirana</text>
	<g id="NEWS-Pin1_2_" class="st0">
		<g>
			<path class="st35" d="M76.78,159.14c-3.67,0-6.64,2.92-6.64,6.55c0,0.04,0,0.04,0,0.09c0,0.97,0.22,1.95,0.66,2.88
				c0.04,0,5.98,11.73,5.98,11.73l5.93-11.6c0.44-0.93,0.66-1.95,0.62-3.01C83.37,162.15,80.45,159.14,76.78,159.14L76.78,159.14
				L76.78,159.14 M76.78,169.72c-2.21,0-3.98-1.77-3.98-3.94l0,0c0-2.21,1.82-3.98,3.98-3.98c2.21,0,3.94,1.82,3.94,3.98
				C80.72,167.95,78.99,169.72,76.78,169.72L76.78,169.72"/>
		</g>
	</g>
	<text transform="matrix(1 0 0 1 37.8793 147.0312)" class="st36"><tspan x="0" y="0" class="st33 st15 st34">Cruz de Calvario</tspan><tspan x="16.95" y="8.46" class="st33 st15 st37">Punto de partida</tspan></text>
</g>
</svg>
