<?xml version="1.0" encoding="utf-8"?>
<!-- Generator: Adobe Illustrator 22.0.1, SVG Export Plug-In . SVG Version: 6.00 Build 0)  -->
<svg version="1.1" id="Capa_1" xmlns="http://www.w3.org/2000/svg" xmlns:xlink="http://www.w3.org/1999/xlink" x="0px" y="0px"
	 viewBox="0 0 500 800" style="enable-background:new 0 0 500 800;" xml:space="preserve">
<style type="text/css">
	.st0{fill:none;stroke:#000000;stroke-width:2;stroke-linecap:round;stroke-linejoin:round;stroke-miterlimit:10;}
</style>
<g id="_x34_ftkqZ_1_">
	<g>
		<path class="st0" d="M123.6,238.5c10.9-34.7,32.5-60.2,65.9-74.6c14.6-6.3,30.8-5.9,46.8-5.9c17.8,0,35.3,1.8,52.2,6.7
			c15.8,4.5,22.6,14.7,22.6,31.4c0,10.1,0.3,20-3.4,29.8c-3.8,10.2-7.5,13.1-18.2,10.7c-8.5-1.9-16.8-4.2-25.2-6.3"/>
		<path class="st0" d="M177.7,430.5c23.1,28.5,54.5,46.5,85.7,67.3c5.2-4.2,10.7-7.7,15.2-12.4c11.3-11.8,17.3-27,24.4-41.4"/>
		<path class="st0" d="M286.8,366.5c7.4-6,16.8-4.4,25.3-6.1c7.6-1.6,15.6-1.6,25.4-2.4c-1.7-19.8-3.4-39-5.2-59.7
			c-24-8.2-48.2-16.4-72.4-24.6"/>
		<path class="st0" d="M189.4,208.8c-7.2,1.5-14.8,2-21.5,4.7c-8.8,3.5-17.2,8.4-25.2,13.4c-4.4,2.8-8,7-11.8,10.7
			c-6.7,6.5-13.2,13.2-19.8,19.8"/>
		<path class="st0" d="M247.1,471.1c-7.2-12.4-17.8-21.3-29.7-28.9c-6.3-4-12-9-18.1-13.4c-7.8-5.8-16.2-9.8-26.1-9.9"/>
		<path class="st0" d="M262.4,226.8c0.8,16.5-4.9,31-15.5,43.1c-6.7,7.6-14.4,14.2-25.9,15.9c-8.7,1.3-14.4-1.1-19.9-6.7
			c-2.8-2.9-6-5.4-9-8.1"/>
		<path class="st0" d="M194.8,207c22,6,44,12.1,66.3,18.2c6.2-9.8,3.5-19.1-7.6-26.4c-7.7-5.1-15.1-10.7-22.6-16.2"/>
		<path class="st0" d="M349.9,615.3c-0.2,3.9-0.4,7.8-0.5,11.7c-10.9,12.1-21.8,25.3-40,26c-23.1,0.9-46.3,0.3-69.4,1.2
			c-17.7,0.7-35.4,2.5-53,3.9c-12-15.2-16.3-32.2-14.6-50.9c0.5-5.7,0.6-11.4,0.9-17.1"/>
		<path class="st0" d="M188.5,266.5c6.5,4.2-0.9,8.4,1.6,14.7c-20.3-3.3-34,9.5-50.4,15.5c-5.1,13.8-8.5,55-6.1,76.2
			c2.6,0,5.3,0,8,0"/>
		<path class="st0" d="M141.7,368.3c4.1,15.2,13.3,27.1,24.3,37.9c3.9,3.9,7.3,8.4,10.9,12.6"/>
		<path class="st0" d="M177.7,421.5c-0.9,2.7-1.2,5.9-2.8,8c-4.8,6-10.1,11.5-14.3,16.2c0,5-0.2,8.9,0,12.8
			c0.5,7.5,0.8,15.1,1.8,22.5c2.1,15.1,4.7,30.1,7.2,45.1c0.4,2.1,1.2,4.2,1.8,6.3"/>
		<path class="st0" d="M312.9,431.4c8.7,8.4,17.7,16.5,25.9,25.4c2.2,2.4,2.4,7,2.8,10.6c1.7,13.2,3.1,26.4,4.6,39.7"/>
		<path class="st0" d="M285,367.4c-15.6,2.7-31.2,7.1-46.9,7.7c-27.9,1.1-55.9-0.2-83.8-0.5c-2.7,0-5.4,0.6-8.1,0.9"/>
		<path class="st0" d="M223.7,182.6c-14.1-2.7-18.8-0.3-27.8,15.4c-2.9,5-4.2,10.8-6.5,16.1c-6.3,14.5-4.1,29.3-1.8,44.2
			c0.2,1.2,0.6,2.4,0.9,3.6c0.1,0.6,0,1.2,0,1.9c-5.6,6.3-17.4,6-18.9,17"/>
		<path class="st0" d="M350.8,640.5c-6.5,6.6-13.2,12.3-23.4,8.1"/>
		<path class="st0" d="M335.5,490c0.6,8.1,1.2,16.2,1.8,24.3"/>
		<path class="st0" d="M341.8,377.3c-5.1,8.1-10.3,16.2-15.2,24.4c-1,1.7-0.7,4.1-1,6.2"/>
		<path class="st0" d="M321.9,410.7c-2.4,3.9-4.9,7.8-7.2,11.7c-2.5,4.3-4.9,8.7-7.6,13.6c1.2,2.4,3.6,6-2.3,8"/>
		<path class="st0" d="M330,401.7c-2,3.3-4,6.5-6.6,10.9c-0.7,2-2,5.5-3.3,8.9"/>
		<path class="st0" d="M341.8,383.6c-0.9,2.7-1.8,5.4-2.7,8.1"/>
		<path class="st0" d="M169.6,557.6c1.2,1.2,2.4,2.4,3.6,3.6"/>
		<path class="st0" d="M171.4,545c0,1.2,0,2.4,0,3.6"/>
		<path class="st0" d="M351.7,550.4c0.6,1.2,1.2,2.4,1.8,3.6"/>
		<path class="st0" d="M346.3,599.1c0,1.2,0,2.4,0,3.6"/>
		<path class="st0" d="M173.2,577.4c-0.6,1.2-1.2,2.4-1.8,3.6"/>
		<path class="st0" d="M337.3,395.3c-0.6,0.6-1.2,1.2-1.8,1.8"/>
	</g>
</g>
</svg>
