<?xml version="1.0" encoding="utf-8"?>
<!-- Generator: Adobe Illustrator 22.0.1, SVG Export Plug-In . SVG Version: 6.00 Build 0)  -->
<svg version="1.1" id="Capa_1" xmlns="http://www.w3.org/2000/svg" xmlns:xlink="http://www.w3.org/1999/xlink" x="0px" y="0px"
	 viewBox="0 0 500 800" style="enable-background:new 0 0 500 800;" xml:space="preserve">
<style type="text/css">
	.st0{fill:none;stroke:#000000;stroke-width:2;stroke-linecap:round;stroke-linejoin:round;stroke-miterlimit:10;}
</style>
<g id="DFSqdV_1_">
	<g>
		<path class="st0" d="M276.6,414.1c-6.2-0.8-12.3-1.7-19.6-2.6c-10.3,20.5-29.7,31.7-49,43.1c-8.7,5.2-18.4,6.4-28.1,8.1
			c-7.9,1.4-15.4,1.7-22.9-1.1"/>
		<path class="st0" d="M325.8,591.9c0.7,2,1.3,4,2.2,6.7c0,6.8,0,14.2,0,22.5c-15.2,12-33.4,19.2-53.2,22.7
			c-6.1,1.1-12.3,1.8-18.5,2.7"/>
		<path class="st0" d="M298.6,256.7c0,0.9,0.3,2.4,0,2.6c-13.9,7.1-26.8,17.9-43.9,14.9c-15.6-2.7-31.7-4.7-46.4-10.2
			c-9.4-3.5-19.6-10.1-22.2-22.3"/>
		<path class="st0" d="M167.5,609.5c6.5,1.8,13.4,2.5,19.2,5.5c7.8,4,15.2,9.2,22,14.8c8.1,6.7,16.9,10.9,27.4,12.3
			c6.8,0.9,13.5,2.8,20.3,4.3"/>
		<path class="st0" d="M315.3,264.6c0.9,11.7,2,23.5,2.6,35.2c0.8,17.9,1.4,35.8,1.7,53.7c0,2.6-1.8,5.2-2.1,6.1
			c-10.2,7-19.4,13.2-28.5,19.4"/>
		<path class="st0" d="M209.7,395.7c-2.3,1.5-4.8,2.8-7,4.4c-9.4,7.3-19.1,14.3-28.1,22.1c-9.1,7.9-13,17.9-12.8,30.7
			c0.3,19-2.6,38.1-2.9,57.2c-0.2,11.4,1.7,22.9,3.4,34.3c2,13.8,4.6,27.6,6.9,41.4c1.3,7.6,2.4,15.2,3.5,22.9"/>
		<path class="st0" d="M256.3,415.9c1.8,4.1,3.6,8.2,5.3,12.3c8.5,20.5,25.7,29.5,45.8,34.1c5.8,1.3,12.3,0.2,18.4,0.2"/>
		<path class="st0" d="M207,265.5c-0.9,21.7-2.4,43.4-2.2,65.1c0.1,5.3,4.9,12,9.4,15.6c17.6,14.1,35.9,27.2,53.9,40.7"/>
		<path class="st0" d="M255.4,412.4c-23.9-19.5-49.8-32.2-80.1-23.3c-9-9.1-10.2-18.3-9.8-28.6c1.1-34,1.3-68,2-102.1
			c0.1-4.1,0.5-8.5,1.9-12.3c1.6-4.3,5.3-7.6,10.4-6.1c9.6,2.7,14.8-4.2,21.2-8.8c2.7-2,5.8-3.6,8.8-5.3"/>
		<path class="st0" d="M270.4,415c5.3,5.9,9.7,13,16,17.3c12.3,8.5,25.6,15.4,39.9,23.7c0.8,6.7,1.8,15.8,2.9,24.9
			c-0.8,0.1-1.6,0.1-2.4,0.2c0-2.4,0-4.8,0-7.2"/>
		<path class="st0" d="M273.9,150.2c-7.1-3-14-5-22.1-2.9c-4.3,1.1-9.3-0.4-14-0.6c-10.8-0.5-17.5,5.3-23,14
			c-6.5,10.4-10.2,21.6-12.3,33.5c-0.6,3.6-1.7,7-2.6,10.6"/>
		<path class="st0" d="M300.3,381.6c5.9,5,11.7,10.1,17.6,14.9c6.7,5.5,10.7,11.9,9.8,21.2c-1.1,11.7-1.3,23.5-1.9,35.2"/>
		<path class="st0" d="M227.3,151.1c8,10.1,17.6,17.8,30.8,19.2c4,0.4,8.2-0.8,12.3-1.8c4.4,1,4.2,3.8,3.7,8.2
			c-1.8,15.2-7.8,30.2-2.1,44.5c-9.1,16-17.7,31.1-26.2,46.1"/>
		<path class="st0" d="M239.6,408.9c-2.9,3.8-5.3,8.2-8.9,11.3c-8.2,7.1-16.8,13.7-25.5,20.3c-2.9,2.2-6.4,3.6-9.6,5.3"/>
		<path class="st0" d="M223.8,403.6c-3.5,2.1-7.1,4-10.5,6.2c-11.8,7.3-23.5,14.6-35.2,22"/>
		<path class="st0" d="M287.1,403.6c10.1,13,23.9,20.9,38.7,27.3"/>
		<path class="st0" d="M292.4,301.5c-0.9,20.5-1.7,41.1-2.7,61.6c0,0.9-1.1,1.8-1.7,2.6"/>
		<path class="st0" d="M325.8,542.6c0,8.5,0,17,0,25.5c0,4.4,0,8.8,0,13.2"/>
		<path class="st0" d="M215,228.5c11.2,11,18.7,24.5,26.4,37.8"/>
		<path class="st0" d="M269.5,390.4c0.4,5.2,0.3,10.6,4.7,14.4c13.6-2.9,9.6-15.8,16.1-24.3c-4.5-3.4-8.7-6.5-12.9-9.7
			c-7.8,5.2-7.7,12-7.9,18.7"/>
		<path class="st0" d="M328.5,490.7c0.3,13.8,0.4,27.6,0.9,41.4c0.3,10,1.1,19.9,1.7,29.9"/>
		<path class="st0" d="M301.2,229.4c-3.2-0.6-6.9-0.4-9.6-1.9c-6-3.5-12.1-4-18.6-2.5"/>
		<path class="st0" d="M295,401c6.8,7.7,17,7.8,25.5,11.4"/>
		<path class="st0" d="M269.5,216.2c-9.4,5.7-19.9,4.4-29.9,3.2c-5-0.6-9.6-1.3-14.1,1.2"/>
		<path class="st0" d="M205.3,199.5c2.2,6.3,4.3,12.7,6.5,19c1.1-0.2,2.1-0.3,3.2-0.5c0-2.1,0-4.1,0-6.2"/>
		<path class="st0" d="M274.8,151.9c0.2,5.7,3.5,11.6-1.8,16.7"/>
		<path class="st0" d="M176.3,449.3c5.3-0.6,10.6-1.2,15.8-1.8"/>
		<path class="st0" d="M214.1,218.8c-1.8,6.5-3.5,12.9-5.3,19.4"/>
		<path class="st0" d="M284.5,391.3c-2.6,1.8-5.3,3.5-7.9,5.3"/>
		<path class="st0" d="M331.1,593.6c-0.3,0.9-0.6,1.8-0.9,2.6"/>
	</g>
</g>
</svg>
