<?xml version="1.0" encoding="utf-8"?>
<!-- Generator: Adobe Illustrator 22.0.1, SVG Export Plug-In . SVG Version: 6.00 Build 0)  -->
<svg version="1.1" id="Capa_1" xmlns="http://www.w3.org/2000/svg" xmlns:xlink="http://www.w3.org/1999/xlink" x="0px" y="0px"
	 viewBox="0 0 500 800" style="enable-background:new 0 0 500 800;" xml:space="preserve">
<style type="text/css">
	.st0{fill:none;stroke:#000000;stroke-width:2;stroke-linecap:round;stroke-linejoin:round;stroke-miterlimit:10;}
</style>
<g id="oNDVPs_1_">
	<g>
		<path class="st0" d="M176.6,163.7c-1.3,7.9,2.4,14.7,4.5,22c4.7,15.8,8.5,31.8,12.8,47.7c0.4,1.5,2,2.6,3,3.9"/>
		<path class="st0" d="M299.7,472.5c19.2,10.3,38.3,20.6,58.9,31.6c-1.9,10.1-3.4,20.3-5.7,30.3c-4.9,20.7-10.6,41.2-15.4,62
			c-1.3,5.8-0.6,12-1,18c-0.1,1.6-1,3.1-1.5,4.7"/>
		<path class="st0" d="M298.1,456.8c1.4-2.3,2.8-4.6,4.1-6.9c-0.6,0.1-1.2,0.1-1.7,0.2c-2.4-11.9-5.4-23.6-7-35.6
			c-2.8-21.2-12-39.3-25.3-55.6c-0.9-1.1-3-1.1-4.6-1.6"/>
		<path class="st0" d="M244.8,353.3c-11.5,0.8-23,1.3-34.5,2.5c-3.4,0.4-6.5,3-8.9,4.1c-7.9,0.7-15.3,0.7-22.4,2.2
			c-5.1,1-8.5,4.7-8.7,10.8c-0.6,16.7-1.7,33.4-2.2,50.2c-0.4,13.6-0.1,27.2-0.1,40.1c11.8,3.1,22,5.6,32.1,8.5
			c13.1,3.7,26.2,7.7,39.2,11.8c3.4,1.1,6.4,3.3,10.5,5.4c13.4-9.2,27.4-18.8,40.9-28c15.8,7.9,30.5,15.2,45.1,22.4"/>
		<path class="st0" d="M191.5,471.7c-1.3,9.4-1.6,19.1-4.2,28.1c-2.8,9.7-3.4,19.2-3.7,29.1c-0.6,17.1,3.4,33.5,6.2,50.2
			c2,11.6,2.5,23.5,3.8,36c6.8,0,13.3,0,19.9,0"/>
		<path class="st0" d="M311.4,525.8c5.4,11.7,3,24.2,2,36c-1.1,12.4-4.9,24.7-8.4,36.8c-1.6,5.3-5.9,9.8-8.3,15
			c-6.9,14.4-2.4,22.6,13.3,23.3c9.1,0.4,18.3,0,26.6-4.5c1.5-0.8,3.1-1.6,4.7-2.3c-0.6-0.5-1.2-1-1.8-1.5c-2-2.7-4.1-5.3-6.1-8"/>
		<path class="st0" d="M203.3,291.4c-1.3,7.1-3.7,14.1-3.7,21.2c-0.1,12,1.3,24,2.1,36"/>
		<path class="st0" d="M312.2,523.4c-0.3,0.3-0.6,0.5-0.8,0.8c-0.1,0.2,0,0.5,0,0.8c-2.1-1.3-4.5-2.3-6.2-4
			c-9.8-9.5-21-17-33.8-21.8c-4-1.5-8.3-2.2-12.5-3.2"/>
		<path class="st0" d="M237,502.2c-0.3,1.3-1.2,3-0.7,3.9c7.3,12.1,8.1,25.8,9.1,39.3c1.2,15.4,1.4,30.8,1.6,46.2
			c0.1,5-1.8,9.9-2.1,14.9c-0.4,6.2-5.3,7.3-9.5,9.4"/>
		<path class="st0" d="M224.4,637c0.1,8.6,6.6,12.3,12.5,16.5c10.1-4.5,12.7-13.6,6.2-22.7c-4.5-6.3-8-13.8-15.7-17.2
			c-0.9-0.4-2.6,0.9-3.9,1.4"/>
		<path class="st0" d="M190,165.3c1.6,21.3,5.7,42.2,11.6,62.7c0.8,2.8-0.9,6.2-1.4,9.4"/>
		<path class="st0" d="M202.5,161.3c4.2,18.5,8.3,37.1,12.6,55.6c0.3,1.2,1.5,2.1,2.3,3.2"/>
		<path class="st0" d="M268.3,168.8c-0.8,3.8-1.3,7.6-2.4,11.4c-8.2,28.5-11.7,57.8-15.5,87c-0.7,5.4,0.4,11,0.6,16.4"/>
		<path class="st0" d="M248,230.3c-0.8,3.9-1.8,7.8-2.3,11.8c-1.7,14-3.1,28.1-4.6,41.9c6.8,3.7,11.5,0.5,16.3-1.2"/>
		<path class="st0" d="M248,165.3c7.3,16.5,4.7,33.3,1.6,50.2c-0.8,4.4-1.4,8.8-2.2,14.1c2.9,0,5.3,0,7.7,0"/>
		<path class="st0" d="M173.5,155.1c6,4.6,13,2.7,19.6,3.2c3.2,0.2,6.4,0.6,9.5,0.5c14.6,1.4,29.2,2.8,43.8,4.2"/>
		<path class="st0" d="M301.3,608c7.1,9.6,19.6,10.2,28.3,17.2c0.1,0,1-1,1.5-1.5"/>
		<path class="st0" d="M255,285.2c0.5,4.2,1.1,8.4,1.6,12.5c1.3,11.2,2.6,22.5,3.9,33.7"/>
		<path class="st0" d="M234.6,162.9c4.2,9.3,4.3,19,3.3,29c-0.6,5.9-0.1,12-0.1,18"/>
		<path class="st0" d="M200.2,267.1c-3.9,5.2-0.2,10,0.9,14.9c0.7,2.9,2.3,5.6,3.9,9.4c11.6-3.2,24.8-1.5,36.7-7.1"/>
		<path class="st0" d="M229.1,278.1c3.7-22.6,0.7-45.9,6.3-69.4c3.8,6.2,2.6,25.7-2.4,49"/>
		<path class="st0" d="M222.9,180.9c-0.5,8.4-0.8,16.7-1.6,25.1c-0.7,7.3-2,14.6-3,22c-0.2,1.3-0.4,2.8,0,3.9
			c3.2,7.4,2.8,14.6,0.1,22c-0.6,1.5,0.4,3.6,0.7,5.4"/>
		<path class="st0" d="M269.9,158.2c-6.8,2.1-13.6,4.2-20.4,6.3"/>
		<path class="st0" d="M248,287.5c0.3,5.7,0.5,11.5,0.8,17.2"/>
		<path class="st0" d="M211.9,229.5c0.5,3.9,1.4,7.8,1.5,11.8c0.1,4.2,0.3,8.2,4,11"/>
		<path class="st0" d="M221.3,259.3c-0.8,0.5-2.3,1.1-2.2,1.6c0.1,6.3,0.4,12.5,0.7,18.8"/>
		<path class="st0" d="M260.5,340.8c0,1.6,0,3.2,0,4.5c-3.9,1-7.1,1.8-10.2,2.6"/>
		<path class="st0" d="M214.3,615.9c2.8-0.6,5.6-1.1,8.4-1.7c1.8,5,3.4,9.2,4.9,13.4"/>
		<path class="st0" d="M320.1,612c3.9,2.4,7.8,4.7,11.8,7.1"/>
		<path class="st0" d="M219,162.1c1,5.7,2.1,11.5,3.1,17.2"/>
		<path class="st0" d="M233.9,166.8c-2.6,2.6-5.2,5.2-7.8,7.8"/>
		<path class="st0" d="M277.7,153.5c-5.4,0-6.8,2.9-6.4,7.8c0.1,1.8-1.4,3.6-2.2,5.5"/>
		<path class="st0" d="M218.2,222.5c-2.1,1.3-4.2,2.6-6.3,3.9"/>
		<path class="st0" d="M259.7,175.4c-0.8,1.8-1.6,3.7-2.4,5.5"/>
		<path class="st0" d="M200.9,362c0.5,1.3,1,2.6,1.6,3.9"/>
		<path class="st0" d="M193.9,213.1c-1,0.5-2.1,1-3.1,1.6"/>
		<path class="st0" d="M207.2,605.7c0.8,0.8,1.6,1.6,2.4,2.4"/>
		<path class="st0" d="M241.7,288.3c-0.8,0-1.6,0-2.4,0"/>
	</g>
</g>
</svg>
