<?xml version="1.0" encoding="utf-8"?>
<!-- Generator: Adobe Illustrator 22.0.1, SVG Export Plug-In . SVG Version: 6.00 Build 0)  -->
<svg version="1.1" id="Capa_1" xmlns="http://www.w3.org/2000/svg" xmlns:xlink="http://www.w3.org/1999/xlink" x="0px" y="0px"
	 viewBox="0 0 500 800" style="enable-background:new 0 0 500 800;" xml:space="preserve">
<style type="text/css">
	.st0{fill:none;stroke:#000000;stroke-width:2;stroke-linecap:round;stroke-linejoin:round;stroke-miterlimit:10;}
</style>
<g id="SQFFMv_1_">
	<g>
		<path class="st0" d="M317.8,322.4c7.8,0.9,15.7,1,23.2,3c21.2,5.4,42.4,11.2,63.3,17.7c9.1,2.8,17.5,7.7,26.1,11.9
			c10.5,5.1,12.4,16.8,18.3,25.4c2.6,3.9-0.7,9.4-5.2,12.8c-16.3,12.3-34.6,18.1-55,18.7c-10.6,0.3-21.1,0.7-31.7,0.1
			c-9.5-0.5-18.8-0.6-27.9-3.9c-13.3-4.9-27.1-8.4-39.9-14.3c-15.6-7.2-30.5-16.1-42.1-29.5c-1-1.1-2.5-1.9-3.7-2.8"/>
		<path class="st0" d="M231.1,222.7c16.5,9.6,33,19.1,49.3,28.9c12.6,7.6,23.7,17,32.7,28.8c2.1,2.8,4.6,5.3,7.2,7.5
			c5.2,2.6,10.2-7.5,15.2,0"/>
		<path class="st0" d="M235.8,353.1c-10.3,4.9-31.3,0.3-38.3-9.2c-5.4-7.4-12-14-19.4-22.4c-4.6,4.6-9.2,8.5-12.9,13.1
			c-5.3,6.5-10,13.6-15,20.4"/>
		<path class="st0" d="M145.5,378.7c1.9,2.6,4.5,5,5.5,8c4.6,14.8,8.8,29.8,13.2,44.7"/>
		<path class="st0" d="M175.3,458.3c2.5,7.8,4.5,15.7,7.6,23.2c2.9,7,4.6,13.6,0.8,20.5c-9,16.3-9.3,34.2-9.3,52.2"/>
		<path class="st0" d="M206,164c13.2,14.8,26.4,29.6,39.4,44c-14.1,11.6-26.8,22-39.4,32.4"/>
		<path class="st0" d="M227.4,413.2c-5.8-0.8-4.4,4.5-5.4,7.1c-1.5,4-1.5,8.6-2.1,13"/>
		<path class="st0" d="M219,434.1c-1.8,10.7-3.7,21.3-6,34.5c2.8,7,7,16.8,10.4,27c1,3,0.3,7-0.8,10.1c-6.9,19.9-13.7,40-21.5,59.6
			c-3.6,8.9-9.7,16.9-14.7,25.2"/>
		<path class="st0" d="M115.6,240.4c3.4,4.7,6.9,9.3,10.2,14c16.5,23,32.9,45.9,49.4,68.9"/>
		<path class="st0" d="M304.7,304.7c-10.9-6.5-22-12.6-32.5-19.7c-15.1-10.2-29.7-21.2-46.2-33.1c-0.6,3.5-1.6,5.9-1.2,8.1
			c2.9,15.3,6.1,30.5,9.3,45.6c0.2,1.1,1.8,1.9,2.7,2.8"/>
		<path class="st0" d="M325.2,308.4c-2.5,7.7-9.8,12.4-17.7,13.2c-15.9,1.7-32.1,2.6-47.3,7c-9.7,2.8-17.8,11.2-27,17.4
			c4.2,5.5,7.1,9.3,10.9,14.2c-3.3,2.4-5.8,4.2-8.3,6"/>
		<path class="st0" d="M241.4,568.2c8.7,4,17.5,7.9,26.1,12.1c9.4,4.6,19.3,7.4,29.8,6.4c8.5-0.8,13.5-7.1,18.4-14.4
			c-10.6-7.9-23-4.7-34.3-6.9"/>
		<path class="st0" d="M253.5,564.5c-3.3-13.5-7.7-26.3-16.6-37.4c-3.4-4.3-4.3-10.5-6.8-15.6c-1.3-2.7-3.6-5-5.5-7.5"/>
		<path class="st0" d="M445.4,394.1c2.1,12.7-2.8,24.4-5.6,36.3c-1.8,7.6-3.4,15.3-5.6,25.6c-18,8.9-39,13.2-61.5,7.9"/>
		<path class="st0" d="M259.1,384.8c-4,18.6-8.1,37.3-12.1,55.9"/>
		<path class="st0" d="M138.9,126.8c0.7,6.2,1.4,12.4,2.1,19c-7.1,7.6-14.4,15.2-21.6,22.9"/>
		<path class="st0" d="M374.6,414.6c2.8,8.2,2.8,16.1-0.8,24.3c-3.5,7.9-5.1,16.4-2.9,25.1"/>
		<path class="st0" d="M380.2,267.4c-13.4,7.8-26.7,15.5-40,23.4c-1.4,0.8-1.9,3-2.9,4.6"/>
		<path class="st0" d="M277.7,540.3c-0.6,6.5-1.2,13-1.9,19.6"/>
		<path class="st0" d="M165.9,160.3c3.1,3.1,6.4,6,9.3,9.4c9.2,10.8,17.4,22.6,30.8,28.8"/>
		<path class="st0" d="M189.2,582.2c-6.3-1.7-12.5-3.3-20.5-5.5c-2.3,4.4-5.1,9.7-7.5,14.3c8.6,12.2,21.7,16.9,31.7,12.6"/>
		<path class="st0" d="M392.3,427.6c4.3-3.2,8.7-6.3,13-9.5c0.9,0.6,1.9,1.1,2.8,1.7c0.4,16.6-8,30.6-14.9,45.1"/>
		<path class="st0" d="M282.4,393.1c-2.2,16.8-4.3,33.5-6.7,51.5c-5.2-7.7-1.9-14.2,0.2-20.7"/>
		<path class="st0" d="M341,412.7c-3.7,13.4-7.6,26.7-11.1,40.1c-0.8,2.9-0.1,6.2-0.1,9.3"/>
		<path class="st0" d="M164.1,113.7c-1.7-2.4-3.4-4.7-3.8-5.4c-10.9-0.8-14.4,5.4-17.4,11.1c-2.1,3.9-4.4,5.9-8.5,7.5
			c-12.1,4.8-22.5,27.7-18.7,39.8"/>
		<path class="st0" d="M277.7,454.6c11.2,3.9,22.4,6,34.4,7.3c19.7,2.1,39.2,1.3,58.8,2.1"/>
		<path class="st0" d="M156.6,147.2c2.8,3.4,5.6,6.8,8.9,10.9c-9.2,14.3-18.1,29.2-7.1,47.2c11.5,1.4,23,2.9,35.4,4.4
			c3.6-3.6,7-7,10.4-10.4"/>
		<path class="st0" d="M184.6,191c-0.3,4.7-0.5,9.3-1,14c-1.3,13.1,6,23.1,12.1,33.5"/>
		<path class="st0" d="M215.3,114.7c-11.1,0.8-14.1,10.8-19.4,17.8c-3.4,4.5-5.8,9.8-8.2,14.1c4.9,5.8,9.6,11.4,15.2,18.1
			c2.3-4.7,3.6-7.3,5.4-10.7c-4.3-5.1-8.9-10.5-13.4-16"/>
		<path class="st0" d="M226.5,355.9c-1.3,3.7-2.6,7.4-4,11.2c3.2,3.9,6.2,7.6,10.4,12.7c-2.2,6.2-5.1,13.4-7.2,20.8
			c-1,3.5-0.2,7.4-0.2,11.1"/>
		<path class="st0" d="M207.9,597.1c2.3,3.6,5.1,7.1,0.9,11.2"/>
		<path class="st0" d="M260.9,454.6c-12.1-10.1-21.8-23.6-38.2-27.9"/>
		<path class="st0" d="M115.6,179.8c6.2,7.8,12.4,15.5,18.6,23.3"/>
		<path class="st0" d="M347.6,438.8c-3.1,7.8-6.2,15.5-9.3,23.3"/>
		<path class="st0" d="M378.3,435.1c-0.9,9.6-1.9,19.2-2.8,28.9"/>
		<path class="st0" d="M88.6,215.2c-3.4,2.9-6.7,5.8-11.8,10.2c-3.5-6.1-6.1-10.5-8.7-14.8"/>
		<path class="st0" d="M164.1,121.2c2.2,6.8,15.6,20.6,23.3,24.2"/>
		<path class="st0" d="M196.7,346.6c-3.7-1.2-7.6-2.2-11.2-3.8c-8.1-3.5-16.2-0.9-24.2,0.1"/>
		<path class="st0" d="M408.6,266.5c1.1,1.8,2.2,3.7,4,6.6c-7.7,4-15.4,8-24.2,12.6c-1.4-8.6-9.8-15-5.3-24.8"/>
		<path class="st0" d="M166.9,129.6c-5.3,7-10.6,14.1-17.6,23.4c0.3,4.4-1.4,11.9,3.6,18.5"/>
		<path class="st0" d="M309.4,446.2c-2.8-8.6,1.9-15.4,4.3-22.7c0.9,0.2,1.9,0.3,2.8,0.5c-1.1,7.4-2.1,14.7-3.2,22.1
			c-0.6-0.2-1.1-0.5-1.7-0.7c-0.8,1.5-1.5,3-2.3,4.5"/>
		<path class="st0" d="M339.2,427.6c-0.9,6.5-1.9,13-2.8,19.6c-0.7,5.3-1.3,10.6-1.9,15.8"/>
		<path class="st0" d="M206,115.6c-13-5.6-26.1-6.3-39.1,0.1c-0.6,0.3-0.7,1.8-1,2.7"/>
		<path class="st0" d="M204.6,242.3c-2.2-1.4-4.5-2.8-4.9-3c-7.8,2.3-13.8,4-19.8,5.8"/>
		<path class="st0" d="M213.4,245c3.7,3.1,7.5,6.2,11.2,9.3"/>
		<path class="st0" d="M231.1,331.7c1.6,4.3,3.1,8.7,4.7,13"/>
		<path class="st0" d="M266.5,565.4c1.6,1.6,2.9,3.5,4.7,4.6c1.9,1.1,4.3,1.3,6.5,2"/>
		<path class="st0" d="M193,117.4c-4.3,1.9-8.7,3.7-13,5.6"/>
		<path class="st0" d="M175.3,327c-0.3,4.3-0.6,8.7-0.9,13"/>
		<path class="st0" d="M239.5,308.4c-0.6,0-1.2,0-1.9,0c0.5,13.6-9.8,23.6-12.1,36.3"/>
		<path class="st0" d="M279.6,524.5c0.6,3.7,1.2,7.5,1.9,11.2"/>
		<path class="st0" d="M289.8,573.8c-2.8,0-5.6,0-7.6,0c-1.9-5.2-3.4-9.4-4.7-12.9c-7.5,1-13.6,1.3-19.3,2.9c-2.9,0.8-5,4.1-7.5,6.3
			"/>
		<path class="st0" d="M280.5,504c-3.4,0-6.8,0-10.2,0"/>
		<path class="st0" d="M319.6,408c-1.2,5.3-2.5,10.6-3.7,15.8"/>
		<path class="st0" d="M280.5,572.9c-3.7,1.6-7.5,3.1-11.2,4.7"/>
		<path class="st0" d="M234.9,300c4.5-0.3,5.8,1.5,3.7,5.6"/>
		<path class="st0" d="M312.2,448.1c-0.3,4-0.6,8.1-0.9,12.1"/>
		<path class="st0" d="M283.3,477.9c4.1,4.5,2.8,9.7,1.9,14.9"/>
		<path class="st0" d="M315,418.3c-0.6,1.9-1.2,3.7-1.9,5.6"/>
		<path class="st0" d="M310.3,312.1c-1.9,0.5-3.8,0.9-6.2,1.5c1.3,2.7,2.4,4.8,3.4,6.9"/>
		<path class="st0" d="M233,310.2c0,4,0,8.1,0,12.1"/>
		<path class="st0" d="M280.5,448.1c-1.6,1.9-3.1,3.7-4.7,5.6"/>
		<path class="st0" d="M383,448.1c-0.6,1.2-1.2,2.5-1.9,3.7"/>
		<path class="st0" d="M366.2,415.5c-1.2,0.9-2.5,1.9-3.7,2.8"/>
	</g>
</g>
</svg>
