<?xml version="1.0" encoding="utf-8"?>
<!-- Generator: Adobe Illustrator 22.0.1, SVG Export Plug-In . SVG Version: 6.00 Build 0)  -->
<svg version="1.1" id="Capa_1" xmlns="http://www.w3.org/2000/svg" xmlns:xlink="http://www.w3.org/1999/xlink" x="0px" y="0px"
	 viewBox="0 0 500 800" style="enable-background:new 0 0 500 800;" xml:space="preserve">
<style type="text/css">
	.st0{fill:none;stroke:#000000;stroke-width:2;stroke-linecap:round;stroke-linejoin:round;stroke-miterlimit:10;}
</style>
<g id="BcxmjV_1_">
	<g>
		<path class="st0" d="M293.3,440.4c7.3,14.3,16,27.8,16.5,44.9c0.2,6.7,4.2,13.3,6.9,19.8c7.7,18.6,14.5,37.7,23.6,55.5
			c7.6,14.9,14.3,29.8,18.6,46c1,3.7,2.4,7.2,3.6,10.8"/>
		<path class="st0" d="M197.2,302.9c-2.7-0.4-5.4-0.8-10.1-1.4c-22.2,16.4-35.2,40.7-43.8,67.9c-2.6,8.3-3.8,17.2-7.5,25
			c-4.6,9.8-2.6,19.8-3.4,29.8c-0.5,6-1.7,12-2.6,18"/>
		<path class="st0" d="M346.3,357.7c1.4,19.3,5.1,38.1,10.8,56.6c2,6.6,3.1,13.2-0.6,20.5c-10.7,1.2-22.1,2.5-35.5,3.9
			c0.3,2.3,0.2,5.7,1.1,8.8c8.7,31.7,24.2,60.5,38.6,89.8c1.9,3.9,3.9,7.7,6.3,12.5c-4.8,4.8-9.6,9.6-14.4,14.4"/>
		<path class="st0" d="M360.7,626.3c-9.9,1.8-19.8,3.3-29.6,5.5c-12.6,2.7-25.1,6.1-37.8,8.9c-11,2.4-22.3,3.6-33.2,6.6
			c-5.2,1.4-9.5,6.1-14.5,8.6c-3.9,1.9-8.3,3.3-12.5,3.6c-11.7,0.7-23.3,0.7-35,1"/>
		<path class="st0" d="M253.8,275.1c0,12.9,0,25.7,0,39.1c9.9,2.6,12.6-0.2,10.5-16c5.1,0.4,9.9,0.6,14.6,1.2
			c4.5,0.6,9,1.6,13.5,2.7c14.5,3.4,30.1,4.8,38.6,19.8c5,8.9,11.8,17.2,9.3,28.8c-0.4,2,2.4,4.7,3.8,7c0.8-0.4,1.7-0.8,2.5-1.3
			c-1-2.2-2-4.5-3-6.7"/>
		<path class="st0" d="M153.2,458.3c-2.1,9.6-4.3,19.1-6.3,28.8c-3.7,18.2-7.2,36.5-10.8,54.8c-1.2,6-2.5,12-3.6,18
			c-1.3,7.8-2.4,15.6-3.6,23.4"/>
		<path class="st0" d="M307.7,490.7c-1.7,2.2-3.4,4.3-5.2,6.5c-0.2-0.7-0.4-1.4-0.6-2.1c-12.8,2.4-25.5,5.1-38.3,7.2
			c-11.9,1.9-23.9,3.1-35.9,4.6"/>
		<path class="st0" d="M265.5,312.8c2.8,4.6,2.8,4.6-2.4,12.6c-2.4,0-5.4,0-8.4,0"/>
		<path class="st0" d="M235.8,333c-12.3-0.8-24.6-1.6-38.5-2.5c-0.5,1.1-1.5,3.3-2.9,6.3c9.3,1.3,17.7,2.7,26.1-0.6"/>
		<path class="st0" d="M192.7,249.9c4.6,0.3,9.1,0.3,11.7-4.5c3.3-6,6.6-12,9.9-18"/>
		<path class="st0" d="M167.5,459.2c1,26.3-1,52.4-6.3,78.2c-2.9,14-5.5,28.1-8,42.2c-0.3,1.7,0.5,3.6,0.8,5.4"/>
		<path class="st0" d="M244.8,196.9c0.6,1.2,1,2.5,1.8,3.6c2.1,2.7,4.4,5.3,6.7,7.9c-0.5,0.4-0.9,0.8-1.4,1.3
			c8,5.8,15.9,11.6,23.7,17.3c-4.4,9.4-8.8,18.8-13.1,27.9c-13-2.3-17.8-11.5-23.2-20.1c-1.9-3.1-3.8-6.4-6.3-8.9
			c-5.5-5.3-11.6-6.7-17.9-1"/>
		<path class="st0" d="M206.2,168.2c-5.4,11.7-10.8,23.4-16.2,35"/>
		<path class="st0" d="M182.8,218.5c-4.8,8.4-9.7,16.7-14.3,25.2c-2.4,4.3-4.2,9-6.3,13.4"/>
		<path class="st0" d="M319.4,381.1c-0.9,2.7-2.4,5.3-2.6,8.1c-2,24.2-3.7,48.5-5.5,72.8c-0.1,0.9-1.1,1.8-1.7,2.7"/>
		<path class="st0" d="M121.7,423.3c-5.1,10.2-10.2,20.4-15.3,30.5c1.5,1.5,3.1,4.4,4.5,4.3c11.4-0.7,22.8,5.5,34.3-0.5
			c2.6-1.4,6.5,0,9.8-0.2c14.7-1.1,29.4-2.3,44.4-3.5c7.1,17,18.2,31.4,31.9,43.9"/>
		<path class="st0" d="M181,373c-4.3,9.8-4.3,20-3.7,30.6c0.9,15.7,8.9,28.3,16.2,41.4c1.4,2.4,1.9,5.4,2.8,8"/>
		<path class="st0" d="M295.1,445.7c-21,1.5-41.9,2.8-62.9,4.6c-10.5,0.9-21,2.9-31.5,4.4"/>
		<path class="st0" d="M153.2,586.8c-0.6,13.5-0.6,27-2,40.4c-0.7,6.4-3.9,12.6-6,18.9"/>
		<path class="st0" d="M208,320c9.6,1.8,19.2,3.6,28.7,5.4"/>
		<path class="st0" d="M272.6,653.3c-6.3,1.2-12.6,2.5-18.9,3.5c-2.6,0.4-5.4,0.1-8.1,0.1"/>
		<path class="st0" d="M130.7,584.1c7.2,0.6,14.4,1.7,21.6,1.6c4.8,0,9.6-1.6,14.4-2.5"/>
		<path class="st0" d="M191.8,264.3c3.8,2.6,6.7,5.2,6.5,10.8c-0.4,10.8,0.6,21.6,0.6,32.3c0,7.5-0.5,15-0.8,22.5"/>
		<path class="st0" d="M261,258.9c1.2,6.9,2.4,13.8,3.6,20.7"/>
		<path class="st0" d="M191.8,303.8c-5.1,6-10.2,12-15.3,18"/>
		<path class="st0" d="M177.4,328.1c2.7,1.2,5.3,2.8,8.1,3.5c3.2,0.8,6.6,0.7,9.9,1"/>
		<path class="st0" d="M205.3,190.6c-5.1,4.5-5.2,13.9-14.4,14.4"/>
		<path class="st0" d="M211.6,161c5.4,6,10.8,12,16.2,18"/>
		<path class="st0" d="M187.3,264.3c-5.7,4.4-10.4,0.5-15.3-1.8"/>
		<path class="st0" d="M148.7,254.4c6.4,2.1,12.8,4.1,20.9,6.8c5.3-2,12.6-4.7,19.6,1.3"/>
		<path class="st0" d="M310.4,446.6c-3.9,0.6-7.8,1.2-11.7,1.8"/>
		<path class="st0" d="M358.9,618.2c-3,1.5-6,3-9,4.5"/>
		<path class="st0" d="M148.7,660.4c4.5,0,9.6,1.4,13.4-0.2c12.3-5.1,24.1-0.3,36,0.2"/>
		<path class="st0" d="M264.6,290.3c0.3,2.7,0.6,5.4,0.9,8.1"/>
		<path class="st0" d="M260.1,278.7c0.9,2.7,1.8,5.4,2.7,8.1"/>
		<path class="st0" d="M250.2,260.7c1.8,4.4,3.5,8.8,5.5,13.6c0.7-1,1.7-2.4,2.6-3.8"/>
		<path class="st0" d="M367.9,625.4c2.4,2.1,4.8,4.2,7.2,6.3"/>
		<path class="st0" d="M259.2,273.3c1.2,1.8,2.1,3.9,3.6,5.3c3.3,3.2,4.2,6.3,0.8,9.9"/>
		<path class="st0" d="M253.8,207.7c0.9,1.5,1.8,3,2.7,4.5"/>
		<path class="st0" d="M230.4,180.7c3.6,5.9,6.8,12.2,14.3,14.5c1.2,0.4,1.8,2.8,2.7,4.3"/>
		<path class="st0" d="M224.1,175.4c4.2,3.6,8.4,7.2,12.6,10.8c0.1,0.1,0.1,0.6,0,0.9c-0.2,0.4-0.6,0.6-0.9,0.9"/>
		<path class="st0" d="M345.4,369.4c-0.3,0.6-0.7,1.2-0.8,1.8c0,0.2,0.5,0.6,0.8,0.9"/>
	</g>
</g>
</svg>
