<?xml version="1.0" encoding="utf-8"?>
<!-- Generator: Adobe Illustrator 22.0.1, SVG Export Plug-In . SVG Version: 6.00 Build 0)  -->
<svg version="1.1" id="Capa_1" xmlns="http://www.w3.org/2000/svg" xmlns:xlink="http://www.w3.org/1999/xlink" x="0px" y="0px"
	 viewBox="0 0 500 800" style="enable-background:new 0 0 500 800;" xml:space="preserve">
<style type="text/css">
	.st0{fill:none;stroke:#000000;stroke-width:2;stroke-linecap:round;stroke-linejoin:round;stroke-miterlimit:10;}
</style>
<g id="mNlQhD_1_">
	<g>
		<path class="st0" d="M360.4,508.5c-15.2-10.4-30.3-20.7-45.5-31c-1.6-1.1-3.4-1.9-5-2.9"/>
		<path class="st0" d="M298.3,465.2c-7-4.8-13.8-9.8-21-14.4c-19.7-12.6-39.6-24.8-59.2-37.7c-12.1-8-23.1-17.7-35.6-24.9
			c-13.3-7.7-25.7-16.3-36-27.7"/>
		<path class="st0" d="M266.5,601c-1.2,6.3-2.3,12.6-3.7,18.8c-1,4.5-4.5,5.1-8.6,5.1c-11.1,0.3-22.2,1-33.2,1.3
			c-2.4,0-4.8-1.5-7.2-2c-6.7-1.5-11.9,2.5-17.3,5.2c-5,2.5-9.4,6.3-14.2,9.6c15.3,14.6,56,13.9,75.2-1.3c-7-8.1-16.4-7.7-25.6-7.7"
			/>
		<path class="st0" d="M289.6,255c-5.4-0.7-7.9,3.7-11.7,6.2c-10.1,6.6-20.4,13.6-31.7,17.2c-19.8,6.3-39,2.4-56.2-9.7"/>
		<path class="st0" d="M212.3,174.8c-0.7,9.2-0.5,18.5-2.4,27.4c-3.4,16.5-8,32.8-12.1,49.2c-1.2,4.8-2,9.6-2.9,14.4"/>
		<path class="st0" d="M272.3,191.4c1.9,2.6,4.3,5.1,5.7,8c5.7,11.9,11.4,23.9,16.6,36.1c2.8,6.5,4.7,13.4,6.4,20.2
			c0.5,1.9-1,4.4-2,6.4c-1.2,2.4-2.8,4.6-4.6,7.5c10.7,5.4,20.7,10.4,30.8,15.4c-0.3,0.4-0.6,0.7-1,1.1c4,4.2,7.9,8.5,12.7,13.5
			c-3,8.2-6,17.7-9.8,26.8c-3.4,8.1-8,15.8-11.3,24c-1.6,3.9-1.8,8.6-1.5,12.9c1.4,19,2.9,38.1,5.1,57.1c1.2,10.9,3.8,21.6,6,33.8
			c-4,1.6-7.6,3.1-11.2,4.5c-3.4,1.4-6.7,2.9-10.1,4.3"/>
		<path class="st0" d="M250.6,489.7c9.6,26.2,14,53.6,18.8,80.9c2.3,13.2,4.1,26.5,6.7,39.7c0.9,4.4,3.7,8.5,5.4,12.4
			c7.4-1.8,13.9-3.5,20.4-5.1"/>
		<path class="st0" d="M308.4,475.3c-0.5,2.4-1.4,4.8-1.4,7.2c0.1,19.9,6.7,38.6,10.6,57.8c1.7,8.2,1.6,16.8,2.3,25.3
			c0,0.2-0.9,0.5-1.4,0.7"/>
		<path class="st0" d="M265.1,166.1c3.1,10.9,6.3,21.7,6.6,33.2c0.4,14.4,5,27.7,11.5,40.5c0.4,0.9,0.5,1.9,0.7,2.9"/>
		<path class="st0" d="M320.7,567c2.2,9.4,4.3,18.8,6.6,28.7c-3.5,7.5-10,12.1-17.3,16.3c-3,1.7-6.5,4.8-7,7.8
			c-2.3,12.4-3.7,25-5.3,37.5c-0.1,0.9,0.1,1.9,0.3,4.5c3.5-1.2,7-1.4,8.9-3.1c9-8.2,11.5-19.4,12.2-30.9c0.1-1.1-2.2-2.4-3.4-3.6"
			/>
		<path class="st0" d="M194.3,283.1c-0.8,2.9-1.6,5.7-2.6,9.5c-7.3,4.4-8.5,12.5-8.1,20.8c0.6,12.2-2.4,23.7-5.1,35.4
			c-1.6,6.9-2.4,14-3.7,20.9c-0.6,3.2-1.9,6.3-2.8,9.4"/>
		<path class="st0" d="M200,472.4c15.7-5.1,31.3-0.2,47,0"/>
		<path class="st0" d="M167.5,389.3c-5.2,12.1-7.2,31.5-4.6,40.8c10.3,5.5,19.9,10.7,29.6,15.9c-3.4,10.3-6.5,20.2-10.3,31.8
			c6.2-1.8,11.3-3.2,16.5-4.7"/>
		<path class="st0" d="M289.6,465.9c-14.4,7.2-29.7,11-45.5,13.1c-3.7,0.5-7.2,2.3-10.8,3.5"/>
		<path class="st0" d="M210.2,166.1c15.2,0,30.4,0.4,45.5-0.2c5-0.2,11.1,0.9,15.2-4.1"/>
		<path class="st0" d="M314.2,332.2c-3,6.5-3.7,13,0,19.5"/>
		<path class="st0" d="M174.8,385.7c-0.7,4.3-1.8,8.6-2.1,13c-0.5,7.7-0.6,15.4-0.8,23.1"/>
		<path class="st0" d="M206.5,472.4c4.6,9,0,18.1-1.2,26.7c-2.4,17.8-4.1,35.6-4.7,53.5c-0.5,14.7-0.6,29.5-3.4,44.1
			c-1,4.9-0.7,10.1-0.8,15.1c-0.1,3.8,1.2,6.9,5,8.7c1.6,0.8,2.9,2.3,4.4,3.5"/>
		<path class="st0" d="M289.6,269.4c-4.3,2.6-8.7,5.3-13,7.9"/>
		<path class="st0" d="M285.3,626.3c2.4,1.2,4.8,2.4,7.2,3.6"/>
		<path class="st0" d="M278.1,273.7c-1.9,0.2-3.9,0.5-5.8,0.7"/>
		<path class="st0" d="M263.6,471.7c-5.5,0.2-11.1,0.5-16.6,0.7"/>
	</g>
</g>
</svg>
