<?xml version="1.0" encoding="utf-8"?>
<!-- Generator: Adobe Illustrator 22.0.1, SVG Export Plug-In . SVG Version: 6.00 Build 0)  -->
<svg version="1.1" id="Capa_1" xmlns="http://www.w3.org/2000/svg" xmlns:xlink="http://www.w3.org/1999/xlink" x="0px" y="0px"
	 viewBox="0 0 500 800" style="enable-background:new 0 0 500 800;" xml:space="preserve">
<style type="text/css">
	.st0{fill:none;stroke:#000000;stroke-width:2;stroke-linecap:round;stroke-linejoin:round;stroke-miterlimit:10;}
</style>
<g>
	<path class="st0" d="M414.2,186.9c0,78.1,55.3,142.7-24.6,194.1"/>
	<path class="st0" d="M25,178.4c22.8-77.2,133.5,66,137.3,66.3"/>
	<path class="st0" d="M400,228.6c-33,18.9-54.2,109.2-92,133c-56.7,35.8-71.4-14.7-80.4-68.6"/>
	<path class="st0" d="M86.6,259.9c19.9,27.7,61.1,54.1,86.2,75.8"/>
	<path class="st0" d="M145.3,517.4c-5.8-12.4-11.7-24.8-17.5-37.2c-34.9,12.4-37.1,53.9-24,80.1c4.1-3.6,8.1-7.2,12.2-10.7"/>
	<path class="st0" d="M247.6,178.4c-1.5-8.5-4.5-55.7-13.2-56.8c-10.5,22.4-6.2,55.6-0.1,78.6"/>
	<path class="st0" d="M106.5,364c10.9-23.5,96.8,72.7,99.4,75.8"/>
	<path class="st0" d="M249.4,460.6c-39.1,24-3,37.8-31.3,72"/>
	<path class="st0" d="M307.2,230.5c38.3,0-39-29.9-44.5-31.3"/>
	<path class="st0" d="M330.9,326.2c7.2,1.9,60.5,71.1,61.6,75.8"/>
	<path class="st0" d="M171.8,217.3c-16.8,18.5,35.2,144.6,53,171.4"/>
	<path class="st0" d="M209.7,439.8c-34.6,17.9-89.8,104.1-72.9,140.2"/>
	<path class="st0" d="M117.8,508c-13.5,7.2,17.9,75.6,11.4,55.9"/>
	<path class="st0" d="M61,238.1c23.8,1,46.6,5.3,66.3,19.9"/>
	<path class="st0" d="M293,346c14.2,8.7,21.6-25.6-5.6-10.3c4.7,2.8,9.4,5.6,14.1,8.5"/>
	<path class="st0" d="M278.8,463.5c-9.4,14.3-64.8,52.2-34.1,86.2"/>
	<path class="st0" d="M100.8,300.6c-6.2,16.6,43.1,34.4,39.8,33.1"/>
	<path class="st0" d="M398.1,221c28.1,22.3-38.7,110.3-54,121.2"/>
	<path class="st0" d="M201.2,169c-37.2,0-45,43.8-6.6,50.2"/>
	<path class="st0" d="M288.3,513.7c-15.1,10.2-31.2,15-48.3,14.2"/>
	<path class="st0" d="M365.9,475.8c-0.5,18.7-30.6,95.8-44.8,103.8c-16.1,9.1-21.6-22.8-32.8,0.4"/>
	<path class="st0" d="M218.7,448.3c-15.2,30.4,12.7,37-12.8,60.6"/>
	<path class="st0" d="M235.2,234.3c-11.6,14.8-3.2,27.7,5.7,45.5"/>
	<path class="st0" d="M380.1,436c14.3,11.9,24,27.2,32.2,43.6"/>
	<path class="st0" d="M412.3,154.8c2.5,17.9-1.6,32.1-12.3,42.6"/>
	<path class="st0" d="M225.8,292.1c10-3.3,39.2,25.4,45.5,30.3"/>
	<path class="st0" d="M206.8,409.5c-13.7-4-27.6-7.2-41.7-9.5"/>
	<path class="st0" d="M235.2,537.3c-21.6,9.5-39.6,24.1-54,43.6"/>
	<path class="st0" d="M252.3,161.4c-1.9,24.8,8,109.1-9.5,119.3"/>
	<path class="st0" d="M366.9,488.1c17.7-50.6-30.2-31.8-66.3-28.4"/>
	<path class="st0" d="M347,261.8c28.8,14.5-12.9,26.4-24.6,24.6"/>
	<path class="st0" d="M223.9,414.2c7,13.8,17.5,23.6,31.2,29.4"/>
	<path class="st0" d="M286.4,407.6c-19.1,30.5-14.4,24.8-33.1,39.8"/>
	<path class="st0" d="M192.6,476.7c-11.7,19.3-23.4,38.5-35,57.8"/>
	<path class="st0" d="M89.4,314.8c-7.2,21.4,37.7,47.4,47.3,49.2"/>
	<path class="st0" d="M26.9,235.2c30.2,0,82.1,29.4,72,62.5"/>
	<path class="st0" d="M386.8,300.6c11.1,3,22.9,4.5,32.2,12.3"/>
	<path class="st0" d="M267.4,214.4c-7.6,5.1-7,11.7,1.8,19.9c16.6-6.8,16.7-13.5,0.1-19.9"/>
	<path class="st0" d="M364,166.1c-14.2,2.9-25.4,10.3-33.1,22.7"/>
	<path class="st0" d="M366.9,320.5c10.6,3.3,21,7.1,31.2,11.4"/>
	<path class="st0" d="M297.7,163.3c-7.3,10.1-14.5,20.2-21.8,30.3"/>
	<path class="st0" d="M314.8,518.4c-1.3,30.5,6,27.9-5.7,57.8"/>
	<path class="st0" d="M357.4,342.3c9.8,2.8,19.6,5.7,29.4,8.5"/>
	<path class="st0" d="M231.5,204c-25.4,9-32.4,21.6-20.8,37.9"/>
	<path class="st0" d="M360.2,405.7c-28.2-29.7-11-19.6-37.9-24.6"/>
	<path class="st0" d="M184.1,456.8c-9.7-0.6-20.3-4-26.5,7.6"/>
	<path class="st0" d="M401.9,415.2c13.4,13.8,20.6,30.8,21.8,51.1"/>
	<path class="st0" d="M290.2,294c4.1,8.8,8.2,17.7,12.3,26.5"/>
	<path class="st0" d="M258,117.8c5.2,8.3,3.4,17.6,3.8,26.5"/>
	<path class="st0" d="M351.7,404.8c8.2,8.8,16.4,17.7,24.6,26.5"/>
	<path class="st0" d="M322.4,220.1c11,5.2,15.1,13.8,12.3,25.6"/>
	<path class="st0" d="M310.1,367.8c18.9,8.3,25.4,19.8,39.8,35"/>
	<path class="st0" d="M314.8,581.8c1.6,11.4,3.2,22.7,4.7,34.1"/>
	<path class="st0" d="M257,125.4c-3.8,10.4-7.4,20.8-4.7,32.2"/>
	<path class="st0" d="M308.2,294.9c11.1,2.9,19.8,9.9,28.4,17"/>
	<path class="st0" d="M285.4,226.7c4.8,11.7,11.8,12.9,20.8,3.8c-5.3-8.8-12.2-10.4-20.8-4.7"/>
	<path class="st0" d="M322.4,415.2c-6.3-6.9-12.6-13.9-18.9-20.8"/>
	<path class="st0" d="M256.1,318.6c-9.7-7.8-16.9-4.3-21.8,10.4"/>
	<path class="st0" d="M204,141.5c-10.3,0.7-20.6,1.4-31,2.1c3.4,8.1,6.8,16.3,10.1,24.4"/>
	<path class="st0" d="M295.8,129.2c-11,14.4-19.2,30.2-24.6,47.3"/>
	<path class="st0" d="M273.1,286.4c-3.5,7.6-6.9,15.2-10.4,22.7"/>
	<path class="st0" d="M416.1,146.2c-0.8,31.5-7.8,47.7-14.2,76.7"/>
	<path class="st0" d="M348.9,186.9c-5.7,6.3-11.4,12.6-17,18.9"/>
	<path class="st0" d="M302.5,288.3c-7.3-2.5-14.5-5.1-21.8-7.6"/>
	<path class="st0" d="M349.8,412.3c-13.7,9.6-87.2,6.6-79.5,43.6"/>
	<path class="st0" d="M272.2,327.1c1.9,7.3,3.8,14.5,5.7,21.8"/>
	<path class="st0" d="M401,411.4c-4.9,9.9-12.5,17.2-22.7,21.8"/>
	<path class="st0" d="M248.5,343.2c-22.8,34.2,60.3-8.7,23.7,9.5"/>
	<path class="st0" d="M311,231.5c-2,16.2,0,31.9-9.5,45.5"/>
	<path class="st0" d="M199.3,171.8c3.5,53.5,5,23.5-5.7,60.6"/>
	<path class="st0" d="M297.7,360.2c-10.3,5.4-21,9.5-32.2,12.3"/>
	<path class="st0" d="M348.9,519.3c-4.7,6.6-9.5,13.3-14.2,19.9"/>
	<path class="st0" d="M209.7,245.7c1.2,12.5,5.6,23.2,13.3,32.2"/>
	<path class="st0" d="M297.7,254.2c5.7,16.5-38.4,22.3-38.4-10.5c6.8,4.1,13.6,8.3,20.4,12.4"/>
	<path class="st0" d="M303.4,456.8c-7.9,6-16.6,7.6-26.2,4.5c7.7-7,9.8-14.8,6.3-23.5"/>
	<path class="st0" d="M227.7,407.6c-17-11.4-25.2,29.6-8.8,40c15.6-17.6,7.2,1,22-8.8"/>
	<path class="st0" d="M282.6,288.3c-1.9,10.7-3.8,21.5-5.7,32.2"/>
	<path class="st0" d="M413.3,481.5c-5.7,2.5-11.4,5.1-17,7.6"/>
	<path class="st0" d="M329,190.7c-2.7,8.7-8,12.8-16.1,12.3"/>
	<path class="st0" d="M391.5,284.5c11.1-0.1,21.5,2.4,31.2,7.6"/>
	<path class="st0" d="M229.6,237.1c-36.7,11.2-16.2-3.8-41.7-3.8"/>
	<path class="st0" d="M195.5,146.2c21.1,6.3,23.6,13.5,7.6,21.8"/>
	<path class="st0" d="M222.9,544.9c-2.5,5.7-5.1,11.4-7.6,17"/>
	<path class="st0" d="M311,372.6c8.8,8.5,17.7,17,26.5,25.6"/>
	<path class="st0" d="M229.6,290.2c0.1-9.6-3.1-17.8-9.5-24.6"/>
	<path class="st0" d="M138.7,580.9c4.4,4.4,8.8,8.8,13.3,13.3"/>
	<path class="st0" d="M316.7,504.2c28.3,0-30.2,34.5-5.7,30.3"/>
	<path class="st0" d="M231.5,439.8c0.5-8.1-4.7-10.1-11.4-10.4"/>
	<path class="st0" d="M262.7,285.4c-3.5,5.4-6.9,10.7-10.4,16.1"/>
	<path class="st0" d="M295.8,293c10.9-2.5,17.9,3.5,20.8,18"/>
	<path class="st0" d="M319.5,317.6c-17,4.1-50.4-1-57.8,18"/>
	<path class="st0" d="M178.4,314.8c5.4,2.8,10.7,5.7,16.1,8.5"/>
	<path class="st0" d="M323.3,132c-4.7,4.1-9.5,8.2-14.2,12.3"/>
	<path class="st0" d="M299.6,383.9c5.7,14.3,3.2,28.1-7.6,41.7"/>
	<path class="st0" d="M369.7,413.3c4.1,4.1,8.2,8.2,12.3,12.3"/>
	<path class="st0" d="M428.4,472c-4.4,2.8-8.8,5.7-13.3,8.5"/>
	<path class="st0" d="M249.4,198.3c-5.4,1.6-10.7,3.2-16.1,4.7"/>
	<path class="st0" d="M305.3,607.4c-0.7,6.4,1.7,10.2,8.5,10.4"/>
	<path class="st0" d="M336.6,245.7c16.2,6.6,17.8,12.2,4.7,17"/>
	<path class="st0" d="M262.7,339.4c13.6,8.4,14.5,14.8,2.8,18.9"/>
	<path class="st0" d="M235.2,335.6c4.7,1.9,9.5,3.8,14.2,5.7"/>
	<path class="st0" d="M225.8,401.9c0,1.3,0,2.5,0,3.8"/>
	<path class="st0" d="M329.9,310.1c-10.1,3.8-12.9,10.7-8.5,20.8"/>
	<path class="st0" d="M312.9,598.9c0.3,5.7,0.6,11.4,0.9,17"/>
	<path class="st0" d="M233.3,443.6c3.5,8.2,0.4,17.8-7.6,6.6"/>
	<path class="st0" d="M240.9,281.6c-3.8,0.9-7.6,1.9-11.4,2.8"/>
	<path class="st0" d="M297.7,584.7c-14.4,10.7-2.9,17.2,0,10.4"/>
	<path class="st0" d="M311,276.9c-1.1,5.5-10.6,7.4-6.6,15.2"/>
	<path class="st0" d="M261.8,337.5c-6.6-7-8.9,0.3-12.3,3.8"/>
	<path class="st0" d="M298.7,410.4c3.8,1.9,7.6,3.8,11.4,5.7"/>
	<path class="st0" d="M269.3,251.3c-1.3,3.8-2.5,7.6-3.8,11.4"/>
	<path class="st0" d="M276.9,370.7c2.5,2.8,5.1,5.7,7.6,8.5"/>
	<path class="st0" d="M259.9,338.5c-1.2,5.3-4.3,6.3-9.5,2.8"/>
	<path class="st0" d="M276.9,459.7c-7-3.3-34.2-4.9-16.1,6.6"/>
	<path class="st0" d="M199.3,343.2c-3.2,0-6.3,0-9.5,0"/>
	<path class="st0" d="M325.2,130.1c12-4.7,12.9-1.9,2.8,8.5"/>
	<path class="st0" d="M253.2,454c-8.6-9.1-8-6.9,1.9,6.6"/>
	<path class="st0" d="M313.8,584.7c-4.3,3.8-4,5.7,0.9,5.7"/>
	<path class="st0" d="M249.4,278.8c13.8,4.4,5.6-5.1,2.8-4.7"/>
	<path class="st0" d="M400,204c-1.3,7.9-2.5,15.8-3.8,23.7"/>
	<path class="st0" d="M295.8,256.1c-12.2-5-18.2-1.8-18,9.5"/>
	<path class="st0" d="M256.1,450.2c0.9,2.5,1.9,5.1,2.8,7.6"/>
	<path class="st0" d="M176.5,337.5c2.5,1.3,5.1,2.5,7.6,3.8"/>
	<path class="st0" d="M314.8,170.9c-1.9,2.5-3.8,5.1-5.7,7.6"/>
	<path class="st0" d="M360.2,133c-1.3,2.5-2.5,5.1-3.8,7.6"/>
	<path class="st0" d="M290.2,141.5c-0.9,1.9-1.9,3.8-2.8,5.7"/>
	<path class="st0" d="M362.1,131.1c-3.2,0.6-6.3,1.3-9.5,1.9"/>
	<path class="st0" d="M268.4,460.6c-0.9,2.2-1.9,4.4-2.8,6.6"/>
	<path class="st0" d="M350.8,148.1c-1.3,1.9-2.5,3.8-3.8,5.7"/>
	<path class="st0" d="M197.4,447.4c-0.6,1.9-1.3,3.8-1.9,5.7"/>
	<path class="st0" d="M305.3,508c-1.9,0.6-3.8,1.3-5.7,1.9"/>
	<path class="st0" d="M150,337.5c-1.9-0.6-3.8-1.3-5.7-1.9"/>
	<path class="st0" d="M267.4,186c-0.3,1.6-0.6,3.2-0.9,4.7"/>
	<path class="st0" d="M301.5,184.1c-3.2,3.3-3.4,11.2-11.4,7.6"/>
	<path class="st0" d="M307.2,150c-1.3,1.3-2.5,2.5-3.8,3.8"/>
	<path class="st0" d="M335.6,146.2c-0.6,1.3-1.3,2.5-1.9,3.8"/>
	<path class="st0" d="M169,305.3c1.3,1.3,2.5,2.5,3.8,3.8"/>
	<path class="st0" d="M262.7,444.5c0.6,1.3,1.3,2.5,1.9,3.8"/>
	<path class="st0" d="M144.3,365.9c1.3,0.6,2.5,1.3,3.8,1.9"/>
	<path class="st0" d="M101.7,296.8c-0.6,0.6-1.3,1.3-1.9,1.9"/>
	<path class="st0" d="M168,394.3c1.3,1.2,1.3,2.1,0,2.8"/>
</g>
</svg>
