<?xml version="1.0" encoding="utf-8"?>
<!-- Generator: Adobe Illustrator 24.0.1, SVG Export Plug-In . SVG Version: 6.00 Build 0)  -->
<svg version="1.1" id="Capa_1" xmlns="http://www.w3.org/2000/svg" xmlns:xlink="http://www.w3.org/1999/xlink" x="0px" y="0px"
	 viewBox="0 0 220.67 312.33" style="enable-background:new 0 0 220.67 312.33;" xml:space="preserve">
<style type="text/css">
	.st0{fill:#FBCF49;stroke:#FFFFFF;stroke-width:0.25;stroke-miterlimit:10;}
	.st1{fill:#CAB9DC;stroke:#FFFFFF;stroke-width:0.25;stroke-miterlimit:10;}
	.st2{fill:#020203;}
	.st3{font-family:'Roboto-Medium';}
	.st4{font-size:10.3291px;}
	.st5{fill:#60BAE9;}
</style>
<path class="st0" d="M61.11,287.12c-2.69,0.38-2.62-5.13-2.26-6.27c0.46-1.46-2.79-0.69-3.77-1.16c-0.98-0.47,0.34-1.45-0.76-2.65
	c-1.11-1.2-0.28-2.9-0.17-3.75c0.06-0.46,3.16-5.08,3.8-5.5c1.32-0.87-1.24-2.29-0.16-3.14c1.08-0.86-0.03-2.42,1.66-2.69
	c1.69-0.27-0.03-2.42,1.17-2.8c1.21-0.38-0.26-1.69,0.08-3.15c0.34-1.46-1-2.53,0.57-3.15c1.57-0.63,0.46-1.83-0.64-2.66
	c-1.2-0.91,2.16-0.68,2.26-1.43c-0.01-0.87-0.45-1.28-1.33-1.25c-1.43,0.45-2.31-0.94-1.24-2.05c0.24-0.25-0.67-4.48-1.03-4.71
	c-0.73-0.47-0.29-4.11,0.55-4.24c1.87-0.29-0.81-6.29-0.7-7.14c0.12-0.9,1.23-5.2,2.11-5.36c0.73-0.13,0.09-2.06,0.2-3.03
	c0.11-0.97,2.06-0.03,2.28-1.6c0.22-1.58-1.23-1.32-1-2.29c1.08-4.61-0.93-6.1,2.79-9.36c0.84-0.74-1.15-4.59-0.07-5.08
	c1.08-0.5,0.33-2.31,1.17-2.92c0.84-0.62,0.58-1.94,1.05-3.4c0.46-1.43-1.56-6.39-2.4-7.47c-1-1.31-0.35-6.97,1.6-7.53
	c1.33-0.38,0.57-2.43-0.05-4.12c-0.27-0.73,2.23-5.57,2.83-5.85c1-0.46,2.27-4.24,3.56-5.37c0.84-0.74-1.48-1.92-0.16-2.67
	c1.32-0.74-1.14-3.74-0.42-4.35c0.72-0.61,0.1-1.94,0.21-2.91c0.11-0.97,4.08-2.84,4.55-3.69c0.35-0.62,0.67-2.8,0.76-4.73
	c-1.24,0.83-2.32,1.28-2.52,0.82c-0.37-0.83,0.08-3.34-1.01-4.4c-1.09-1.06-0.4-3.22-1.48-3.68c-1.08-0.47-2.42-2.6-1.47-3.32
	c0.95-0.73-0.03-2.15,0.8-2.87c0.83-0.73-0.49-0.82-1.7-2.24c-1.21-1.42,0.43-3.23-1.01-4.28c-1.45-1.06-1.46-2.37-1.81-1.77
	c-0.35,0.6-0.44,2.63-1.63,3.24c-0.19,0.1-0.5,0.33-0.87,0.65c0.02,0.99-0.31,2.66,0.09,3.63c0.55,1.34,0.91,7.86,0.4,10.37
	c-0.5,2.51-1.01,4.57-1.53,6.1c-0.52,1.53,1.27,1.59,0.57,2.32c-1.06,1.09-1.97,12.89-2.05,14.61c-0.07,1.52-1.22,2.52-1.02,4.22
	c0.2,1.69-0.77,2.69-1.74,3.51c-0.97,0.82,1.65,3.38,1.58,4.81c-0.07,1.43-1.94,2.08-1.46,4.4c0.82,3.97-1.29,8.16-0.74,11.64
	c0.29,1.87-1.13,2.34-1.37,5.03c-0.23,2.69-2.24,6.56-3.02,8.62c-0.85,2.26-3.44,3.83-2.33,6.2c0.83,1.78-0.49,3.32,0.6,5.09
	c1.1,1.78,0.75,2.41,0.23,4.11c-0.69,2.29-2.72,5.67-1.68,8.16c0.75,1.8-1.71,4.41-1.97,6.83c-0.32,2.96-0.23,2.87,1.91,2.66
	c2.52-0.24-0.14-7.87,3.2-8.81c1.34-0.38,0.2,1.25,1.09,1.51c0.9,0.26,1.53,0.97,0.29,1.79c-1.24,0.82,0.3,2.41-0.31,3.41
	c-0.61,0.99-1.49,2.07-0.94,3.23c0.55,1.16-0.61,1.08-0.68,2.61c-0.07,1.52,0.83,1.6,0.2,1.96c-0.62,0.37,0.82,1.51-0.07,1.7
	c1.59-0.34-1.48,3.31-1.83,3.6c-0.88,0.73,0.92,1.69,0.39,2.68c-0.52,0.99-1.97-0.51-2.61-1.04c-0.63-0.53,0.96-1.62,1.75-2.71
	c0.79-1.08-0.85-3.48-2.19-2.93c2.09-0.87-0.6,5.97-0.75,4.22c0.11,1.25-1.51,0.82-2.3,1.73c-0.79,0.9,1.1,1.68,0.2,1.96
	c-0.89,0.28-2.39,1.55-2.47,2.45c-0.17,1.98,1.95-2.15,2.86,0.14c-0.38-0.95,5.37,2.59,2.71,2.29c-0.72-0.08-1.42,1.18-1.22,2.52
	c0.2,1.34,2.68-0.03,3.76,0.31c1.08,0.34,0.74,2.23,0.11,1.61c-0.63-0.62-2.08-1.67-2.69-0.59c-0.61,1.08-1.6,0.56-2.41,0.21
	c-0.81-0.35-3.65,1.57-2.65,2.27c0.99,0.7,0.92,1.87,1.54,1.77c0.63-0.1,1.6-0.56,1.95-1.28c0.35-0.72,1.59-1.45,1.7,0.16
	c0.11,1.61-1.69,0.83-2.04,1.73c-0.35,0.9-1.05,1.62-2.11,2.44c-1.06,0.82,0.03,2.15,0.92,1.69c0.89-0.46-0.25,1.08,1,1.24
	c1.16,0.15,1.51-0.74,1.23-1.62c-0.14-0.8,0.09-1.48,0.7-2.04c2.48-1.62-1.16,7.64-1.16,7.59c0.1,1.07-2.5,0.39-1.33,1.09
	c1.17,0.7-0.69,1.71-0.06,2.42c0.64,0.71,1.15-1,2.14-0.65c0.99,0.35,0.81,0.62,2.06,0.06c0.78-0.28,1.24-0.05,1.4,0.7
	c-0.01,0.19-3.01,2.35-2.43,2.54c0.54,0.17,2.05-0.92,2.42,0.24c0.37,1.16,1.26,0.79,1.34-0.46c0.07-1.26,2.23-0.21,2.61,0.86
	c0.37,1.07-2.21,1.73-3.56,1.48c-1.34-0.25-2.04,1.28-1.13,2.43c0.91,1.15,1.97-0.03,2.94-1.02c0.97-1,5.8-0.79,6.18,0.28
	c0.37,1.07-2.23,0.21-2.49,0.84c-0.26,0.63-2.22,1.19-2.5,0.48c-0.28-0.71-2.14,0.29-2.22,1.46c-0.07,1.16-1.5,1.18,0.11,1.61
	c1.62,0.43,1.14-1.72,3.65-1.57c2.51,0.14,3.82-2.38,4.55-0.96c0.73,1.42-2.02,2.62-3.02,1.74c-0.99-0.88-2.14,0.65-2.03,1.99
	c0.11,1.34-2.87-0.32-4.3-0.48c-1.43-0.16-0.79,1.35,0.48,2.68c1.27,1.33,1.96-0.2,3.5,0.76c1.53,0.96,1.55,2.03,2.61,1.04
	c1.06-1-0.01-0.9-0.73-1.33c-0.72-0.44-0.11-1.97,1.59-1.18c1.71,0.78,3.66-0.76,3.09-2.9c-0.56-2.14,1.48-3.15,3.53-3.89
	c2.05-0.74,1,1.33-0.51,1.98c-1.51,0.64-1.77,1.1-0.6,2.33c1.18,1.24,2.67-0.84,3.67,0.13c1,0.97-1.78,0.83-2.21,1.82
	c-0.43,0.99,1.73,2.12,0.22,2.86c-1.51,0.74-0.84-2.94-1.74-3.29c-0.9-0.35-1.69,0.47-0.77,2.52c0.92,2.05-1.07,0.28-1.98-0.69
	c-0.91-0.97-2.14,0.47-1.05,1.53c0.42,0.41-2.05,0.82-2.04,1.64c0.02,1.48,2.2,0.43,2.96,0.59c1.61,0.34,0.93,2.67,2.1,3.55
	c1.17,0.88,0.14-2.87,1.39-3.15c1.25-0.29,0.13,2.86,2.91,3.72c2.78,0.86,0.17-0.54,1.41-1.45c1.24-0.91,2.9,2.65,4.24,2.99
	c1.35,0.34,0.43-1.62-0.57-2.68c-1-1.06,0.98-0.46,2.33-0.03c1.35,0.43,2.42,0.6,2.68-0.39c0.09-0.37,0.35-0.37,0.67-0.27
	c-1.41-0.9-6.15-0.17-6.8-0.27c-0.64-0.1-0.29-10.83-0.2-13.29c-0.89-0.19-4.11,0.55-3.62-1.52c0.08-0.31,0.24-0.5,0.46-0.6
	c-0.54-0.47-1.29-1-2.19-1.23C66.43,286.45,62.07,286.99,61.11,287.12z"/>
<g>
	<path class="st1" d="M117.95,31.29c0.59,1.15-0.7,1.75-1.86,1.91c-1.16,0.16-0.83,2.76-1.55,3.5c-0.71,0.73,2.79,2.57,3.39,4.16
		c0.36,0.94,1.54,2.98,2.44,4.5c0.8,0.2,1.57,0.37,2.03,0.1c1.08-0.62,0.09-2.66,1.66-2.56c1.57,0.1,3.86-0.9,4.48,0.06
		c0.11,0.17,0.25,0.35,0.4,0.51c0.5-0.77,1.03-1.61,1.17-1.9c0.28-0.59,0.24-3.63-0.51-5.36c-0.75-1.73-0.2-4.06,0.66-4.79
		c0.19-0.15,0.45-0.94,0.76-2.08c-1.45-0.55-2.84-1.03-4.04-0.87c-2.14,0.3-4.37,1.31-5.19,0.16c-0.82-1.15-1.98-0.96-3.04-0.05
		c-0.12,0.11-0.26,0.14-0.4,0.12C118.01,29.76,117.65,30.71,117.95,31.29z"/>
	<path class="st1" d="M105.5,20.73c-1.01,0.6-2.43,2.21-1.41,2.77c2.76,1.54-2.7,2.22-2.41,4.09c0.16,1.01-1.29,1.46-0.41,2.18
		c0.58,0.47,1.88,2.14,2.69,3.22c0.28-0.53,0.64-0.98,1.44-0.87c1.7,0.22,0.4,2.78,1.74,3.37c1.34,0.59,1.37,2.65,0.41,3.39
		c-0.96,0.74-1.27,4.74,0.94,7.13c2.21,2.4,3.9,2.01,4.38,1.4c0.48-0.61,2.18-0.03,2.65-1c0.47-0.98,1.09,0.11,2.05-1
		c0.55-0.63,1.72-0.31,2.82-0.04c-0.91-1.51-2.09-3.56-2.44-4.5c-0.6-1.59-4.1-3.43-3.39-4.16c0.72-0.74,0.39-3.34,1.55-3.5
		c1.16-0.16,2.45-0.76,1.86-1.91c-0.3-0.58,0.06-1.54,0.41-2.58c-2.41-0.22-8.32-7.29-9.91-9.03c-0.37-0.4-0.89-0.69-1.5-0.9
		C106.46,19.76,105.91,20.49,105.5,20.73z"/>
	<path class="st1" d="M129.61,36.21c0.75,1.73,0.79,4.77,0.51,5.36c-0.14,0.29-0.67,1.13-1.17,1.9c0.67,0.74,1.74,1.26,3.61,0.65
		c2.29-0.76,3.4,0.68,4.21-1.87c0.64-1.99,2.95-4.73,4.69-6.49c-0.02-0.01-0.04-0.03-0.06-0.04c-1.71-0.69-4.36-4.78-6.96-5.28
		c-1.13-0.22-2.29-0.67-3.4-1.1c-0.31,1.13-0.58,1.92-0.76,2.08C129.41,32.16,128.86,34.49,129.61,36.21z"/>
	<path class="st1" d="M84.72,301.16c-2.24-0.06-6.67-4.12-8.03-5.17c-1.36-1.06-0.39-2.14-1.99-1.86c-1.61,0.29-0.55-1.24,0.34-1.7
		c0.82-0.42-0.35-1.94-1.44-2.17c-0.09,2.4-0.45,13.19,0.2,13.29c0.66,0.1,5.39-0.63,6.8,0.27c0.54,0.16,1.28,0.59,1.84-0.03
		c0.88-0.99,3.57-0.49,4.99-1.4C88.84,301.47,86.96,301.22,84.72,301.16z M132.45,159.29c-0.41-0.2-1.65-0.19-2.66-0.14
		c0,0.15,0,0.29,0.02,0.41c0.26,1.69-0.77,6.06-1.98,5.96c-1.21-0.11-2.16,1.84-3.13,1.62c-0.97-0.23-2.28,1.48-3.5,0.77
		c-1.22-0.71-2.9,0.28-3.88-0.31c-0.26-0.16-3.76-0.29-3.77-0.8c-0.02-1.56,4.87-7.33,4.37-8.17c-0.5-0.84-6.69-2.58-7.55-3.66
		c-0.86-1.08-2.08-2.03-4.51-2.24c-2.42-0.21-2.32-1.42-4.52-2.72c-1.83-1.09-4.7-4.02-5.68-5.66c-1.47-0.14-3.57-0.42-3.98,0.09
		c-0.59,0.72-1.5,4.07-2.35,2.41c-0.86-1.66-2.88-1.63-4.68-1.85c-1.79-0.22-1.69-1.89-3.58,0.16c-0.84,0.91-1.93,1.82-2.92,2.48
		c-0.09,1.93-0.42,4.1-0.76,4.73c-0.47,0.85-4.45,2.72-4.55,3.69c-0.11,0.97,0.51,2.3-0.21,2.91c-0.72,0.61,1.74,3.61,0.42,4.35
		c-1.32,0.74,0.99,1.93,0.16,2.67c-1.29,1.13-2.56,4.91-3.56,5.37c-0.74,0.34-3.15,5-2.83,5.85c0.63,1.69,1.38,3.74,0.05,4.12
		c-2.03,0.59-2.49,6.37-1.6,7.53c0.84,1.08,2.85,6.04,2.4,7.47c-0.47,1.46-0.21,2.79-1.05,3.4c-0.84,0.62-0.09,2.43-1.17,2.92
		c-1.08,0.5,0.9,4.35,0.07,5.08c-3.88,3.41-1.71,4.79-2.79,9.36c-0.23,0.97,1.22,0.71,1,2.29c-0.22,1.57-2.17,0.63-2.28,1.6
		c-0.11,0.97,0.52,2.9-0.2,3.03c-0.88,0.16-1.99,4.46-2.11,5.36c-0.08,0.6,2.39,6.87,0.7,7.14c-0.85,0.13-1.28,3.77-0.55,4.24
		c0.31,0.2,1.34,4.39,1.03,4.71c-1.08,1.11-0.19,2.49,1.24,2.05c0.87-0.03,1.31,0.38,1.33,1.25c-0.1,0.75-3.46,0.52-2.26,1.43
		c1.1,0.83,2.21,2.03,0.64,2.66c-1.57,0.63-0.22,1.7-0.57,3.15c-0.34,1.46,1.13,2.77-0.08,3.15c-1.21,0.38,0.52,2.53-1.17,2.8
		c-1.69,0.27-0.58,1.83-1.66,2.69c-1.08,0.86,1.48,2.28,0.16,3.14c-0.54,0.36-3.74,4.99-3.8,5.5c-0.11,0.85-0.94,2.55,0.17,3.75
		c1.11,1.2-0.22,2.18,0.76,2.65c0.97,0.47,4.23-0.29,3.77,1.16c-0.35,1.08-0.4,6.65,2.26,6.27c0.97-0.13,5.32-0.67,7.14-0.21
		c0.9,0.22,1.66,0.75,2.19,1.23c1.03-0.47,3.32,0.98,3.83,0.46c0.62-0.64-2.27-2.92-2.19-3.73c0.19-1.93-1.85-5.24,0.27-6.8
		c1.24-0.91,1.32-1.81,2.12-1.64c0.81,0.17,2.41-0.75,2.47-2.9c0.06-2.15,1.04-2.97,2.8-4.51c1.93-1.68,5.15-3.28,4.69-3.99
		c-0.82-1.28,1.38-3.01,0.25-4.24c-0.73-0.79-2.71-0.41-3.62-0.73c-0.99-0.35-4.6-2.8-2.85-6.14c1.75-3.33,5.5-3.74,6.57-3.84
		c1.07-0.1,0.07-1.61,0.96-2.16c1.98-1.22-0.17-6.58,2.59-6.92c1.61-0.2,2.04-1.1,1.06-1.36c-0.99-0.26-1.45-1.41,0.16-1.61
		c-0.53,0.07,8.39,1.57,3.82-1.84c-1.54-1.14-1.96,0.56-2.76,0.75c-2.61,0.62-2.41-2.98-2.92-4.08c-0.37-0.8-0.93-2.76-0.23-3.75
		c0.7-0.99,3.78,1.47,6.46,1.61c6.76,0.37,2.05-4.26,4.93-6.24c1.6-1.09,0.25-1.43-0.22-2.86c-0.72-2.19,10.35-2.08,11.78-2.39
		c5.91-1.28,8.36-4.09,11.24-9.18c1.61-2.84-5.45-2.54-2.5-6.14c0.97-1.17-0.57-2.23-2.27-2.38c-1.7-0.16-4.4-1.29-2.9-2.74
		c0.72-0.7,1.09-0.56,1.44-0.25c0.25-0.69,0.48-1.5,0.28-1.7c-0.37-0.36-1.27,0.11-1.21-2.43c0.06-2.54,0.97-2.01,1.02-5.27
		c0.1-6.54,2.95-8.39,5.99-13.49c1.69-2.84,5.36-6.42,6.88-7.44c1.53-1.02,4.51-1.87,4.86-2.78
		C133.6,164.53,133.18,159.64,132.45,159.29z"/>
	<path class="st1" d="M67.96,125.89c0.05-0.09,0.09-0.13,0.13-0.14c-0.11-0.73-0.11-1.4,0.32-1.66c1.43-0.85,2.29-7.92,1.44-8.61
		c-0.72-0.59,1.04-2.4,0.91-3.35c-0.13-0.95-0.9-5.23-0.43-5.72c0.47-0.49,1.54-0.86,1.05-2.16c-0.39-1.03-2.13-3.89-2.85-5.64
		c-1.33-0.17-2.95-0.12-3.89,0.24c-1.75,0.66-0.41-5.77-1.39-6.06c-0.7,0.11-1.17,0.51-1.42,1.21c-1.74,4.06-5.89-1.65-6.46-1.58
		c-1.19,0.13-2.15-0.33-2.05-1.52c0.1-1.2-0.86-2.14-1.71-3.44c-0.85-1.3-1.82-2.6-1.12-3.45c0.71-0.84-0.5-1.54,0.56-2.63
		c1.46-1.5,2.87-3.62,3.02-6.01c0.1-1.55,1.89-1.1,3.55-2.43c1.65-1.33,3.45-0.64,4.87-1.85c1.33-1.14,2.27-0.18,3.26-0.26
		c-0.61-0.83-2.08-1.22-2.42-1.89c-0.43-0.84,1.51-2.41,2.06-3.4c0.55-0.99-2.27-2.08-2.98-2.35c-0.71-0.27-1.96,0.59-2.66,0.17
		c-0.71-0.41-1.83-0.12-2.38,0.31c-0.56,0.43-4.76,0.76-4.64-0.5c0.12-1.26-1.71-1.66-1.58-2.51c0.13-0.84-1.01-2.37-2.56-2.49
		c-1.55-0.12-1.3-2.65-2.43-3.34c-0.64-0.39-2.22-0.13-3.47,0.16c1.36,1.5,1.86,2.13,0.97,2.86c-1.17,0.96,0.01,1.12-2.19,4.13
		c-2.2,3.01-6.01,3.81-7.87,4.39c-1.86,0.58-2.56,4.05-3.55,6.48c-0.99,2.44-1.85,1.61-2.89,0.22c-1.04-1.38-1.86,0.3-3.09-0.8
		c-1.23-1.1-0.67-1.11-0.03-2.05c0.34-0.51-0.06-1.3-0.81-2.07c-1.33,0.29-2.65,2.15-3.29,3.57c-0.7,1.53,1.31,4.46,1.59,5.52
		c0.28,1.07-1.07,0.1-1.24,1.09c-0.17,0.99,2.98,2.38,4.43,3.43c1.44,1.05,2.74,4.08,4.1,5.5c1.36,1.41,1.47,2.66,2.94,6.13
		c1.48,3.47,4.42,9.34,6.42,11.82c2,2.48,2.92,4.43,2.48,5.16c-1.71,2.81,6.55,7.34,7.98,8.04c3.78,1.83,10.71,5.32,11.72,7.01
		c1.01,1.69,4.25,3.25,4.88,3.6c0.17,0.1,0.23,0.38,0.24,0.75c0.37-0.31,0.67-0.55,0.87-0.65
		C67.51,128.52,67.61,126.49,67.96,125.89z"/>
	<path class="st1" d="M136.47,193.95c2.48-1.82,1.84-2.89,2.98-5.05c1.14-2.16,0.14-3.05,2.08-4.95c1.94-1.9-0.4-3.12,2.09-4.32
		c2.49-1.19,2.16,1.05,0.14,3.67c-2.02,2.62-2.37,3.34,0.29,1.34c2.66-2,3.61-4.79,5.09-7.94c1.48-3.15,2.63-4.15,3.97-4.34
		c1.34-0.2,1.3-3.51,1.09-5.83c-0.74-8.22,1.3-7.77,6.27-12.88c1.94-1.99,3.19-2.19,5.25-2.39c2.06-0.21,0.88-0.91,2.22-1.28
		c1.34-0.38,2.21-1.64,3.1-2.46c1.34-1.24,5.24,0.29,6.71,0c2.57-0.51,2.05-0.83,3.88-2.07c0.01-0.01,3.34-2.14,3.25-2.01
		c1.18-1.69-0.04-3.9,1.97-5.44c1.06-0.82,1.22-2.61,1.56-3.78c0.93-3.18,2.37-6.5,4.09-9.27c0.61-0.99-0.57-2.23,0.38-5.01
		c1.19-3.49-2.22-11.08,0.72-13.79c0.88-0.82,0.43-1.26-0.29-1.61c-0.72-0.35,0.07-1.34,0.7-1.17c3.97,1.09,4.21-1.72,5.65-5.53
		c0.95-2.52,2.56-2.45,3.81-3c1.25-0.56,3.89-3.63,5.53-8.03c1.64-4.4-0.2-8.68-0.96-11.71c-0.76-3.03-1.73-2.39-3.52-2.28
		c-1.79,0.11-5.19-0.29-9.73-5.06c-4.95-5.21-13.38-3.91-19.84-5.29c-1.97-0.42-3.82,2.1-5.24,2.66c-1.42,0.55,0.69-2.16,0.76-3.86
		c0.07-1.7-5.42-4.04-9.56-5.6c-4.9-1.84-3.39,0.18-5.88,1.87c-0.38,0.26-2.52,1.27-2.84,2.01c-1.22,2.79-3.57,1.03-2.06,0.12
		c1.51-0.91,2.91-2.99,3.43-4.7c0.51-1.7-5.94-2.96-8.17-2.04c-2.22,0.93-0.75,4.13-2.55,3.17c-1.8-0.96-0.4-3.39,1.03-3.32
		c1.43,0.07,3-2.9,3.96-5.06c0.96-2.16-1.73-2.48-3.36-4.25c-1.61-1.75-1.35-6.91-2.99-7.71c-1.73,1.75-4.05,4.49-4.69,6.49
		c-0.81,2.56-1.92,1.12-4.21,1.87c-2.29,0.76-3.39-0.2-4.01-1.16c-0.62-0.96-2.91,0.04-4.48-0.06c-1.58-0.1-0.58,1.94-1.66,2.56
		c-1.08,0.62-3.89-1.16-4.84-0.06c-0.95,1.1-1.58,0.02-2.05,1c-0.47,0.97-2.18,0.39-2.65,1c-0.48,0.61-2.17,1-4.38-1.4
		c-2.21-2.39-1.9-6.39-0.94-7.13c0.96-0.74,0.93-2.8-0.41-3.39c-1.34-0.59-0.04-3.15-1.74-3.37c-1.7-0.22-1.43,1.96-2.51,2.33
		c-1.08,0.38-3.73,2.23-4.94,2c-2.48-0.47-2.28,2.64-3.45,2.47c-0.3-0.32-0.59-0.64-0.89-0.96c-0.26-1.09-2.79-0.45-3.53-1.17
		c-0.73-0.72-4.12-0.31-2.66,0.52c-0.07-0.04,5.12,8.62,5.39,6.74c-0.35,0.32-0.7,0.63-1.05,0.95c-1.33,0.26-1.93,1-2.27,2.21
		c-0.35,1.21-1.57,0.39-2.65,1.37c-1.08,0.98-2.03,1.96-2.77,1.49c-0.73-0.47-1.33-0.1-2.17,0.39c-0.84,0.5-1.21,0.02-2.43-0.94
		c-0.92-0.71-1.51-2.45-3.13-4.03c-1.2,0.58-9.83,1.11-10.02,1.73c-0.23,0.77,0.35,2.05,1.08,2.21c0.73,0.15,2.27,0.58,0.83,1.64
		c-5.57,4.15,1.43,3.34-0.05,8.72c-0.37,1.35-0.34,10.57-2.24,11.02c-1.07,0.25-2.04-0.93-3.45,0.28c-1.42,1.21-3.21,0.52-4.87,1.85
		c-1.65,1.33-3.45,0.88-3.55,2.43c-0.15,2.38-1.56,4.51-3.02,6.01c-1.06,1.09,0.14,1.78-0.56,2.63c-0.7,0.85,0.26,2.14,1.12,3.45
		c0.85,1.3,1.82,2.24,1.71,3.44c-0.1,1.19,0.86,1.66,2.05,1.52c0.47-0.05,4.79,5.48,6.46,1.58c0.25-0.7,0.72-1.1,1.42-1.21
		c0.73,0.22-0.11,6.63,1.39,6.06c1.3-0.49,3.93-0.41,5.25,0.05c1.32,0.46,2.62-0.03,3.45-0.88c0.82-0.84,1.78-0.86,3.44-1.83
		c0.4-0.23,9.02-3.62,8.56-2.02c-0.34,1.2-0.52,5.61,1.41,7.86c1.94,2.24,3.02,3.06,4.81,2.8c1.79-0.27,1.56,0.69,2.87,0.56
		c-0.46,0.05,4.42,1.95,3.81,1.66c0.99,0.46,5.11,1.69,5.66,2.15c0.84,0.7,1.81,1.29,1.59,2.72c-0.22,1.43,1.82,2.48,0.64,3.09
		c-1.18,0.61,0.38,1.78,0.52,3.33c0.14,1.55,1.82,2.12,4.44,1.97c2.96-0.18,4.84,3.13,5.8,5.89c0.62,1.78-0.67,3.82-0.41,5.25
		c0.2,1.1-0.45,2.27-1.19,2.76c0.93,1.16,1.02,1.68,0.2,2.15c-1.08,0.62,1.36,2.28,0.79,4.96c-0.57,2.67-0.69,3.16,2.1,3.24
		c2.79,0.09,2.56,0.93,3.52,0.32c0.96-0.62,2.45,2.02,2.83,3.35c1.78,6.2,1.74,1.92,5.38,3.68c1.36,0.66-0.27,5.23-0.29,7.22
		c1.01-0.05,2.24-0.07,2.66,0.14c0.73,0.35,1.15,5.24,0.8,6.15c-0.35,0.91-3.33,1.76-4.86,2.78c-1.53,1.02-5.2,4.6-6.88,7.44
		c-1,1.67-2.47,3.07-3.5,4.29c0.5,0.06,0.92,0.04,1.2-0.09c0.81-0.37,2.08-0.39,3.46,1.22c1.38,1.61,1.31,2.88,1.85,2.79
		c0.54-0.1,1.15-2.19,2.26-0.66c1.11,1.52,3.93,2.67,4.57,3.38c3.14,3.5,1.2,5.15,3.27,9.25
		C135.11,195.17,135.69,194.52,136.47,193.95z"/>
	<path class="st1" d="M130.08,151.93c-3.65-1.77-3.69,2.19-5.38-3.68c-0.38-1.33-1.87-3.98-2.83-3.35
		c-0.96,0.61-0.73-0.23-3.52-0.32c-2.79-0.09-2.67-0.57-2.1-3.24c0.57-2.67-1.87-4.34-0.79-4.96c0.35-0.2,0.5-0.52,0.54-0.56
		c0.35-0.41,0.03-1.66-0.12-2.18c-0.33,0.09-0.8,0.19-1.37,0.25c-1.98,0.19-3.77-0.36-6.18-0.74c-0.25-0.04-0.83-0.12-1.55,0.03
		c-0.35,0.08-0.6,0.18-0.68,0.21c-1.32,0.53-3.71,0.1-4.88,0.9c-1.42,0.97-3.18,3.02-3.05,3.85c0.13,0.84-0.4,5.97-1.11,6.22
		c-0.22,0.07-0.75,0.04-1.39-0.02c0.98,1.64,3.84,4.57,5.68,5.66c2.2,1.3,2.09,2.51,4.52,2.72c2.43,0.21,3.65,1.16,4.51,2.24
		c0.86,1.08,7.06,2.82,7.55,3.66c0.5,0.84-4.39,6.61-4.37,8.17c0.01,0.51,3.51,0.65,3.77,0.8c0.98,0.59,2.66-0.4,3.88,0.31
		c1.22,0.71,2.53-1,3.5-0.77c0.97,0.23,1.91-1.72,3.13-1.62c1.21,0.11,2.25-4.27,1.98-5.96
		C129.55,157.87,131.54,152.64,130.08,151.93z"/>
	<path class="st1" d="M42.48,54.79c-1.51-1.66-2.55-2.67-2.92-2.2c-0.37,0.47-1.95,0.68-3.08,0.04c-2.39-1.35-5.41-2.8-7.56-4.56
		c-0.01,0.2-0.02,0.39,0,0.55c0.1,0.8-1.23,1.36-2.75,1.47c-0.63,0.04-2.71,4.57-3.06,5.41c-0.52,1.26,0.2,1.52-1.05,2.16
		c-1.24,0.64-1.59,1.72-0.86,2.79c0.73,1.06-0.06,2.06-0.23,2.69c-0.17,0.63,1.09,0.88,2.35,2.03c1.27,1.15,1.43-0.47,1.97,0.42
		c0.89,1.44-1.13,2.38-2.08,2.59c0.75,0.77,1.15,1.56,0.81,2.07c-0.64,0.94-1.2,0.95,0.03,2.05c1.23,1.11,2.04-0.58,3.09,0.8
		c1.04,1.38,1.89,2.22,2.89-0.22c0.99-2.44,1.69-5.9,3.55-6.48c1.86-0.58,5.67-1.38,7.87-4.39c2.2-3.01,1.01-3.17,2.19-4.13
		C44.57,57.1,44,56.45,42.48,54.79z"/>
	<path class="st1" d="M36.49,52.63c1.13,0.64,2.71,0.43,3.08-0.04c0.37-0.47,1.41,0.54,2.92,2.2c0.07,0.08,0.12,0.14,0.19,0.21
		c1.25-0.29,2.83-0.55,3.47-0.16c1.13,0.69,0.88,3.22,2.43,3.34c1.55,0.12,2.69,1.65,2.56,2.49c-0.13,0.85,1.7,1.24,1.58,2.51
		c-0.12,1.27,4.08,0.93,4.64,0.5c0.56-0.43,1.68-0.73,2.38-0.31c0.71,0.41,1.96-0.45,2.66-0.17c0.71,0.27,3.53,1.36,2.98,2.35
		c-0.55,0.99-2.49,2.56-2.06,3.4c0.34,0.66,1.82,1.05,2.42,1.89c0.07-0.01,0.13,0,0.2-0.02c1.89-0.45,1.86-9.67,2.24-11.02
		c1.48-5.37-5.52-4.57,0.05-8.72c1.44-1.07-0.1-1.49-0.83-1.64c-0.73-0.15-1.31-1.44-1.08-2.21c0.62-2.05,9.99,1.12,10.58-2.07
		c0.04-0.2,0.35-1.21-0.75-2.05c-1.1-0.83-0.71-2.05,0.12-3.03c0.83-0.98-0.55-1.93-1.61-3.09c-1.06-1.16-0.31-5.4,0.87-7.39
		c1.18-1.99-2.48-1.5-4.74-1.19c-2.25,0.31-4.2-0.55-5.68-2.38c-1.48-1.84-3.44-0.65-6.91-0.52c-3.47,0.13-2.83-3.8-2.69-5.29
		c0.14-1.5-2.43-3.64-3.72-3.5c-0.89,0.09-0.01-1.09,0.58-1.86c0.6-0.78,0.55-1.38,0.57-2.99c0.02-1.61,2.34-3.02,3.49-4.61
		c0.28-0.39,0.72-0.64,1.22-0.8c0.14-0.38,0.42-0.68,0.97-0.8c1.78-0.38,2.66-1.55,0.95-2.52c-1.71-0.96-2.66,1.91-4.53,2.21
		c-1.87,0.29-2.22,1.46-3.46,2.1c-1.24,0.64-3.58,0.13-3.65,1.21c0,0.05-5.86-0.11-5.59,3.29c0.11,1.34,0.57,2.59-1.38,3.86
		c-1.95,1.28-3.08,3.62-3.97,4.7c-0.27,0.33-0.56,0.36-0.88,0.22c-0.11,0.59-0.27,1.07-0.54,1.27c-0.49,0.37-1.66,1.59-2.69,2.68
		c0.51,0.47,0.99,0.9,1.31,1.24c1.27,1.33,0.48,2.41,0.85,3.12c0.37,0.71,0.74,1.78,0.03,2.24c-0.71,0.46-0.02,5.37,0.8,6.25
		c0.82,0.88,0.02,1.7-0.85,3.5c-0.87,1.8-1.67,2.62-3.28,2.72c-1.04,0.07-2.73,3.29-2.8,4.32C31.06,49.81,34.09,51.28,36.49,52.63z"
		/>
	<path class="st1" d="M134.11,189.72c-0.02-1.9-2.12-2.42-2.76-3.14c-0.64-0.71-3.47-1.86-4.57-3.38c-1.11-1.53-1.71,0.56-2.26,0.66
		c-0.54,0.1-0.47-1.17-1.85-2.79c-1.38-1.61-2.65-1.6-3.46-1.22c-0.28,0.13-0.7,0.16-1.2,0.09c-1.72,2.02-2.45,6.67-2.49,9.2
		c-0.05,3.26-0.96,2.73-1.02,5.27c-0.06,2.54,0.84,2.07,1.21,2.43c0.2,0.2-0.03,1.01-0.28,1.7c0.39,0.33,0.77,0.86,1.61,0.75
		c1.61-0.2,3.23,0.4,5.2,1.27c1.98,0.87,1.25-0.28,3.13-0.04c1.88,0.24,4.03,0.4,6.07-0.88c1.4-0.88,2.08-2.37,3.17-3.81
		C133.52,193.66,134.13,191.09,134.11,189.72z"/>
	<path class="st1" d="M116.87,126.21c-1.02-2.92-2.57-6.08-5.8-5.89c-2.62,0.15-4.3-0.42-4.44-1.97c-0.14-1.55-1.7-2.72-0.52-3.33
		c1.18-0.61-0.86-1.66-0.64-3.09c0.22-1.43-0.74-2.02-1.59-2.72c-0.55-0.46-4.67-1.69-5.66-2.15c0.61,0.28-4.27-1.62-3.81-1.66
		c-1.31,0.13-1.08-0.82-2.87-0.56c-1.79,0.26-2.87-0.56-4.81-2.8c-1.94-2.24-1.76-6.66-1.41-7.86c0.59-2.07-8.66,2.08-8.56,2.02
		c-1.66,0.98-2.61,0.99-3.44,1.83c-0.82,0.84-2.13,1.34-3.45,0.88c-0.37-0.13-0.84-0.22-1.35-0.29c0.73,1.75,2.46,4.61,2.85,5.64
		c0.5,1.3-0.57,1.68-1.05,2.16c-0.47,0.49,0.3,4.77,0.43,5.72c0.13,0.95-1.63,2.76-0.91,3.35c0.96,0.78-0.2,7.87-1.44,8.61
		c-0.43,0.25-0.43,0.93-0.32,1.66c0.25-0.08,0.44,1,1.68,1.9c1.44,1.05-0.2,2.87,1.01,4.28c1.21,1.42,2.52,1.51,1.7,2.24
		c-0.82,0.73,0.15,2.15-0.8,2.87c-0.95,0.73,0.4,2.86,1.47,3.32c1.08,0.46,0.39,2.62,1.48,3.68c1.09,1.06,0.64,3.57,1.01,4.4
		c0.37,0.83,3.56-1.24,5.44-3.29c1.88-2.05,1.78-0.38,3.58-0.16c1.79,0.21,3.82,0.19,4.68,1.85c0.86,1.66,1.77-1.69,2.35-2.41
		c0.59-0.72,4.65,0.18,5.37-0.07c0.71-0.25,1.24-5.38,1.11-6.22c-0.13-0.83,1.63-2.88,3.05-3.85c1.42-0.97,3.69-0.29,4.88-0.9
		c2.67-1.37,11.25,3.07,10.35-1.92C116.2,130.03,117.48,127.99,116.87,126.21z"/>
	<path class="st1" d="M56.43,7.25c-1.15,1.59-3.47,2.99-3.49,4.61c-0.02,1.61,0.03,2.22-0.57,2.99c-0.59,0.77-1.47,1.95-0.58,1.86
		c1.29-0.13,3.86,2,3.72,3.5c-0.14,1.49-0.78,5.42,2.69,5.29c3.47-0.13,5.43-1.32,6.91,0.52c1.48,1.83,3.42,2.7,5.68,2.38
		c2.26-0.31,5.92-0.8,4.74,1.19c-1.19,1.99-1.94,6.24-0.87,7.39c1.06,1.16,2.45,2.11,1.61,3.09c-0.83,0.98-1.22,2.19-0.12,3.03
		c1.1,0.83,0.79,1.85,0.75,2.05c-0.01,0.06-0.23,0.19-0.56,0.35c1.63,1.58,2.22,3.31,3.13,4.03c1.22,0.95,1.59,1.43,2.43,0.94
		c0.84-0.49,1.44-0.86,2.17-0.39c0.73,0.47,1.69-0.51,2.77-1.49c1.08-0.98,2.3-0.15,2.65-1.37c0.35-1.21,0.94-1.95,2.27-2.21
		c0.35-0.32,0.7-0.63,1.05-0.95c-0.27,1.88-5.45-6.78-5.39-6.74c-1.46-0.83,1.92-1.24,2.66-0.52c0.74,0.72,3.27,0.08,3.53,1.17
		c0.3,0.32,0.59,0.64,0.89,0.96c1.16,0.18,0.97-2.93,3.45-2.47c1.21,0.22,3.85-1.63,4.94-2c0.57-0.2,0.77-0.88,1.07-1.46
		c-0.81-1.07-2.1-2.74-2.69-3.22c-0.88-0.72,0.56-1.17,0.41-2.18c-0.29-1.87,5.17-2.55,2.41-4.09c-1.02-0.56,0.41-2.17,1.41-2.77
		c0.41-0.24,0.96-0.96,1.46-1.95c-1.93-0.7-4.7-0.6-5.86-0.52c-1.52,0.11,0.96-1.71,1.03-3.32c0.07-1.61-4.32-1.82-6.02-2.16
		c-1.7-0.34-1.28-2.13,0.51-2.24c1.79-0.12-1-1.33-3.41-0.94c-2.41,0.39-5.79,1.78-7.75,2.87c-1.95,1.1-5.41-3.06-7.63-2.14
		c-2.22,0.93-5.35,0.97-5.29-0.82c0.07-1.79-0.94-3.3-3.17-3.09c-1.2,0.11-2.59-2.52-3.43-2.19c-1.41,0.55,0.01,2.07-1.13,2.61
		c-1.16,0.55-5.17,1.59-5.42,3.2c-0.25,1.61,2.2,4.27,1.42,5.88c-0.78,1.62-3.49,0.31-4.31-1.38c-0.83-1.69,2.27-4.32,1.72-5.3
		c-0.38-0.67-0.88-1.94-0.57-2.79C57.15,6.61,56.71,6.87,56.43,7.25z"/>
</g>
<text transform="matrix(1 0 0 1 47.5929 205.5815)" class="st2 st3 st4">Chile</text>
<path class="st5" d="M65.47,133.16c0.19-0.06,0.39-0.12,0.58-0.18l1.24-0.81h1.09l0.62,0.44l0.62-0.07l0.08-0.44l0.39-0.37
	c0.18,0,0.36,0,0.53,0c0.22,0.31,0.44,0.53,0.61,0.69c0.2,0.18,0.44,0.36,0.91,0.72c0.34,0.26,0.64,0.48,0.6,0.67
	c-0.01,0.04-0.04,0.13-0.11,0.22c-0.05,0.06-0.08,0.08-0.15,0.16c0,0-0.09,0.09-0.18,0.21c-0.11,0.15-0.15,0.33-0.16,0.48
	c-0.09,0.77,0.1,1.6-0.22,1.93c-0.03,0.03-0.1,0.11-0.24,0.25c-0.13,0.14-0.19,0.2-0.23,0.29c-0.01,0.02-0.06,0.12-0.08,0.29
	c-0.05,0.42,0.14,0.9,0.14,0.9c0.22,0.57,0.59,1,0.83,1.23c-0.19-0.08-0.38-0.15-0.57-0.23l-0.97,0c-0.07,0.02-0.12,0.08-0.12,0.14
	c0,0.08,0.08,0.15,0.17,0.14c0.13,0.1,0.24,0.12,0.31,0.12c0.17,0,0.26-0.1,0.43-0.05c0.05,0.01,0.11,0.03,0.14,0.08
	c0.07,0.1-0.06,0.23-0.17,0.54c-0.11,0.31-0.06,0.4-0.18,0.51c-0.04,0.03-0.1,0.09-0.37,0.15c-0.16,0.04-0.38,0.08-0.65,0.09
	c-0.8,0.2-1.6,0.39-2.4,0.59c-0.11-0.03-0.23-0.06-0.36-0.08c-0.55-0.1-1.04-0.08-1.44-0.02c0.04-1.7,0.01-3.02-0.03-3.92
	c-0.02-0.41-0.04-0.66-0.06-1.02c-0.13-1.83-0.26-2.44-0.34-2.76C65.63,133.65,65.53,133.34,65.47,133.16z"/>
</svg>
